font-logos.ufo
<glyph name="Alpine" format="2">
  <advance width="489"/>
  <unicode hex="F300"/>
  <note>
Alpine
</note>
  <outline>
    <contour>
      <point x="174" y="102"/>
      <point x="170" y="103" type="qcurve" smooth="yes"/>
      <point x="166" y="104"/>
      <point x="162" y="105" type="qcurve" smooth="yes"/>
      <point x="157" y="107"/>
      <point x="152" y="109" type="qcurve" smooth="yes"/>
      <point x="146" y="112"/>
      <point x="141" y="116" type="qcurve"/>
      <point x="178" y="154" type="line"/>
      <point x="178" y="102" type="line"/>
    </contour>
    <contour>
      <point x="342" y="131" type="line"/>
      <point x="299" y="174" type="line"/>
      <point x="290" y="165" type="line"/>
      <point x="340" y="116" type="line"/>
      <point x="334" y="112"/>
      <point x="328" y="109" type="qcurve" smooth="yes"/>
      <point x="323" y="107"/>
      <point x="318" y="105" type="qcurve" smooth="yes"/>
      <point x="314" y="103"/>
      <point x="309" y="103" type="qcurve"/>
      <point x="306" y="102"/>
      <point x="298" y="102"/>
      <point x="295" y="103" type="qcurve"/>
      <point x="293" y="103"/>
      <point x="290" y="104" type="qcurve"/>
      <point x="289" y="105"/>
      <point x="287" y="105" type="qcurve"/>
      <point x="287" y="106"/>
      <point x="286" y="106" type="qcurve"/>
      <point x="265" y="129" type="line"/>
      <point x="203" y="190" type="line"/>
      <point x="180" y="169" type="line"/>
      <point x="118" y="106" type="line"/>
      <point x="117" y="106"/>
      <point x="117" y="106" type="qcurve"/>
      <point x="115" y="105"/>
      <point x="114" y="104" type="qcurve"/>
      <point x="111" y="103"/>
      <point x="109" y="103" type="qcurve"/>
      <point x="106" y="102"/>
      <point x="98" y="102"/>
      <point x="95" y="103" type="qcurve"/>
      <point x="90" y="103"/>
      <point x="86" y="105" type="qcurve" smooth="yes"/>
      <point x="81" y="107"/>
      <point x="76" y="109" type="qcurve" smooth="yes"/>
      <point x="70" y="112"/>
      <point x="64" y="116" type="qcurve"/>
      <point x="203" y="253" type="line"/>
      <point x="258" y="196" type="line"/>
      <point x="299" y="237" type="line"/>
      <point x="392" y="144" type="line"/>
      <point x="421" y="116" type="line"/>
      <point x="415" y="112"/>
      <point x="409" y="109" type="qcurve" smooth="yes"/>
      <point x="404" y="107"/>
      <point x="399" y="105" type="qcurve" smooth="yes"/>
      <point x="395" y="103"/>
      <point x="390" y="103" type="qcurve"/>
      <point x="387" y="102"/>
      <point x="379" y="102"/>
      <point x="376" y="103" type="qcurve"/>
      <point x="374" y="103"/>
      <point x="371" y="104" type="qcurve"/>
      <point x="370" y="105"/>
      <point x="368" y="105" type="qcurve"/>
      <point x="368" y="106"/>
      <point x="367" y="106" type="qcurve"/>
    </contour>
    <contour>
      <point x="122" y="366" type="line"/>
      <point x="0" y="154" type="line"/>
      <point x="122" y="-58" type="line"/>
      <point x="367" y="-58" type="line"/>
      <point x="489" y="154" type="line"/>
      <point x="367" y="366" type="line"/>
    </contour>
    <contour>
      <point x="293" y="167" type="line"/>
      <point x="260" y="199" type="line"/>
      <point x="258" y="197" type="line"/>
      <point x="290" y="164" type="line"/>
    </contour>
  </outline>
</glyph>
<glyph name="AOSC OS" format="2">
  <advance width="497"/>
  <unicode hex="F301"/>
  <note>
AOSC OS
</note>
  <outline>
    <contour>
      <point x="0" y="257"/>
      <point x="0" y="51"/>
      <point x="146" y="-95"/>
      <point x="352" y="-95"/>
      <point x="497" y="51"/>
      <point x="497" y="257"/>
      <point x="352" y="403"/>
      <point x="146" y="403"/>
    </contour>
    <contour>
      <point x="325" y="337"/>
      <point x="432" y="230"/>
      <point x="432" y="154" type="qcurve" smooth="yes"/>
      <point x="432" y="111"/>
      <point x="413" y="72" type="qcurve"/>
      <point x="329" y="116" type="line"/>
      <point x="338" y="134"/>
      <point x="338" y="155" type="qcurve" smooth="yes"/>
      <point x="338" y="191"/>
      <point x="286" y="243"/>
      <point x="248" y="243" type="qcurve" smooth="yes"/>
      <point x="247" y="243"/>
      <point x="246" y="243" type="qcurve"/>
      <point x="240" y="337" type="line"/>
      <point x="244" y="337"/>
      <point x="249" y="337" type="qcurve" smooth="yes"/>
    </contour>
    <contour>
      <point x="234" y="337" type="line"/>
      <point x="234" y="336" type="line"/>
      <point x="235" y="337" type="line"/>
    </contour>
    <contour>
      <point x="170" y="198" type="line"/>
      <point x="158" y="178"/>
      <point x="158" y="155" type="qcurve" smooth="yes"/>
      <point x="158" y="118"/>
      <point x="211" y="66"/>
      <point x="248" y="66" type="qcurve" smooth="yes"/>
      <point x="253" y="66"/>
      <point x="258" y="66" type="qcurve"/>
      <point x="264" y="-29" type="line"/>
      <point x="256" y="-29"/>
      <point x="249" y="-29" type="qcurve" smooth="yes"/>
      <point x="173" y="-29"/>
      <point x="66" y="78"/>
      <point x="66" y="154" type="qcurve" smooth="yes"/>
      <point x="66" y="200"/>
      <point x="87" y="241" type="qcurve"/>
    </contour>
  </outline>
</glyph>
<glyph name="Apple" format="2">
  <advance width="431"/>
  <unicode hex="F302"/>
  <note>
Apple
</note>
  <outline>
    <contour>
      <point x="427" y="22"/>
      <point x="431" y="35" type="qcurve"/>
      <point x="412" y="43"/>
      <point x="396" y="58" type="qcurve" smooth="yes"/>
      <point x="361" y="90"/>
      <point x="360" y="139" type="qcurve" smooth="yes"/>
      <point x="360" y="202"/>
      <point x="418" y="237" type="qcurve"/>
      <point x="385" y="283"/>
      <point x="321" y="288" type="qcurve" smooth="yes"/>
      <point x="297" y="290"/>
      <point x="262" y="278" type="qcurve" smooth="yes"/>
      <point x="226" y="265"/>
      <point x="219" y="265" type="qcurve" smooth="yes"/>
      <point x="211" y="265"/>
      <point x="150" y="287"/>
      <point x="132" y="287" type="qcurve" smooth="yes"/>
      <point x="98" y="287"/>
      <point x="40" y="252"/>
      <point x="22" y="222" type="qcurve" smooth="yes"/>
      <point x="0" y="185"/>
      <point x="0" y="134" type="qcurve" smooth="yes"/>
      <point x="0" y="89"/>
      <point x="16" y="41" type="qcurve" smooth="yes"/>
      <point x="32" y="-3"/>
      <point x="56" y="-37" type="qcurve" smooth="yes"/>
      <point x="78" y="-68"/>
      <point x="93" y="-81" type="qcurve" smooth="yes"/>
      <point x="116" y="-103"/>
      <point x="139" y="-102" type="qcurve" smooth="yes"/>
      <point x="155" y="-101"/>
      <point x="204" y="-81"/>
      <point x="226" y="-81" type="qcurve" smooth="yes"/>
      <point x="247" y="-81"/>
      <point x="296" y="-101"/>
      <point x="314" y="-101" type="qcurve" smooth="yes"/>
      <point x="338" y="-101"/>
      <point x="359" y="-81" type="qcurve" smooth="yes"/>
      <point x="373" y="-69"/>
      <point x="395" y="-38" type="qcurve" smooth="yes"/>
      <point x="411" y="-16"/>
      <point x="422" y="11" type="qcurve" smooth="yes"/>
    </contour>
    <contour>
      <point x="323" y="405"/>
      <point x="323" y="410" type="qcurve"/>
      <point x="303" y="409"/>
      <point x="260" y="387"/>
      <point x="245" y="371" type="qcurve" smooth="yes"/>
      <point x="216" y="337"/>
      <point x="216" y="299" type="qcurve" smooth="yes"/>
      <point x="216" y="294"/>
      <point x="216" y="289" type="qcurve"/>
      <point x="259" y="286"/>
      <point x="295" y="328" type="qcurve" smooth="yes"/>
      <point x="323" y="361"/>
      <point x="323" y="400" type="qcurve" smooth="yes"/>
    </contour>
  </outline>
</glyph>
<glyph name="Arch Linux" format="2">
  <advance width="512"/>
  <unicode hex="F303"/>
  <note>
Arch Linux
</note>
  <outline>
    <contour>
      <point x="200" y="291"/>
      <point x="184" y="258" type="qcurve"/>
      <point x="214" y="226"/>
      <point x="247" y="203" type="qcurve"/>
      <point x="203" y="221"/>
      <point x="177" y="243" type="qcurve"/>
      <point x="130" y="144"/>
      <point x="0" y="-89" type="qcurve"/>
      <point x="119" y="-21"/>
      <point x="192" y="-7" type="qcurve"/>
      <point x="189" y="10"/>
      <point x="189" y="26" type="qcurve" smooth="yes"/>
      <point x="189" y="29" type="line" smooth="yes"/>
      <point x="190" y="66"/>
      <point x="223" y="115"/>
      <point x="269" y="112"/>
      <point x="300" y="56"/>
      <point x="299" y="19" type="qcurve" smooth="yes"/>
      <point x="299" y="5"/>
      <point x="296" y="-7" type="qcurve"/>
      <point x="369" y="-21"/>
      <point x="486" y="-89" type="qcurve"/>
      <point x="476" y="-70"/>
      <point x="445" y="-13" type="qcurve"/>
      <point x="442" y="-10"/>
      <point x="418" y="9"/>
      <point x="404" y="19"/>
      <point x="376" y="37"/>
      <point x="361" y="45" type="qcurve"/>
      <point x="402" y="34"/>
      <point x="428" y="19" type="qcurve"/>
      <point x="404" y="63"/>
      <point x="365" y="138"/>
      <point x="337" y="191"/>
      <point x="310" y="245"/>
      <point x="297" y="272"/>
      <point x="276" y="320"/>
      <point x="270" y="335"/>
      <point x="247" y="388"/>
      <point x="243" y="397" type="qcurve"/>
    </contour>
    <contour>
      <point x="488" y="-46" type="line"/>
      <point x="490" y="-46" type="line"/>
      <point x="490" y="-32" type="line"/>
      <point x="495" y="-32" type="line"/>
      <point x="495" y="-31" type="line"/>
      <point x="484" y="-31" type="line"/>
      <point x="484" y="-32" type="line"/>
      <point x="488" y="-32" type="line"/>
      <point x="488" y="-46" type="line"/>
    </contour>
    <contour>
      <point x="498" y="-46" type="line"/>
      <point x="500" y="-46" type="line"/>
      <point x="500" y="-33" type="line"/>
      <point x="504" y="-46" type="line"/>
      <point x="506" y="-46" type="line"/>
      <point x="510" y="-33" type="line"/>
      <point x="510" y="-46" type="line"/>
      <point x="512" y="-46" type="line"/>
      <point x="512" y="-31" type="line"/>
      <point x="509" y="-31" type="line"/>
      <point x="506" y="-41" type="line" smooth="yes"/>
      <point x="505" y="-43"/>
      <point x="505" y="-44" type="qcurve"/>
      <point x="505" y="-43"/>
      <point x="504" y="-41" type="qcurve" smooth="yes"/>
      <point x="501" y="-31" type="line"/>
      <point x="498" y="-31" type="line"/>
      <point x="498" y="-46" type="line"/>
    </contour>
  </outline>
</glyph>
<glyph name="CentOS" format="2">
  <advance width="512"/>
  <unicode hex="F304"/>
  <note>
CentOS
</note>
  <outline>
    <contour>
      <point x="26" y="128"/>
      <point x="52" y="102" type="qcurve"/>
      <point x="52" y="141" type="line"/>
      <point x="207" y="141" type="line"/>
      <point x="209" y="143"/>
      <point x="218" y="151"/>
      <point x="220" y="154" type="qcurve"/>
      <point x="218" y="155"/>
      <point x="212" y="162"/>
      <point x="207" y="167"/>
      <point x="204" y="169" type="qcurve"/>
      <point x="52" y="169" type="line"/>
      <point x="52" y="206" type="line"/>
      <point x="43" y="197"/>
      <point x="9" y="163"/>
      <point x="0" y="154" type="qcurve"/>
    </contour>
    <contour>
      <point x="459" y="167"/>
      <point x="445" y="168" type="qcurve"/>
      <point x="433" y="167"/>
      <point x="318" y="168"/>
      <point x="305" y="168" type="qcurve"/>
      <point x="303" y="165"/>
      <point x="294" y="157"/>
      <point x="292" y="154" type="qcurve"/>
      <point x="293" y="153"/>
      <point x="304" y="142"/>
      <point x="308" y="139" type="qcurve"/>
      <point x="460" y="139" type="line"/>
      <point x="460" y="102" type="line"/>
      <point x="469" y="111"/>
      <point x="503" y="145"/>
      <point x="512" y="154" type="qcurve"/>
      <point x="506" y="160"/>
      <point x="485" y="181"/>
      <point x="468" y="198"/>
      <point x="460" y="206" type="qcurve"/>
      <point x="460" y="172" type="line"/>
    </contour>
    <contour>
      <point x="243" y="358" type="line"/>
      <point x="243" y="203" type="line"/>
      <point x="249" y="197"/>
      <point x="256" y="190" type="qcurve"/>
      <point x="257" y="191"/>
      <point x="269" y="203"/>
      <point x="271" y="207" type="qcurve"/>
      <point x="271" y="358" type="line"/>
      <point x="308" y="358" type="line"/>
      <point x="300" y="366"/>
      <point x="283" y="383"/>
      <point x="262" y="404"/>
      <point x="256" y="410" type="qcurve"/>
      <point x="230" y="384"/>
      <point x="204" y="358" type="qcurve"/>
    </contour>
    <contour>
      <point x="241" y="-50" type="line"/>
      <point x="204" y="-50" type="line"/>
      <point x="256" y="-102" type="line"/>
      <point x="265" y="-93"/>
      <point x="299" y="-59"/>
      <point x="308" y="-50" type="qcurve"/>
      <point x="270" y="-50" type="line"/>
      <point x="270" y="105" type="line"/>
      <point x="267" y="107"/>
      <point x="258" y="116"/>
      <point x="256" y="118" type="qcurve"/>
      <point x="254" y="116"/>
      <point x="244" y="106"/>
      <point x="241" y="103" type="qcurve"/>
    </contour>
    <contour>
      <point x="69" y="205"/>
      <point x="69" y="186" type="qcurve"/>
      <point x="188" y="186" type="line"/>
      <point x="176" y="198"/>
      <point x="150" y="224"/>
      <point x="119" y="255"/>
      <point x="110" y="264" type="qcurve"/>
      <point x="89" y="244"/>
      <point x="69" y="223" type="qcurve"/>
    </contour>
    <contour>
      <point x="147" y="299" type="line"/>
      <point x="225" y="221" type="line"/>
      <point x="225" y="340" type="line"/>
      <point x="187" y="340" type="line"/>
    </contour>
    <contour>
      <point x="151" y="1"/>
      <point x="165" y="-13"/>
      <point x="181" y="-29"/>
      <point x="186" y="-34" type="qcurve"/>
      <point x="188" y="-34" type="line"/>
      <point x="189" y="-34" type="line"/>
      <point x="190" y="-34" type="line"/>
      <point x="191" y="-34" type="line"/>
      <point x="192" y="-34" type="line"/>
      <point x="193" y="-34" type="line"/>
      <point x="194" y="-34" type="line"/>
      <point x="195" y="-34" type="line"/>
      <point x="196" y="-34" type="line"/>
      <point x="197" y="-34" type="line"/>
      <point x="198" y="-34" type="line"/>
      <point x="199" y="-34" type="line"/>
      <point x="200" y="-34" type="line"/>
      <point x="201" y="-34" type="line"/>
      <point x="202" y="-34" type="line"/>
      <point x="203" y="-34" type="line"/>
      <point x="204" y="-34" type="line"/>
      <point x="205" y="-34" type="line"/>
      <point x="206" y="-34" type="line"/>
      <point x="207" y="-34" type="line"/>
      <point x="208" y="-34" type="line"/>
      <point x="209" y="-34" type="line"/>
      <point x="210" y="-34" type="line"/>
      <point x="211" y="-34" type="line"/>
      <point x="212" y="-34" type="line"/>
      <point x="213" y="-34" type="line"/>
      <point x="214" y="-34" type="line"/>
      <point x="215" y="-34" type="line"/>
      <point x="216" y="-34" type="line"/>
      <point x="217" y="-34" type="line"/>
      <point x="218" y="-34" type="line"/>
      <point x="219" y="-34" type="line"/>
      <point x="220" y="-34" type="line"/>
      <point x="221" y="-34" type="line"/>
      <point x="222" y="-34" type="line"/>
      <point x="223" y="-34" type="line"/>
      <point x="223" y="85" type="line"/>
      <point x="210" y="72"/>
      <point x="158" y="20"/>
      <point x="145" y="7" type="qcurve"/>
    </contour>
    <contour>
      <point x="110" y="44" type="line"/>
      <point x="123" y="57"/>
      <point x="175" y="109"/>
      <point x="188" y="122" type="qcurve"/>
      <point x="69" y="122" type="line"/>
      <point x="69" y="116"/>
      <point x="69" y="91"/>
      <point x="69" y="85" type="qcurve"/>
    </contour>
    <contour>
      <point x="366" y="301" type="line"/>
      <point x="345" y="321"/>
      <point x="325" y="341" type="qcurve"/>
      <point x="323" y="341" type="line"/>
      <point x="322" y="341" type="line"/>
      <point x="321" y="341" type="line"/>
      <point x="320" y="341" type="line"/>
      <point x="319" y="341" type="line"/>
      <point x="318" y="341" type="line"/>
      <point x="317" y="341" type="line"/>
      <point x="316" y="341" type="line"/>
      <point x="315" y="341" type="line"/>
      <point x="314" y="341" type="line"/>
      <point x="313" y="341" type="line"/>
      <point x="312" y="341" type="line"/>
      <point x="311" y="341" type="line"/>
      <point x="310" y="341" type="line"/>
      <point x="309" y="341" type="line"/>
      <point x="308" y="342" type="line"/>
      <point x="307" y="342" type="line"/>
      <point x="306" y="342" type="line"/>
      <point x="305" y="342" type="line"/>
      <point x="304" y="342" type="line"/>
      <point x="303" y="342" type="line"/>
      <point x="302" y="342" type="line"/>
      <point x="301" y="342" type="line"/>
      <point x="300" y="342" type="line"/>
      <point x="299" y="342" type="line"/>
      <point x="298" y="342" type="line"/>
      <point x="297" y="342" type="line"/>
      <point x="296" y="342" type="line"/>
      <point x="295" y="342" type="line"/>
      <point x="294" y="342" type="line"/>
      <point x="293" y="342" type="line"/>
      <point x="292" y="342" type="line"/>
      <point x="291" y="342" type="line"/>
      <point x="290" y="342" type="line"/>
      <point x="289" y="342" type="line"/>
      <point x="288" y="342" type="line"/>
      <point x="288" y="222" type="line"/>
    </contour>
    <contour>
      <point x="442" y="186" type="line"/>
      <point x="442" y="192"/>
      <point x="442" y="217"/>
      <point x="442" y="223" type="qcurve"/>
      <point x="421" y="243"/>
      <point x="401" y="264" type="qcurve"/>
      <point x="323" y="186" type="line"/>
    </contour>
    <contour>
      <point x="443" y="85" type="line"/>
      <point x="443" y="92"/>
      <point x="443" y="116"/>
      <point x="443" y="123" type="qcurve"/>
      <point x="324" y="123" type="line"/>
      <point x="337" y="110"/>
      <point x="389" y="58"/>
      <point x="402" y="45" type="qcurve"/>
    </contour>
    <contour>
      <point x="306" y="-31"/>
      <point x="325" y="-31" type="qcurve"/>
      <point x="366" y="10" type="line"/>
      <point x="353" y="23"/>
      <point x="301" y="75"/>
      <point x="288" y="88" type="qcurve"/>
      <point x="288" y="-31" type="line"/>
    </contour>
    <contour>
      <point x="104" y="282"/>
      <point x="110" y="288" type="qcurve"/>
      <point x="144" y="254"/>
      <point x="212" y="186" type="qcurve"/>
      <point x="225" y="186" type="line"/>
      <point x="225" y="198" type="line"/>
      <point x="121" y="300" type="line"/>
      <point x="136" y="315"/>
      <point x="163" y="341" type="qcurve"/>
      <point x="69" y="341" type="line"/>
      <point x="69" y="248" type="line"/>
    </contour>
    <contour>
      <point x="288" y="112" type="line"/>
      <point x="392" y="9" type="line"/>
      <point x="351" y="-33" type="line"/>
      <point x="444" y="-33" type="line"/>
      <point x="444" y="61" type="line"/>
      <point x="403" y="20" type="line"/>
      <point x="300" y="123" type="line"/>
      <point x="288" y="123" type="line"/>
    </contour>
    <contour>
      <point x="381" y="292" type="line"/>
      <point x="289" y="199" type="line"/>
      <point x="289" y="186" type="line"/>
      <point x="299" y="186" type="line"/>
      <point x="402" y="290" type="line"/>
      <point x="444" y="248" type="line"/>
      <point x="444" y="342" type="line"/>
      <point x="350" y="342" type="line"/>
      <point x="388" y="304" type="line"/>
    </contour>
    <contour>
      <point x="111" y="19" type="line"/>
      <point x="70" y="60" type="line"/>
      <point x="70" y="-33" type="line"/>
      <point x="163" y="-33" type="line"/>
      <point x="122" y="7" type="line"/>
      <point x="223" y="109" type="line"/>
      <point x="223" y="122" type="line"/>
      <point x="211" y="122" type="line"/>
    </contour>
  </outline>
</glyph>
<glyph name="CoreOS" format="2">
  <advance width="496"/>
  <unicode hex="F305"/>
  <note>
CoreOS
</note>
  <outline>
    <contour>
      <point x="0" y="257"/>
      <point x="0" y="52"/>
      <point x="145" y="-93"/>
      <point x="350" y="-93"/>
      <point x="496" y="52"/>
      <point x="496" y="257"/>
      <point x="350" y="403"/>
      <point x="145" y="403"/>
    </contour>
    <contour>
      <point x="341" y="380"/>
      <point x="473" y="248"/>
      <point x="473" y="155" type="qcurve" smooth="yes"/>
      <point x="473" y="134"/>
      <point x="400" y="100"/>
      <point x="341" y="92" type="qcurve" smooth="yes"/>
      <point x="336" y="91"/>
      <point x="335" y="91" type="qcurve" smooth="yes"/>
      <point x="307" y="87"/>
      <point x="275" y="86" type="qcurve" smooth="yes"/>
      <point x="262" y="85"/>
      <point x="234" y="85"/>
      <point x="220" y="86" type="qcurve" smooth="yes"/>
      <point x="189" y="87"/>
      <point x="161" y="91" type="qcurve"/>
      <point x="158" y="112"/>
      <point x="158" y="134" type="qcurve" smooth="yes"/>
      <point x="157" y="143"/>
      <point x="157" y="166"/>
      <point x="158" y="176" type="qcurve" smooth="yes"/>
      <point x="158" y="198"/>
      <point x="161" y="219" type="qcurve"/>
      <point x="161" y="224"/>
      <point x="162" y="228" type="qcurve" smooth="yes"/>
      <point x="171" y="295"/>
      <point x="218" y="380"/>
      <point x="248" y="380" type="qcurve" smooth="yes"/>
    </contour>
    <contour>
      <point x="231" y="267"/>
      <point x="220" y="224" type="qcurve" smooth="yes"/>
      <point x="217" y="208"/>
      <point x="215" y="188" type="qcurve" smooth="yes"/>
      <point x="213" y="172"/>
      <point x="213" y="138"/>
      <point x="215" y="122" type="qcurve"/>
      <point x="231" y="120"/>
      <point x="265" y="120"/>
      <point x="281" y="122" type="qcurve" smooth="yes"/>
      <point x="316" y="125"/>
      <point x="360" y="143"/>
      <point x="360" y="155" type="qcurve" smooth="yes"/>
      <point x="360" y="190"/>
      <point x="341" y="218" type="qcurve" smooth="yes"/>
      <point x="338" y="223"/>
      <point x="334" y="228" type="qcurve" smooth="yes"/>
      <point x="300" y="267"/>
      <point x="248" y="267" type="qcurve" smooth="yes"/>
    </contour>
  </outline>
</glyph>
<glyph name="Debian" format="2">
  <advance width="409"/>
  <unicode hex="F306"/>
  <note>
Debian
</note>
  <outline>
    <contour>
      <point x="1" y="246"/>
      <point x="5" y="261" type="qcurve"/>
      <point x="1" y="257"/>
      <point x="0" y="251"/>
      <point x="1" y="245"/>
      <point x="0" y="243" type="qcurve"/>
    </contour>
    <contour>
      <point x="18" y="293"/>
      <point x="14" y="287" type="qcurve"/>
      <point x="15" y="287" type="line"/>
      <point x="17" y="289"/>
      <point x="20" y="291" type="qcurve"/>
      <point x="24" y="299"/>
      <point x="17" y="298"/>
      <point x="17" y="299" type="qcurve" smooth="yes"/>
    </contour>
    <contour>
      <point x="217" y="407"/>
      <point x="232" y="408"/>
      <point x="234" y="408" type="qcurve" smooth="yes"/>
      <point x="212" y="407"/>
      <point x="211" y="406" type="qcurve"/>
      <point x="214" y="406" type="line"/>
    </contour>
    <contour>
      <point x="396" y="176" type="line"/>
      <point x="392" y="151"/>
      <point x="381" y="129" type="qcurve"/>
      <point x="394" y="152"/>
      <point x="397" y="179" type="qcurve"/>
    </contour>
    <contour>
      <point x="163" y="131"/>
      <point x="159" y="140" type="qcurve"/>
      <point x="160" y="134"/>
      <point x="168" y="121" type="qcurve"/>
      <point x="165" y="129" type="line"/>
    </contour>
    <contour>
      <point x="151" y="122" type="line"/>
      <point x="165" y="103"/>
      <point x="168" y="101" type="qcurve"/>
      <point x="166" y="105"/>
      <point x="156" y="121"/>
      <point x="152" y="128" type="qcurve"/>
    </contour>
    <contour>
      <point x="362" y="189" type="line"/>
      <point x="357" y="180" type="line"/>
      <point x="360" y="188"/>
      <point x="361" y="208"/>
      <point x="361" y="232"/>
      <point x="361" y="237" type="qcurve"/>
      <point x="359" y="237" type="line"/>
      <point x="358" y="270"/>
      <point x="312" y="333"/>
      <point x="284" y="346" type="qcurve" smooth="yes"/>
      <point x="262" y="356"/>
      <point x="203" y="360"/>
      <point x="188" y="352" type="qcurve"/>
      <point x="189" y="353"/>
      <point x="196" y="355" type="qcurve" smooth="yes"/>
      <point x="200" y="357"/>
      <point x="199" y="358" type="qcurve"/>
      <point x="180" y="356"/>
      <point x="157" y="342"/>
      <point x="147" y="340" type="qcurve"/>
      <point x="147" y="338"/>
      <point x="153" y="339" type="qcurve" smooth="yes"/>
      <point x="156" y="339"/>
      <point x="157" y="340" type="qcurve" smooth="yes"/>
      <point x="153" y="336" type="line"/>
      <point x="150" y="335"/>
      <point x="134" y="334"/>
      <point x="122" y="327"/>
      <point x="113" y="318" type="qcurve"/>
      <point x="114" y="316"/>
      <point x="118" y="319" type="qcurve" smooth="yes"/>
      <point x="120" y="320" type="line"/>
      <point x="117" y="315" type="line"/>
      <point x="104" y="316"/>
      <point x="57" y="271"/>
      <point x="48" y="256" type="qcurve"/>
      <point x="52" y="255" type="line"/>
      <point x="50" y="248"/>
      <point x="35" y="220"/>
      <point x="34" y="214" type="qcurve" smooth="yes"/>
      <point x="33" y="208"/>
      <point x="30" y="172"/>
      <point x="28" y="151"/>
      <point x="31" y="126"/>
      <point x="36" y="120" type="qcurve"/>
      <point x="34" y="107" type="line"/>
      <point x="40" y="97"/>
      <point x="40" y="97" type="qcurve"/>
      <point x="37" y="96" type="line"/>
      <point x="42" y="81"/>
      <point x="49" y="72"/>
      <point x="55" y="75"/>
      <point x="64" y="65"/>
      <point x="71" y="49" type="qcurve"/>
      <point x="65" y="51"/>
      <point x="61" y="57" type="qcurve"/>
      <point x="60" y="49"/>
      <point x="74" y="31" type="qcurve"/>
      <point x="71" y="27" type="line"/>
      <point x="73" y="24"/>
      <point x="82" y="16" type="qcurve"/>
      <point x="79" y="17"/>
      <point x="78" y="17" type="qcurve" smooth="yes"/>
      <point x="75" y="16"/>
      <point x="94" y="-9" type="qcurve" smooth="yes"/>
      <point x="98" y="-15"/>
      <point x="99" y="-16" type="qcurve"/>
      <point x="101" y="-12" type="line"/>
      <point x="101" y="-20"/>
      <point x="114" y="-37" type="qcurve"/>
      <point x="121" y="-36" type="line"/>
      <point x="124" y="-41"/>
      <point x="137" y="-53"/>
      <point x="142" y="-53" type="qcurve"/>
      <point x="137" y="-59" type="line"/>
      <point x="146" y="-62"/>
      <point x="156" y="-70"/>
      <point x="166" y="-73" type="qcurve"/>
      <point x="162" y="-66" type="line"/>
      <point x="165" y="-69"/>
      <point x="175" y="-80"/>
      <point x="184" y="-87"/>
      <point x="190" y="-90" type="qcurve" smooth="yes"/>
      <point x="201" y="-94"/>
      <point x="225" y="-98"/>
      <point x="234" y="-100" type="qcurve"/>
      <point x="193" y="-99"/>
      <point x="182" y="-95" type="qcurve"/>
      <point x="108" y="-75"/>
      <point x="0" y="75"/>
      <point x="4" y="159" type="qcurve" smooth="yes"/>
      <point x="4" y="172"/>
      <point x="5" y="195"/>
      <point x="5" y="215"/>
      <point x="3" y="218" type="qcurve"/>
      <point x="16" y="259"/>
      <point x="28" y="284" type="qcurve"/>
      <point x="30" y="279"/>
      <point x="36" y="290" type="qcurve" smooth="yes"/>
      <point x="48" y="316"/>
      <point x="48" y="316" type="qcurve"/>
      <point x="51" y="317" type="line"/>
      <point x="52" y="323"/>
      <point x="69" y="342"/>
      <point x="92" y="362"/>
      <point x="95" y="366" type="qcurve"/>
      <point x="96" y="361" type="line"/>
      <point x="103" y="368"/>
      <point x="126" y="382"/>
      <point x="142" y="390"/>
      <point x="172" y="402"/>
      <point x="175" y="403" type="qcurve"/>
      <point x="174" y="402"/>
      <point x="184" y="402" type="qcurve"/>
      <point x="195" y="404"/>
      <point x="200" y="405" type="qcurve"/>
      <point x="188" y="398"/>
      <point x="188" y="398" type="qcurve"/>
      <point x="195" y="400"/>
      <point x="211" y="398"/>
      <point x="218" y="399" type="qcurve"/>
      <point x="207" y="395" type="line"/>
      <point x="214" y="394"/>
      <point x="237" y="398"/>
      <point x="243" y="395" type="qcurve"/>
      <point x="242" y="400" type="line"/>
      <point x="250" y="397"/>
      <point x="269" y="391"/>
      <point x="283" y="386"/>
      <point x="294" y="380" type="qcurve"/>
      <point x="296" y="380"/>
      <point x="312" y="384"/>
      <point x="317" y="380" type="qcurve"/>
      <point x="317" y="379"/>
      <point x="319" y="376"/>
      <point x="320" y="374"/>
      <point x="327" y="369"/>
      <point x="332" y="366" type="qcurve"/>
      <point x="334" y="366"/>
      <point x="325" y="374" type="qcurve"/>
      <point x="351" y="361"/>
      <point x="395" y="310"/>
      <point x="403" y="281" type="qcurve"/>
      <point x="399" y="288"/>
      <point x="398" y="288" type="qcurve"/>
      <point x="398" y="287"/>
      <point x="399" y="281" type="qcurve" smooth="yes"/>
      <point x="400" y="273"/>
      <point x="398" y="274" type="qcurve"/>
      <point x="406" y="254"/>
      <point x="409" y="236" type="qcurve"/>
      <point x="398" y="274"/>
      <point x="388" y="289" type="qcurve"/>
      <point x="388" y="285"/>
      <point x="383" y="285"/>
      <point x="380" y="286"/>
      <point x="378" y="281"/>
      <point x="381" y="273" type="qcurve" smooth="yes"/>
      <point x="383" y="269"/>
      <point x="384" y="271" type="qcurve" smooth="yes"/>
      <point x="386" y="274"/>
      <point x="389" y="266" type="qcurve"/>
      <point x="389" y="262"/>
      <point x="393" y="246"/>
      <point x="393" y="243" type="qcurve"/>
      <point x="392" y="244"/>
      <point x="390" y="248"/>
      <point x="387" y="252"/>
      <point x="386" y="251" type="qcurve"/>
      <point x="390" y="235"/>
      <point x="394" y="233" type="qcurve"/>
      <point x="394" y="233"/>
      <point x="391" y="231"/>
      <point x="391" y="227" type="qcurve" smooth="yes"/>
      <point x="392" y="220"/>
      <point x="394" y="215"/>
      <point x="395" y="215"/>
      <point x="398" y="216"/>
      <point x="398" y="215" type="qcurve" smooth="yes"/>
      <point x="398" y="213"/>
      <point x="392" y="199"/>
      <point x="391" y="191"/>
      <point x="392" y="181" type="qcurve" smooth="yes"/>
      <point x="392" y="183"/>
      <point x="387" y="195" type="qcurve"/>
      <point x="387" y="192"/>
      <point x="388" y="169"/>
      <point x="384" y="164" type="qcurve"/>
      <point x="387" y="174"/>
      <point x="387" y="181" type="qcurve" smooth="yes"/>
      <point x="387" y="189"/>
      <point x="384" y="184" type="qcurve"/>
      <point x="385" y="174"/>
      <point x="369" y="142"/>
      <point x="370" y="136" type="qcurve"/>
      <point x="365" y="143" type="line"/>
      <point x="358" y="133"/>
      <point x="359" y="124"/>
      <point x="355" y="117" type="qcurve" smooth="yes"/>
      <point x="357" y="120"/>
      <point x="356" y="123"/>
      <point x="358" y="126" type="qcurve"/>
      <point x="357" y="126"/>
      <point x="350" y="120"/>
      <point x="339" y="109"/>
      <point x="335" y="106" type="qcurve" smooth="yes"/>
      <point x="280" y="62"/>
      <point x="210" y="89" type="qcurve"/>
      <point x="209" y="88"/>
      <point x="214" y="83"/>
      <point x="221" y="78"/>
      <point x="225" y="76" type="qcurve" smooth="yes"/>
      <point x="244" y="69"/>
      <point x="274" y="71" type="qcurve"/>
      <point x="251" y="61"/>
      <point x="178" y="93"/>
      <point x="163" y="119" type="qcurve"/>
      <point x="164" y="119"/>
      <point x="188" y="93"/>
      <point x="194" y="91" type="qcurve"/>
      <point x="186" y="97"/>
      <point x="177" y="110" type="qcurve"/>
      <point x="191" y="94"/>
      <point x="210" y="85" type="qcurve"/>
      <point x="210" y="85"/>
      <point x="211" y="92"/>
      <point x="207" y="93" type="qcurve"/>
      <point x="176" y="116"/>
      <point x="151" y="161"/>
      <point x="157" y="199" type="qcurve"/>
      <point x="158" y="201"/>
      <point x="169" y="230"/>
      <point x="176" y="235" type="qcurve"/>
      <point x="182" y="248"/>
      <point x="214" y="268"/>
      <point x="232" y="268" type="qcurve" smooth="yes"/>
      <point x="268" y="270"/>
      <point x="290" y="240" type="qcurve"/>
      <point x="275" y="254"/>
      <point x="232" y="261"/>
      <point x="211" y="251" type="qcurve" smooth="yes"/>
      <point x="190" y="241"/>
      <point x="167" y="200"/>
      <point x="169" y="176" type="qcurve"/>
      <point x="171" y="180"/>
      <point x="171" y="181" type="qcurve" smooth="yes"/>
      <point x="171" y="137"/>
      <point x="247" y="82"/>
      <point x="283" y="99" type="qcurve"/>
      <point x="283" y="98" type="line"/>
      <point x="292" y="100"/>
      <point x="300" y="105"/>
      <point x="308" y="113"/>
      <point x="312" y="116" type="qcurve"/>
      <point x="307" y="110"/>
      <point x="308" y="109" type="qcurve"/>
      <point x="313" y="110"/>
      <point x="343" y="136" type="qcurve"/>
      <point x="344" y="141"/>
      <point x="343" y="147"/>
      <point x="346" y="153" type="qcurve"/>
      <point x="354" y="157" type="line"/>
      <point x="362" y="181"/>
      <point x="362" y="189" type="qcurve"/>
    </contour>
    <contour>
      <point x="218" y="399" type="line"/>
      <point x="221" y="399" type="line"/>
    </contour>
    <contour>
      <point x="213" y="402"/>
      <point x="215" y="401" type="qcurve"/>
      <point x="222" y="400"/>
      <point x="221" y="399" type="qcurve"/>
      <point x="223" y="400"/>
      <point x="224" y="400" type="qcurve" smooth="yes"/>
      <point x="212" y="402"/>
      <point x="212" y="402" type="qcurve"/>
    </contour>
    <contour>
      <point x="307" y="200"/>
      <point x="306" y="203" type="qcurve" smooth="yes"/>
      <point x="305" y="206"/>
      <point x="304" y="204" type="qcurve" smooth="yes"/>
      <point x="303" y="202"/>
      <point x="302" y="199" type="qcurve"/>
      <point x="302" y="199"/>
      <point x="304" y="195" type="qcurve" smooth="yes"/>
      <point x="305" y="191"/>
      <point x="306" y="194" type="qcurve" smooth="yes"/>
    </contour>
    <contour>
      <point x="290" y="151" type="line"/>
      <point x="290" y="153"/>
      <point x="286" y="154"/>
      <point x="283" y="155"/>
      <point x="287" y="162"/>
      <point x="292" y="170" type="qcurve"/>
      <point x="292" y="168"/>
      <point x="288" y="162" type="qcurve" smooth="yes"/>
      <point x="285" y="157"/>
      <point x="285" y="155" type="qcurve" smooth="yes"/>
      <point x="285" y="153"/>
      <point x="292" y="158" type="qcurve"/>
      <point x="299" y="169"/>
      <point x="299" y="173" type="qcurve"/>
      <point x="298" y="162"/>
      <point x="290" y="151" type="qcurve"/>
    </contour>
    <contour>
      <point x="244" y="140" type="line"/>
      <point x="256" y="138"/>
      <point x="265" y="141" type="qcurve"/>
      <point x="261" y="137"/>
      <point x="257" y="134" type="qcurve"/>
      <point x="252" y="134"/>
      <point x="247" y="136" type="qcurve" smooth="yes"/>
      <point x="235" y="139"/>
      <point x="244" y="140" type="qcurve"/>
    </contour>
  </outline>
</glyph>
<glyph name="Devuan" format="2">
  <advance width="488"/>
  <unicode hex="F307"/>
  <note>
Devuan
</note>
  <outline>
    <contour>
      <point x="139" y="356"/>
      <point x="318" y="288"/>
      <point x="393" y="230"/>
      <point x="398" y="172"/>
      <point x="354" y="126"/>
      <point x="268" y="81"/>
      <point x="187" y="52"/>
      <point x="92" y="26"/>
      <point x="57" y="18"/>
      <point x="47" y="15" type="qcurve"/>
      <point x="22" y="12"/>
      <point x="10" y="-8" type="qcurve" smooth="yes"/>
      <point x="-5" y="-33"/>
      <point x="8" y="-56" type="qcurve" smooth="yes"/>
      <point x="20" y="-75"/>
      <point x="42" y="-80" type="qcurve"/>
      <point x="49" y="-83"/>
      <point x="66" y="-80"/>
      <point x="71" y="-79"/>
      <point x="73" y="-78" type="qcurve" smooth="yes"/>
      <point x="116" y="-64" type="line" smooth="yes"/>
      <point x="159" y="-51"/>
      <point x="282" y="-1"/>
      <point x="404" y="59"/>
      <point x="489" y="136"/>
      <point x="488" y="170" type="qcurve" smooth="yes"/>
      <point x="487" y="195"/>
      <point x="434" y="253"/>
      <point x="325" y="314"/>
      <point x="128" y="371"/>
      <point x="0" y="390" type="qcurve"/>
    </contour>
    <contour>
      <point x="0" y="390" type="line"/>
      <point x="0" y="390" type="line"/>
    </contour>
  </outline>
</glyph>
<glyph name="Docker" format="2">
  <advance width="507"/>
  <unicode hex="F308"/>
  <note>
Docker
</note>
  <outline>
    <contour>
      <point x="263" y="328" type="line"/>
      <point x="201" y="328" type="line"/>
      <point x="201" y="277" type="line"/>
      <point x="98" y="277" type="line"/>
      <point x="98" y="225" type="line"/>
      <point x="46" y="225" type="line"/>
      <point x="46" y="172" type="line"/>
      <point x="1" y="172" type="line"/>
      <point x="1" y="164" type="line" smooth="yes"/>
      <point x="-3" y="123"/>
      <point x="13" y="88" type="qcurve" smooth="yes"/>
      <point x="17" y="78" type="line"/>
      <point x="18" y="78" type="line"/>
      <point x="63" y="0"/>
      <point x="167" y="0" type="qcurve" smooth="yes"/>
      <point x="258" y="0"/>
      <point x="395" y="83"/>
      <point x="428" y="165" type="qcurve"/>
      <point x="483" y="162"/>
      <point x="503" y="201" type="qcurve" smooth="yes"/>
      <point x="507" y="208" type="line"/>
      <point x="500" y="212" type="line" smooth="yes"/>
      <point x="473" y="228"/>
      <point x="440" y="218" type="qcurve"/>
      <point x="436" y="247"/>
      <point x="407" y="270" type="qcurve"/>
      <point x="401" y="276" type="line"/>
      <point x="395" y="269" type="line" smooth="yes"/>
      <point x="380" y="251"/>
      <point x="383" y="219" type="qcurve" smooth="yes"/>
      <point x="384" y="199"/>
      <point x="395" y="186" type="qcurve"/>
      <point x="387" y="181"/>
      <point x="377" y="178" type="qcurve" smooth="yes"/>
      <point x="359" y="172"/>
      <point x="341" y="172" type="qcurve" smooth="yes"/>
      <point x="315" y="172" type="line"/>
      <point x="315" y="225" type="line"/>
      <point x="263" y="225" type="line"/>
    </contour>
    <contour>
      <point x="92" y="175" type="line"/>
      <point x="96" y="175" type="line"/>
      <point x="96" y="213" type="line"/>
      <point x="92" y="213" type="line"/>
    </contour>
    <contour>
      <point x="85" y="175" type="line"/>
      <point x="89" y="175" type="line"/>
      <point x="89" y="213" type="line"/>
      <point x="85" y="213" type="line"/>
    </contour>
    <contour>
      <point x="78" y="175" type="line"/>
      <point x="82" y="175" type="line"/>
      <point x="82" y="213" type="line"/>
      <point x="78" y="213" type="line"/>
    </contour>
    <contour>
      <point x="72" y="175" type="line"/>
      <point x="75" y="175" type="line"/>
      <point x="75" y="213" type="line"/>
      <point x="72" y="213" type="line"/>
    </contour>
    <contour>
      <point x="65" y="175" type="line"/>
      <point x="68" y="175" type="line"/>
      <point x="68" y="213" type="line"/>
      <point x="65" y="213" type="line"/>
    </contour>
    <contour>
      <point x="58" y="175" type="line"/>
      <point x="62" y="175" type="line"/>
      <point x="62" y="213" type="line"/>
      <point x="58" y="213" type="line"/>
    </contour>
    <contour>
      <point x="99" y="216" type="line"/>
      <point x="99" y="171" type="line"/>
      <point x="54" y="171" type="line"/>
      <point x="54" y="216" type="line"/>
    </contour>
    <contour>
      <point x="144" y="227" type="line"/>
      <point x="147" y="227" type="line"/>
      <point x="147" y="264" type="line"/>
      <point x="144" y="264" type="line"/>
    </contour>
    <contour>
      <point x="137" y="227" type="line"/>
      <point x="141" y="227" type="line"/>
      <point x="141" y="264" type="line"/>
      <point x="137" y="264" type="line"/>
    </contour>
    <contour>
      <point x="130" y="227" type="line"/>
      <point x="134" y="227" type="line"/>
      <point x="134" y="264" type="line"/>
      <point x="130" y="264" type="line"/>
    </contour>
    <contour>
      <point x="123" y="227" type="line"/>
      <point x="127" y="227" type="line"/>
      <point x="127" y="264" type="line"/>
      <point x="123" y="264" type="line"/>
    </contour>
    <contour>
      <point x="117" y="227" type="line"/>
      <point x="120" y="227" type="line"/>
      <point x="120" y="264" type="line"/>
      <point x="117" y="264" type="line"/>
    </contour>
    <contour>
      <point x="110" y="227" type="line"/>
      <point x="113" y="227" type="line"/>
      <point x="113" y="264" type="line"/>
      <point x="110" y="264" type="line"/>
    </contour>
    <contour>
      <point x="151" y="268" type="line"/>
      <point x="151" y="223" type="line"/>
      <point x="106" y="223" type="line"/>
      <point x="106" y="268" type="line"/>
    </contour>
    <contour>
      <point x="144" y="175" type="line"/>
      <point x="147" y="175" type="line"/>
      <point x="147" y="213" type="line"/>
      <point x="144" y="213" type="line"/>
    </contour>
    <contour>
      <point x="137" y="175" type="line"/>
      <point x="141" y="175" type="line"/>
      <point x="141" y="213" type="line"/>
      <point x="137" y="213" type="line"/>
    </contour>
    <contour>
      <point x="130" y="175" type="line"/>
      <point x="134" y="175" type="line"/>
      <point x="134" y="213" type="line"/>
      <point x="130" y="213" type="line"/>
    </contour>
    <contour>
      <point x="123" y="175" type="line"/>
      <point x="127" y="175" type="line"/>
      <point x="127" y="213" type="line"/>
      <point x="123" y="213" type="line"/>
    </contour>
    <contour>
      <point x="117" y="175" type="line"/>
      <point x="120" y="175" type="line"/>
      <point x="120" y="213" type="line"/>
      <point x="117" y="213" type="line"/>
    </contour>
    <contour>
      <point x="110" y="175" type="line"/>
      <point x="113" y="175" type="line"/>
      <point x="113" y="213" type="line"/>
      <point x="110" y="213" type="line"/>
    </contour>
    <contour>
      <point x="151" y="216" type="line"/>
      <point x="151" y="171" type="line"/>
      <point x="106" y="171" type="line"/>
      <point x="106" y="216" type="line"/>
    </contour>
    <contour>
      <point x="196" y="175" type="line"/>
      <point x="199" y="175" type="line"/>
      <point x="199" y="213" type="line"/>
      <point x="196" y="213" type="line"/>
    </contour>
    <contour>
      <point x="189" y="175" type="line"/>
      <point x="192" y="175" type="line"/>
      <point x="192" y="213" type="line"/>
      <point x="189" y="213" type="line"/>
    </contour>
    <contour>
      <point x="182" y="175" type="line"/>
      <point x="186" y="175" type="line"/>
      <point x="186" y="213" type="line"/>
      <point x="182" y="213" type="line"/>
    </contour>
    <contour>
      <point x="175" y="175" type="line"/>
      <point x="179" y="175" type="line"/>
      <point x="179" y="213" type="line"/>
      <point x="175" y="213" type="line"/>
    </contour>
    <contour>
      <point x="168" y="175" type="line"/>
      <point x="172" y="175" type="line"/>
      <point x="172" y="213" type="line"/>
      <point x="168" y="213" type="line"/>
    </contour>
    <contour>
      <point x="162" y="175" type="line"/>
      <point x="165" y="175" type="line"/>
      <point x="165" y="213" type="line"/>
      <point x="162" y="213" type="line"/>
    </contour>
    <contour>
      <point x="203" y="216" type="line"/>
      <point x="203" y="171" type="line"/>
      <point x="158" y="171" type="line"/>
      <point x="158" y="216" type="line"/>
    </contour>
    <contour>
      <point x="196" y="227" type="line"/>
      <point x="199" y="227" type="line"/>
      <point x="199" y="264" type="line"/>
      <point x="196" y="264" type="line"/>
    </contour>
    <contour>
      <point x="189" y="227" type="line"/>
      <point x="192" y="227" type="line"/>
      <point x="192" y="264" type="line"/>
      <point x="189" y="264" type="line"/>
    </contour>
    <contour>
      <point x="182" y="227" type="line"/>
      <point x="186" y="227" type="line"/>
      <point x="186" y="264" type="line"/>
      <point x="182" y="264" type="line"/>
    </contour>
    <contour>
      <point x="175" y="227" type="line"/>
      <point x="179" y="227" type="line"/>
      <point x="179" y="264" type="line"/>
      <point x="175" y="264" type="line"/>
    </contour>
    <contour>
      <point x="168" y="227" type="line"/>
      <point x="172" y="227" type="line"/>
      <point x="172" y="264" type="line"/>
      <point x="168" y="264" type="line"/>
    </contour>
    <contour>
      <point x="162" y="227" type="line"/>
      <point x="165" y="227" type="line"/>
      <point x="165" y="264" type="line"/>
      <point x="162" y="264" type="line"/>
    </contour>
    <contour>
      <point x="203" y="268" type="line"/>
      <point x="203" y="223" type="line"/>
      <point x="158" y="223" type="line"/>
      <point x="158" y="268" type="line"/>
    </contour>
    <contour>
      <point x="247" y="175" type="line"/>
      <point x="251" y="175" type="line"/>
      <point x="251" y="213" type="line"/>
      <point x="247" y="213" type="line"/>
    </contour>
    <contour>
      <point x="241" y="175" type="line"/>
      <point x="244" y="175" type="line"/>
      <point x="244" y="213" type="line"/>
      <point x="241" y="213" type="line"/>
    </contour>
    <contour>
      <point x="234" y="175" type="line"/>
      <point x="237" y="175" type="line"/>
      <point x="237" y="213" type="line"/>
      <point x="234" y="213" type="line"/>
    </contour>
    <contour>
      <point x="227" y="175" type="line"/>
      <point x="231" y="175" type="line"/>
      <point x="231" y="213" type="line"/>
      <point x="227" y="213" type="line"/>
    </contour>
    <contour>
      <point x="220" y="175" type="line"/>
      <point x="224" y="175" type="line"/>
      <point x="224" y="213" type="line"/>
      <point x="220" y="213" type="line"/>
    </contour>
    <contour>
      <point x="214" y="175" type="line"/>
      <point x="217" y="175" type="line"/>
      <point x="217" y="213" type="line"/>
      <point x="214" y="213" type="line"/>
    </contour>
    <contour>
      <point x="255" y="216" type="line"/>
      <point x="255" y="171" type="line"/>
      <point x="210" y="171" type="line"/>
      <point x="210" y="216" type="line"/>
    </contour>
    <contour>
      <point x="247" y="227" type="line"/>
      <point x="251" y="227" type="line"/>
      <point x="251" y="264" type="line"/>
      <point x="247" y="264" type="line"/>
    </contour>
    <contour>
      <point x="241" y="227" type="line"/>
      <point x="244" y="227" type="line"/>
      <point x="244" y="264" type="line"/>
      <point x="241" y="264" type="line"/>
    </contour>
    <contour>
      <point x="234" y="227" type="line"/>
      <point x="237" y="227" type="line"/>
      <point x="237" y="264" type="line"/>
      <point x="234" y="264" type="line"/>
    </contour>
    <contour>
      <point x="227" y="227" type="line"/>
      <point x="231" y="227" type="line"/>
      <point x="231" y="264" type="line"/>
      <point x="227" y="264" type="line"/>
    </contour>
    <contour>
      <point x="220" y="227" type="line"/>
      <point x="224" y="227" type="line"/>
      <point x="224" y="264" type="line"/>
      <point x="220" y="264" type="line"/>
    </contour>
    <contour>
      <point x="214" y="227" type="line"/>
      <point x="217" y="227" type="line"/>
      <point x="217" y="264" type="line"/>
      <point x="214" y="264" type="line"/>
    </contour>
    <contour>
      <point x="255" y="268" type="line"/>
      <point x="255" y="223" type="line"/>
      <point x="210" y="223" type="line"/>
      <point x="210" y="268" type="line"/>
    </contour>
    <contour>
      <point x="247" y="279" type="line"/>
      <point x="251" y="279" type="line"/>
      <point x="251" y="316" type="line"/>
      <point x="247" y="316" type="line"/>
    </contour>
    <contour>
      <point x="241" y="279" type="line"/>
      <point x="244" y="279" type="line"/>
      <point x="244" y="316" type="line"/>
      <point x="241" y="316" type="line"/>
    </contour>
    <contour>
      <point x="234" y="279" type="line"/>
      <point x="237" y="279" type="line"/>
      <point x="237" y="316" type="line"/>
      <point x="234" y="316" type="line"/>
    </contour>
    <contour>
      <point x="227" y="279" type="line"/>
      <point x="231" y="279" type="line"/>
      <point x="231" y="316" type="line"/>
      <point x="227" y="316" type="line"/>
    </contour>
    <contour>
      <point x="220" y="279" type="line"/>
      <point x="224" y="279" type="line"/>
      <point x="224" y="316" type="line"/>
      <point x="220" y="316" type="line"/>
    </contour>
    <contour>
      <point x="214" y="279" type="line"/>
      <point x="217" y="279" type="line"/>
      <point x="217" y="316" type="line"/>
      <point x="214" y="316" type="line"/>
    </contour>
    <contour>
      <point x="255" y="320" type="line"/>
      <point x="255" y="275" type="line"/>
      <point x="210" y="275" type="line"/>
      <point x="210" y="320" type="line"/>
    </contour>
    <contour>
      <point x="299" y="175" type="line"/>
      <point x="303" y="175" type="line"/>
      <point x="303" y="213" type="line"/>
      <point x="299" y="213" type="line"/>
    </contour>
    <contour>
      <point x="292" y="175" type="line"/>
      <point x="296" y="175" type="line"/>
      <point x="296" y="213" type="line"/>
      <point x="292" y="213" type="line"/>
    </contour>
    <contour>
      <point x="286" y="175" type="line"/>
      <point x="289" y="175" type="line"/>
      <point x="289" y="213" type="line"/>
      <point x="286" y="213" type="line"/>
    </contour>
    <contour>
      <point x="279" y="175" type="line"/>
      <point x="282" y="175" type="line"/>
      <point x="282" y="213" type="line"/>
      <point x="279" y="213" type="line"/>
    </contour>
    <contour>
      <point x="272" y="175" type="line"/>
      <point x="276" y="175" type="line"/>
      <point x="276" y="213" type="line"/>
      <point x="272" y="213" type="line"/>
    </contour>
    <contour>
      <point x="265" y="175" type="line"/>
      <point x="269" y="175" type="line"/>
      <point x="269" y="213" type="line"/>
      <point x="265" y="213" type="line"/>
    </contour>
    <contour>
      <point x="306" y="216" type="line"/>
      <point x="306" y="171" type="line"/>
      <point x="262" y="171" type="line"/>
      <point x="262" y="216" type="line"/>
    </contour>
    <contour>
      <point x="148" y="99" type="line"/>
      <point x="153" y="99"/>
      <point x="161" y="91"/>
      <point x="161" y="81"/>
      <point x="153" y="74"/>
      <point x="143" y="74"/>
      <point x="136" y="81"/>
      <point x="136" y="91"/>
      <point x="143" y="99"/>
      <point x="148" y="99" type="qcurve"/>
    </contour>
    <contour>
      <point x="148" y="95" type="line"/>
      <point x="139" y="95"/>
      <point x="139" y="77"/>
      <point x="157" y="77"/>
      <point x="157" y="86" type="qcurve" smooth="yes"/>
      <point x="157" y="88"/>
      <point x="156" y="90" type="qcurve"/>
      <point x="155" y="88"/>
      <point x="153" y="88" type="qcurve" smooth="yes"/>
      <point x="150" y="88"/>
      <point x="150" y="91" type="qcurve" smooth="yes"/>
      <point x="150" y="93"/>
      <point x="151" y="94" type="qcurve"/>
      <point x="150" y="95"/>
      <point x="148" y="95" type="qcurve"/>
    </contour>
    <contour>
      <point x="174" y="9"/>
      <point x="167" y="9" type="qcurve" smooth="yes"/>
      <point x="90" y="10"/>
      <point x="40" y="59" type="qcurve"/>
      <point x="53" y="59"/>
      <point x="64" y="59" type="qcurve" smooth="yes"/>
      <point x="74" y="59"/>
      <point x="83" y="59" type="qcurve" smooth="yes"/>
      <point x="107" y="60"/>
      <point x="124" y="65" type="qcurve"/>
      <point x="140" y="29"/>
      <point x="181" y="9" type="qcurve"/>
    </contour>
  </outline>
</glyph>
<glyph name="elementary OS" format="2">
  <advance width="512"/>
  <unicode hex="F309"/>
  <note>
elementary OS
</note>
  <outline>
    <contour>
      <point x="0" y="260"/>
      <point x="0" y="48"/>
      <point x="150" y="-102"/>
      <point x="362" y="-102"/>
      <point x="512" y="48"/>
      <point x="512" y="260"/>
      <point x="362" y="410"/>
      <point x="150" y="410"/>
    </contour>
    <contour>
      <point x="336" y="389"/>
      <point x="461" y="293"/>
      <point x="482" y="218" type="qcurve"/>
      <point x="445" y="143"/>
      <point x="382" y="88" type="qcurve" smooth="yes"/>
      <point x="349" y="59"/>
      <point x="317" y="45" type="qcurve" smooth="yes"/>
      <point x="277" y="27"/>
      <point x="240" y="29" type="qcurve" smooth="yes"/>
      <point x="209" y="31"/>
      <point x="183" y="45" type="qcurve"/>
      <point x="253" y="83"/>
      <point x="304" y="143" type="qcurve" smooth="yes"/>
      <point x="344" y="189"/>
      <point x="354" y="232" type="qcurve" smooth="yes"/>
      <point x="359" y="259"/>
      <point x="354" y="283" type="qcurve" smooth="yes"/>
      <point x="349" y="310"/>
      <point x="331" y="328" type="qcurve" smooth="yes"/>
      <point x="314" y="347"/>
      <point x="289" y="354" type="qcurve" smooth="yes"/>
      <point x="265" y="360"/>
      <point x="239" y="355" type="qcurve" smooth="yes"/>
      <point x="193" y="347"/>
      <point x="153" y="306" type="qcurve" smooth="yes"/>
      <point x="121" y="274"/>
      <point x="87" y="190"/>
      <point x="91" y="147" type="qcurve" smooth="yes"/>
      <point x="94" y="101"/>
      <point x="120" y="64" type="qcurve" smooth="yes"/>
      <point x="125" y="56"/>
      <point x="132" y="49" type="qcurve"/>
      <point x="95" y="36"/>
      <point x="56" y="31" type="qcurve"/>
      <point x="21" y="87"/>
      <point x="21" y="154" type="qcurve" smooth="yes"/>
      <point x="21" y="251"/>
      <point x="159" y="389"/>
      <point x="256" y="389" type="qcurve" smooth="yes"/>
    </contour>
    <contour>
      <point x="284" y="341"/>
      <point x="304" y="326" type="qcurve" smooth="yes"/>
      <point x="321" y="313"/>
      <point x="329" y="291" type="qcurve" smooth="yes"/>
      <point x="336" y="270"/>
      <point x="334" y="247" type="qcurve" smooth="yes"/>
      <point x="329" y="208"/>
      <point x="298" y="166" type="qcurve" smooth="yes"/>
      <point x="250" y="104"/>
      <point x="176" y="68" type="qcurve"/>
      <point x="170" y="64"/>
      <point x="162" y="61" type="qcurve"/>
      <point x="146" y="74"/>
      <point x="136" y="92" type="qcurve" smooth="yes"/>
      <point x="116" y="128"/>
      <point x="120" y="175" type="qcurve" smooth="yes"/>
      <point x="124" y="213"/>
      <point x="145" y="255" type="qcurve" smooth="yes"/>
      <point x="172" y="308"/>
      <point x="210" y="328" type="qcurve" smooth="yes"/>
      <point x="233" y="341"/>
      <point x="257" y="341" type="qcurve" smooth="yes"/>
    </contour>
    <contour>
      <point x="490" y="170"/>
      <point x="490" y="154" type="qcurve" smooth="yes"/>
      <point x="490" y="57"/>
      <point x="353" y="-81"/>
      <point x="256" y="-81" type="qcurve" smooth="yes"/>
      <point x="202" y="-81"/>
      <point x="108" y="-35"/>
      <point x="75" y="5" type="qcurve"/>
      <point x="115" y="14"/>
      <point x="152" y="30" type="qcurve"/>
      <point x="169" y="18"/>
      <point x="188" y="10" type="qcurve" smooth="yes"/>
      <point x="242" y="-10"/>
      <point x="304" y="11" type="qcurve" smooth="yes"/>
      <point x="354" y="29"/>
      <point x="403" y="74" type="qcurve" smooth="yes"/>
      <point x="455" y="123"/>
      <point x="488" y="185" type="qcurve"/>
    </contour>
  </outline>
</glyph>
<glyph name="Fedora" format="2">
  <advance width="512"/>
  <unicode hex="F30A"/>
  <note>
Fedora
</note>
  <outline>
    <contour>
      <point x="0" y="260"/>
      <point x="0" y="154" type="qcurve" smooth="yes"/>
      <point x="0" y="-44" type="line" smooth="yes"/>
      <point x="0" y="-68"/>
      <point x="34" y="-102"/>
      <point x="58" y="-102" type="qcurve" smooth="yes"/>
      <point x="59" y="-102" type="line"/>
      <point x="256" y="-102" type="line" smooth="yes"/>
      <point x="362" y="-102"/>
      <point x="512" y="48"/>
      <point x="512" y="260"/>
      <point x="362" y="410"/>
      <point x="150" y="410"/>
    </contour>
    <contour>
      <point x="341" y="305"/>
      <point x="391" y="259"/>
      <point x="391" y="226" type="qcurve" smooth="yes"/>
      <point x="391" y="218"/>
      <point x="391" y="213" type="qcurve" smooth="yes"/>
      <point x="390" y="204"/>
      <point x="376" y="193"/>
      <point x="357" y="195"/>
      <point x="347" y="210"/>
      <point x="349" y="219" type="qcurve"/>
      <point x="349" y="221"/>
      <point x="349" y="226" type="qcurve" smooth="yes"/>
      <point x="349" y="244"/>
      <point x="325" y="262"/>
      <point x="308" y="262" type="qcurve" smooth="yes"/>
      <point x="293" y="262"/>
      <point x="270" y="240"/>
      <point x="270" y="226" type="qcurve"/>
      <point x="270" y="226"/>
      <point x="270" y="161"/>
      <point x="270" y="161" type="qcurve"/>
      <point x="307" y="161" type="line" smooth="yes"/>
      <point x="321" y="161"/>
      <point x="332" y="140"/>
      <point x="321" y="118"/>
      <point x="307" y="118" type="qcurve" smooth="yes"/>
      <point x="270" y="118" type="line"/>
      <point x="270" y="109"/>
      <point x="270" y="99"/>
      <point x="270" y="95" type="qcurve" smooth="yes"/>
      <point x="270" y="57" type="line"/>
      <point x="266" y="21"/>
      <point x="212" y="-29"/>
      <point x="175" y="-29" type="qcurve" smooth="yes"/>
      <point x="136" y="-29"/>
      <point x="80" y="26"/>
      <point x="80" y="65" type="qcurve" smooth="yes"/>
      <point x="82" y="106"/>
      <point x="138" y="161"/>
      <point x="179" y="161" type="qcurve" smooth="yes"/>
      <point x="209" y="161" type="line"/>
      <point x="209" y="118" type="line"/>
      <point x="179" y="118" type="line"/>
      <point x="178" y="118" type="line" smooth="yes"/>
      <point x="155" y="117"/>
      <point x="123" y="88"/>
      <point x="123" y="65" type="qcurve" smooth="yes"/>
      <point x="123" y="44"/>
      <point x="154" y="13"/>
      <point x="175" y="13" type="qcurve" smooth="yes"/>
      <point x="197" y="13"/>
      <point x="227" y="42"/>
      <point x="227" y="65" type="qcurve" smooth="yes"/>
      <point x="227" y="226" type="line" smooth="yes"/>
      <point x="227" y="231"/>
      <point x="228" y="235" type="qcurve"/>
      <point x="231" y="265"/>
      <point x="278" y="305"/>
      <point x="308" y="305" type="qcurve" smooth="yes"/>
    </contour>
  </outline>
</glyph>
<glyph name="Fedora (inverse)" format="2">
  <advance width="512"/>
  <unicode hex="F30B"/>
  <note>
Fedora (inverse)
</note>
  <outline>
    <contour>
      <point x="0" y="260"/>
      <point x="0" y="154" type="qcurve" smooth="yes"/>
      <point x="0" y="-44" type="line" smooth="yes"/>
      <point x="0" y="-68"/>
      <point x="34" y="-102"/>
      <point x="58" y="-102" type="qcurve" smooth="yes"/>
      <point x="59" y="-102" type="line"/>
      <point x="256" y="-102" type="line" smooth="yes"/>
      <point x="362" y="-102"/>
      <point x="512" y="48"/>
      <point x="512" y="260"/>
      <point x="362" y="410"/>
      <point x="150" y="410"/>
    </contour>
    <contour>
      <point x="275" y="392"/>
      <point x="291" y="389" type="qcurve" smooth="yes"/>
      <point x="326" y="384"/>
      <point x="357" y="369" type="qcurve" smooth="yes"/>
      <point x="400" y="349"/>
      <point x="464" y="280"/>
      <point x="480" y="235" type="qcurve" smooth="yes"/>
      <point x="493" y="198"/>
      <point x="494" y="157" type="qcurve" smooth="yes"/>
      <point x="494" y="119"/>
      <point x="483" y="82" type="qcurve" smooth="yes"/>
      <point x="469" y="37"/>
      <point x="439" y="1" type="qcurve" smooth="yes"/>
      <point x="407" y="-36"/>
      <point x="364" y="-58" type="qcurve" smooth="yes"/>
      <point x="316" y="-83"/>
      <point x="262" y="-84" type="qcurve" smooth="yes"/>
      <point x="245" y="-84"/>
      <point x="183" y="-84" type="qcurve" smooth="yes"/>
      <point x="91" y="-84"/>
      <point x="59" y="-84" type="qcurve" smooth="yes"/>
      <point x="46" y="-84"/>
      <point x="35" y="-77" type="qcurve" smooth="yes"/>
      <point x="19" y="-65"/>
      <point x="18" y="-45" type="qcurve" smooth="yes"/>
      <point x="18" y="-5"/>
      <point x="18" y="73" type="qcurve" smooth="yes"/>
      <point x="18" y="88"/>
      <point x="18" y="137"/>
      <point x="18" y="153" type="qcurve" smooth="yes"/>
      <point x="18" y="171"/>
      <point x="20" y="187" type="qcurve" smooth="yes"/>
      <point x="25" y="225"/>
      <point x="43" y="260" type="qcurve" smooth="yes"/>
      <point x="65" y="305"/>
      <point x="104" y="337" type="qcurve" smooth="yes"/>
      <point x="141" y="368"/>
      <point x="187" y="382" type="qcurve" smooth="yes"/>
      <point x="217" y="391"/>
      <point x="249" y="392" type="qcurve" smooth="yes"/>
      <point x="254" y="392"/>
      <point x="259" y="392" type="qcurve" smooth="yes"/>
    </contour>
    <contour>
      <point x="278" y="305"/>
      <point x="231" y="265"/>
      <point x="228" y="235" type="qcurve"/>
      <point x="227" y="231"/>
      <point x="227" y="226" type="qcurve" smooth="yes"/>
      <point x="227" y="65" type="line" smooth="yes"/>
      <point x="227" y="42"/>
      <point x="197" y="13"/>
      <point x="175" y="13" type="qcurve" smooth="yes"/>
      <point x="154" y="13"/>
      <point x="123" y="44"/>
      <point x="123" y="65" type="qcurve" smooth="yes"/>
      <point x="123" y="88"/>
      <point x="155" y="117"/>
      <point x="178" y="118" type="qcurve" smooth="yes"/>
      <point x="179" y="118" type="line"/>
      <point x="209" y="118" type="line"/>
      <point x="209" y="161" type="line"/>
      <point x="179" y="161" type="line" smooth="yes"/>
      <point x="138" y="161"/>
      <point x="82" y="106"/>
      <point x="80" y="65" type="qcurve" smooth="yes"/>
      <point x="80" y="26"/>
      <point x="136" y="-29"/>
      <point x="175" y="-29" type="qcurve" smooth="yes"/>
      <point x="212" y="-29"/>
      <point x="266" y="21"/>
      <point x="270" y="57" type="qcurve"/>
      <point x="270" y="73"/>
      <point x="270" y="95" type="qcurve" smooth="yes"/>
      <point x="270" y="99"/>
      <point x="270" y="109"/>
      <point x="270" y="118" type="qcurve"/>
      <point x="307" y="118" type="line" smooth="yes"/>
      <point x="321" y="118"/>
      <point x="332" y="140"/>
      <point x="321" y="161"/>
      <point x="307" y="161" type="qcurve" smooth="yes"/>
      <point x="270" y="161" type="line"/>
      <point x="270" y="226"/>
      <point x="270" y="226" type="qcurve"/>
      <point x="270" y="240"/>
      <point x="293" y="262"/>
      <point x="308" y="262" type="qcurve" smooth="yes"/>
      <point x="325" y="262"/>
      <point x="349" y="244"/>
      <point x="349" y="226" type="qcurve" smooth="yes"/>
      <point x="349" y="221"/>
      <point x="349" y="219" type="qcurve"/>
      <point x="347" y="210"/>
      <point x="357" y="195"/>
      <point x="376" y="193"/>
      <point x="390" y="204"/>
      <point x="391" y="213" type="qcurve" smooth="yes"/>
      <point x="391" y="218"/>
      <point x="391" y="226" type="qcurve" smooth="yes"/>
      <point x="391" y="259"/>
      <point x="341" y="305"/>
      <point x="308" y="305" type="qcurve" smooth="yes"/>
    </contour>
  </outline>
</glyph>
<glyph name="FreeBSD" format="2">
  <advance width="452"/>
  <unicode hex="F30C"/>
  <note>
FreeBSD
</note>
  <outline>
    <contour>
      <point x="11" y="364"/>
      <point x="6" y="358" type="qcurve" smooth="yes"/>
      <point x="-13" y="339"/>
      <point x="27" y="263" type="qcurve"/>
      <point x="55" y="309"/>
      <point x="100" y="337" type="qcurve"/>
      <point x="49" y="364"/>
      <point x="23" y="364" type="qcurve" smooth="yes"/>
    </contour>
    <contour>
      <point x="135" y="360"/>
      <point x="5" y="231"/>
      <point x="5" y="48"/>
      <point x="135" y="-82"/>
      <point x="318" y="-82"/>
      <point x="447" y="48"/>
      <point x="447" y="139" type="qcurve" smooth="yes"/>
      <point x="447" y="191"/>
      <point x="424" y="237" type="qcurve"/>
      <point x="419" y="229"/>
      <point x="415" y="221" type="qcurve"/>
      <point x="419" y="204"/>
      <point x="411" y="196" type="qcurve" smooth="yes"/>
      <point x="400" y="185"/>
      <point x="346" y="207"/>
      <point x="293" y="260"/>
      <point x="271" y="314"/>
      <point x="282" y="325" type="qcurve" smooth="yes"/>
      <point x="291" y="334"/>
      <point x="311" y="328" type="qcurve"/>
      <point x="318" y="332"/>
      <point x="325" y="336" type="qcurve"/>
      <point x="279" y="360"/>
      <point x="226" y="360" type="qcurve" smooth="yes"/>
    </contour>
    <contour>
      <point x="317" y="321"/>
      <point x="301" y="305" type="qcurve" smooth="yes"/>
      <point x="293" y="297"/>
      <point x="308" y="258"/>
      <point x="346" y="220"/>
      <point x="385" y="205"/>
      <point x="393" y="213" type="qcurve" smooth="yes"/>
      <point x="409" y="229"/>
      <point x="462" y="342"/>
      <point x="430" y="374"/>
    </contour>
  </outline>
</glyph>
<glyph name="Gentoo" format="2">
  <advance width="489"/>
  <unicode hex="F30D"/>
  <note>
Gentoo
</note>
  <outline>
    <contour>
      <point x="187" y="410"/>
      <point x="174" y="407" type="qcurve" smooth="yes"/>
      <point x="109" y="396"/>
      <point x="15" y="301"/>
      <point x="10" y="258" type="qcurve" smooth="yes"/>
      <point x="7" y="228"/>
      <point x="29" y="204" type="qcurve" smooth="yes"/>
      <point x="37" y="196"/>
      <point x="61" y="178"/>
      <point x="81" y="168"/>
      <point x="113" y="151"/>
      <point x="118" y="148" type="qcurve"/>
      <point x="67" y="104"/>
      <point x="45" y="81" type="qcurve" smooth="yes"/>
      <point x="0" y="34"/>
      <point x="0" y="2" type="qcurve" smooth="yes"/>
      <point x="0" y="-29"/>
      <point x="8" y="-45" type="qcurve" smooth="yes"/>
      <point x="23" y="-75"/>
      <point x="50" y="-90" type="qcurve" smooth="yes"/>
      <point x="80" y="-107"/>
      <point x="121" y="-101" type="qcurve" smooth="yes"/>
      <point x="178" y="-93"/>
      <point x="322" y="-11"/>
      <point x="386" y="43" type="qcurve" smooth="yes"/>
      <point x="462" y="105"/>
      <point x="482" y="142" type="qcurve" smooth="yes"/>
      <point x="488" y="153"/>
      <point x="490" y="190"/>
      <point x="486" y="203" type="qcurve" smooth="yes"/>
      <point x="476" y="241"/>
      <point x="337" y="366"/>
      <point x="269" y="396" type="qcurve" smooth="yes"/>
      <point x="237" y="410"/>
      <point x="201" y="410" type="qcurve" smooth="yes"/>
    </contour>
    <contour>
      <point x="238" y="409"/>
      <point x="272" y="392" type="qcurve" smooth="yes"/>
      <point x="332" y="363"/>
      <point x="473" y="239"/>
      <point x="480" y="203" type="qcurve" smooth="yes"/>
      <point x="485" y="172"/>
      <point x="368" y="56"/>
      <point x="197" y="-46"/>
      <point x="132" y="-59" type="qcurve" smooth="yes"/>
      <point x="105" y="-64"/>
      <point x="60" y="-66"/>
      <point x="23" y="-43"/>
      <point x="14" y="-16" type="qcurve" smooth="yes"/>
      <point x="2" y="16"/>
      <point x="36" y="72"/>
      <point x="81" y="113" type="qcurve" smooth="yes"/>
      <point x="105" y="135"/>
      <point x="144" y="168" type="qcurve"/>
      <point x="144" y="169"/>
      <point x="136" y="172"/>
      <point x="122" y="178"/>
      <point x="104" y="186"/>
      <point x="83" y="197"/>
      <point x="63" y="209"/>
      <point x="44" y="223"/>
      <point x="29" y="237"/>
      <point x="19" y="253"/>
      <point x="19" y="261" type="qcurve" smooth="yes"/>
      <point x="15" y="303"/>
      <point x="124" y="405"/>
      <point x="195" y="408" type="qcurve" smooth="yes"/>
      <point x="198" y="408"/>
      <point x="200" y="408" type="qcurve" smooth="yes"/>
    </contour>
    <contour>
      <point x="193" y="397"/>
      <point x="187" y="397" type="qcurve" smooth="yes"/>
      <point x="151" y="393"/>
      <point x="118" y="378"/>
      <point x="83" y="351" type="qcurve" smooth="yes"/>
      <point x="41" y="320"/>
      <point x="32" y="278" type="qcurve" smooth="yes"/>
      <point x="28" y="259"/>
      <point x="42" y="247" type="qcurve" smooth="yes"/>
      <point x="52" y="239"/>
      <point x="84" y="220"/>
      <point x="106" y="209"/>
      <point x="153" y="187"/>
      <point x="160" y="184" type="qcurve" smooth="yes"/>
      <point x="174" y="177"/>
      <point x="145" y="152" type="qcurve" smooth="yes"/>
      <point x="140" y="148"/>
      <point x="108" y="121"/>
      <point x="94" y="108"/>
      <point x="68" y="84"/>
      <point x="54" y="68"/>
      <point x="37" y="48"/>
      <point x="29" y="30"/>
      <point x="28" y="23" type="qcurve" smooth="yes"/>
      <point x="27" y="7"/>
      <point x="39" y="-24"/>
      <point x="54" y="-32" type="qcurve" smooth="yes"/>
      <point x="77" y="-42"/>
      <point x="138" y="-36"/>
      <point x="168" y="-24" type="qcurve" smooth="yes"/>
      <point x="245" y="4"/>
      <point x="341" y="79" type="qcurve" smooth="yes"/>
      <point x="380" y="109"/>
      <point x="450" y="179"/>
      <point x="452" y="187" type="qcurve" smooth="yes"/>
      <point x="457" y="204"/>
      <point x="449" y="220" type="qcurve" smooth="yes"/>
      <point x="440" y="237"/>
      <point x="413" y="267" type="qcurve" smooth="yes"/>
      <point x="351" y="332"/>
      <point x="290" y="366" type="qcurve" smooth="yes"/>
      <point x="234" y="398"/>
      <point x="198" y="397" type="qcurve" smooth="yes"/>
    </contour>
    <contour>
      <point x="239" y="320"/>
      <point x="260" y="309" type="qcurve" smooth="yes"/>
      <point x="275" y="302"/>
      <point x="297" y="281"/>
      <point x="306" y="256"/>
      <point x="286" y="229"/>
      <point x="260" y="220" type="qcurve" smooth="yes"/>
      <point x="243" y="214"/>
      <point x="178" y="248"/>
      <point x="179" y="271" type="qcurve" smooth="yes"/>
      <point x="182" y="319"/>
      <point x="219" y="320" type="qcurve" smooth="yes"/>
      <point x="221" y="320"/>
      <point x="222" y="320" type="qcurve" smooth="yes"/>
    </contour>
    <contour>
      <point x="216" y="291"/>
      <point x="212" y="285" type="qcurve" smooth="yes"/>
      <point x="196" y="261"/>
      <point x="217" y="246" type="qcurve"/>
      <point x="220" y="253"/>
      <point x="263" y="243"/>
      <point x="263" y="236" type="qcurve"/>
      <point x="263" y="236"/>
      <point x="264" y="236" type="qcurve"/>
      <point x="287" y="257"/>
      <point x="250" y="292"/>
      <point x="225" y="291" type="qcurve" smooth="yes"/>
    </contour>
  </outline>
</glyph>
<glyph name="Linux Mint" format="2">
  <advance width="491"/>
  <unicode hex="F30E"/>
  <note>
Linux Mint
</note>
  <outline>
    <contour>
      <point x="228" y="-68" type="line"/>
      <point x="491" y="-68" type="line"/>
      <point x="491" y="210" type="line" smooth="yes"/>
      <point x="491" y="278"/>
      <point x="390" y="370"/>
      <point x="320" y="370" type="qcurve" smooth="yes"/>
      <point x="244" y="371" type="line"/>
      <point x="0" y="372" type="line"/>
      <point x="0" y="231" type="line"/>
      <point x="58" y="231" type="line"/>
      <point x="58" y="203" type="line"/>
      <point x="58" y="92" type="line" smooth="yes"/>
      <point x="58" y="25"/>
      <point x="159" y="-68"/>
      <point x="228" y="-68" type="qcurve"/>
    </contour>
    <contour>
      <point x="454" y="-10"/>
      <point x="428" y="-31"/>
      <point x="410" y="-31" type="qcurve" smooth="yes"/>
      <point x="228" y="-31" type="line" smooth="yes"/>
      <point x="173" y="-31"/>
      <point x="95" y="41"/>
      <point x="95" y="92" type="qcurve" smooth="yes"/>
      <point x="95" y="232" type="line" smooth="yes"/>
      <point x="95" y="247"/>
      <point x="73" y="268"/>
      <point x="60" y="268" type="qcurve" smooth="yes"/>
      <point x="37" y="268" type="line"/>
      <point x="37" y="334" type="line"/>
      <point x="244" y="333" type="line"/>
      <point x="320" y="333" type="line" smooth="yes"/>
      <point x="376" y="333"/>
      <point x="454" y="261"/>
      <point x="454" y="210" type="qcurve" smooth="yes"/>
      <point x="454" y="6" type="line" smooth="yes"/>
    </contour>
    <contour>
      <point x="248" y="260"/>
      <point x="210" y="222"/>
      <point x="210" y="195" type="qcurve" smooth="yes"/>
      <point x="210" y="107" type="line"/>
      <point x="250" y="107" type="line"/>
      <point x="250" y="195" type="line" smooth="yes"/>
      <point x="250" y="205"/>
      <point x="264" y="219"/>
      <point x="284" y="219"/>
      <point x="298" y="205"/>
      <point x="298" y="195" type="qcurve" smooth="yes"/>
      <point x="298" y="107" type="line"/>
      <point x="338" y="107" type="line"/>
      <point x="338" y="195" type="line" smooth="yes"/>
      <point x="338" y="205"/>
      <point x="352" y="219"/>
      <point x="371" y="219"/>
      <point x="385" y="205"/>
      <point x="385" y="195" type="qcurve" smooth="yes"/>
      <point x="385" y="92" type="line" smooth="yes"/>
      <point x="385" y="75"/>
      <point x="357" y="51"/>
      <point x="337" y="51" type="qcurve" smooth="yes"/>
      <point x="207" y="52" type="line" smooth="yes"/>
      <point x="192" y="52"/>
      <point x="169" y="79"/>
      <point x="169" y="98" type="qcurve" smooth="yes"/>
      <point x="169" y="293" type="line"/>
      <point x="131" y="293" type="line"/>
      <point x="131" y="91" type="line" smooth="yes"/>
      <point x="131" y="58"/>
      <point x="154" y="35" type="qcurve" smooth="yes"/>
      <point x="175" y="15"/>
      <point x="200" y="12" type="qcurve"/>
      <point x="345" y="12" type="line" smooth="yes"/>
      <point x="378" y="12"/>
      <point x="402" y="36" type="qcurve" smooth="yes"/>
      <point x="422" y="57"/>
      <point x="425" y="85" type="qcurve"/>
      <point x="425" y="195" type="line" smooth="yes"/>
      <point x="425" y="222"/>
      <point x="388" y="260"/>
      <point x="361" y="260" type="qcurve" smooth="yes"/>
      <point x="336" y="260"/>
      <point x="318" y="242" type="qcurve"/>
      <point x="299" y="260"/>
      <point x="274" y="260" type="qcurve" smooth="yes"/>
    </contour>
  </outline>
</glyph>
<glyph name="Linux Mint (inverse)" format="2">
  <advance width="512"/>
  <unicode hex="F30F"/>
  <note>
Linux Mint (inverse)
</note>
  <outline>
    <contour>
      <point x="0" y="220" type="line"/>
      <point x="60" y="220" type="line"/>
      <point x="60" y="190" type="line"/>
      <point x="60" y="92" type="line" smooth="yes"/>
      <point x="60" y="21"/>
      <point x="166" y="-76"/>
      <point x="238" y="-76" type="qcurve" smooth="yes"/>
      <point x="512" y="-76" type="line"/>
      <point x="512" y="215" type="line" smooth="yes"/>
      <point x="512" y="285"/>
      <point x="407" y="382"/>
      <point x="334" y="382" type="qcurve" smooth="yes"/>
      <point x="255" y="382" type="line"/>
      <point x="0" y="384" type="line"/>
    </contour>
    <contour>
      <point x="257" y="371" type="line"/>
      <point x="333" y="370" type="line" smooth="yes"/>
      <point x="403" y="370"/>
      <point x="504" y="278"/>
      <point x="504" y="210" type="qcurve" smooth="yes"/>
      <point x="504" y="-68" type="line"/>
      <point x="241" y="-68" type="line" smooth="yes"/>
      <point x="172" y="-68"/>
      <point x="71" y="25"/>
      <point x="71" y="92" type="qcurve" smooth="yes"/>
      <point x="71" y="203" type="line"/>
      <point x="71" y="231" type="line"/>
      <point x="13" y="231" type="line"/>
      <point x="13" y="372" type="line"/>
    </contour>
    <contour>
      <point x="50" y="268" type="line"/>
      <point x="73" y="268" type="line" smooth="yes"/>
      <point x="86" y="268"/>
      <point x="108" y="247"/>
      <point x="108" y="232" type="qcurve" smooth="yes"/>
      <point x="108" y="92" type="line" smooth="yes"/>
      <point x="108" y="41"/>
      <point x="186" y="-31"/>
      <point x="241" y="-31" type="qcurve" smooth="yes"/>
      <point x="423" y="-31" type="line" smooth="yes"/>
      <point x="441" y="-31"/>
      <point x="466" y="-10"/>
      <point x="466" y="6" type="qcurve" smooth="yes"/>
      <point x="466" y="210" type="line" smooth="yes"/>
      <point x="466" y="261"/>
      <point x="388" y="333"/>
      <point x="333" y="333" type="qcurve" smooth="yes"/>
      <point x="257" y="333" type="line"/>
      <point x="50" y="334" type="line"/>
    </contour>
    <contour>
      <point x="182" y="293" type="line"/>
      <point x="182" y="98" type="line" smooth="yes"/>
      <point x="182" y="79"/>
      <point x="204" y="52"/>
      <point x="220" y="52" type="qcurve" smooth="yes"/>
      <point x="350" y="51" type="line" smooth="yes"/>
      <point x="370" y="51"/>
      <point x="398" y="75"/>
      <point x="398" y="92" type="qcurve" smooth="yes"/>
      <point x="397" y="195" type="line" smooth="yes"/>
      <point x="397" y="205"/>
      <point x="384" y="219"/>
      <point x="364" y="219"/>
      <point x="350" y="205"/>
      <point x="350" y="195" type="qcurve" smooth="yes"/>
      <point x="350" y="107" type="line"/>
      <point x="310" y="107" type="line"/>
      <point x="310" y="195" type="line" smooth="yes"/>
      <point x="310" y="205"/>
      <point x="296" y="219"/>
      <point x="277" y="219"/>
      <point x="263" y="205"/>
      <point x="263" y="195" type="qcurve" smooth="yes"/>
      <point x="263" y="107" type="line"/>
      <point x="223" y="107" type="line"/>
      <point x="223" y="195" type="line" smooth="yes"/>
      <point x="223" y="222"/>
      <point x="260" y="260"/>
      <point x="287" y="260" type="qcurve" smooth="yes"/>
      <point x="312" y="260"/>
      <point x="330" y="242" type="qcurve"/>
      <point x="349" y="260"/>
      <point x="374" y="260" type="qcurve" smooth="yes"/>
      <point x="400" y="260"/>
      <point x="438" y="222"/>
      <point x="438" y="195" type="qcurve" smooth="yes"/>
      <point x="438" y="85" type="line"/>
      <point x="435" y="57"/>
      <point x="415" y="36" type="qcurve" smooth="yes"/>
      <point x="391" y="12"/>
      <point x="357" y="12" type="qcurve" smooth="yes"/>
      <point x="213" y="12" type="line"/>
      <point x="187" y="15"/>
      <point x="167" y="35" type="qcurve" smooth="yes"/>
      <point x="144" y="58"/>
      <point x="144" y="91" type="qcurve" smooth="yes"/>
      <point x="144" y="293" type="line"/>
    </contour>
  </outline>
</glyph>
<glyph name="Mageia" format="2">
  <advance width="326"/>
  <unicode hex="F310"/>
  <note>
Mageia
</note>
  <outline>
    <contour>
      <point x="126" y="212" type="line"/>
      <point x="138" y="212"/>
      <point x="155" y="229"/>
      <point x="155" y="253"/>
      <point x="138" y="270"/>
      <point x="114" y="270"/>
      <point x="97" y="253"/>
      <point x="97" y="229"/>
      <point x="114" y="212"/>
      <point x="126" y="212" type="qcurve"/>
    </contour>
    <contour>
      <point x="204" y="233" type="line"/>
      <point x="216" y="233"/>
      <point x="231" y="249"/>
      <point x="231" y="271"/>
      <point x="216" y="287"/>
      <point x="193" y="287"/>
      <point x="177" y="271"/>
      <point x="177" y="249"/>
      <point x="193" y="233"/>
      <point x="204" y="233" type="qcurve"/>
    </contour>
    <contour>
      <point x="168" y="335"/>
      <point x="148" y="335"/>
      <point x="134" y="320"/>
      <point x="134" y="300"/>
      <point x="148" y="286"/>
      <point x="168" y="286"/>
      <point x="182" y="300"/>
      <point x="182" y="320"/>
    </contour>
    <contour>
      <point x="206" y="373"/>
      <point x="187" y="373"/>
      <point x="174" y="360"/>
      <point x="174" y="342"/>
      <point x="187" y="329"/>
      <point x="206" y="329"/>
      <point x="219" y="342"/>
      <point x="219" y="360"/>
    </contour>
    <contour>
      <point x="157" y="410"/>
      <point x="141" y="410"/>
      <point x="130" y="399"/>
      <point x="130" y="383"/>
      <point x="141" y="371"/>
      <point x="157" y="371"/>
      <point x="169" y="383"/>
      <point x="169" y="399"/>
    </contour>
    <contour>
      <point x="0" y="127"/>
      <point x="0" y="73" type="qcurve" smooth="yes"/>
      <point x="0" y="1"/>
      <point x="95" y="-102"/>
      <point x="230" y="-102"/>
      <point x="326" y="1"/>
      <point x="326" y="73" type="qcurve" smooth="yes"/>
      <point x="326" y="126"/>
      <point x="279" y="186" type="qcurve"/>
      <point x="264" y="201"/>
      <point x="244" y="188" type="qcurve" smooth="yes"/>
      <point x="220" y="175"/>
      <point x="187" y="166"/>
      <point x="163" y="166" type="qcurve" smooth="yes"/>
      <point x="122" y="166"/>
      <point x="81" y="188" type="qcurve" smooth="yes"/>
      <point x="60" y="201"/>
      <point x="45" y="186" type="qcurve"/>
    </contour>
    <contour>
      <point x="115" y="133"/>
      <point x="211" y="133"/>
      <point x="258" y="159" type="qcurve"/>
      <point x="292" y="112"/>
      <point x="292" y="73" type="qcurve" smooth="yes"/>
      <point x="292" y="14"/>
      <point x="216" y="-68"/>
      <point x="163" y="-68" type="qcurve" smooth="yes"/>
      <point x="109" y="-68"/>
      <point x="31" y="14"/>
      <point x="31" y="73" type="qcurve" smooth="yes"/>
      <point x="31" y="108"/>
      <point x="67" y="159" type="qcurve"/>
    </contour>
  </outline>
</glyph>
<glyph name="Mandriva" format="2">
  <advance width="512"/>
  <unicode hex="F311"/>
  <note>
Mandriva
</note>
  <outline>
    <contour>
      <point x="311" y="327" type="line"/>
      <point x="328" y="221" type="line" smooth="yes"/>
      <point x="329" y="214"/>
      <point x="340" y="202"/>
      <point x="346" y="201" type="qcurve" smooth="yes"/>
      <point x="450" y="173" type="line" smooth="yes"/>
      <point x="457" y="171"/>
      <point x="458" y="164"/>
      <point x="452" y="161" type="qcurve" smooth="yes"/>
      <point x="356" y="113" type="line" smooth="yes"/>
      <point x="341" y="105"/>
      <point x="342" y="89" type="qcurve" smooth="yes"/>
      <point x="348" y="-18" type="line" smooth="yes"/>
      <point x="348" y="-25"/>
      <point x="342" y="-28"/>
      <point x="337" y="-23" type="qcurve" smooth="yes"/>
      <point x="261" y="53" type="line" smooth="yes"/>
      <point x="250" y="65"/>
      <point x="234" y="59" type="qcurve" smooth="yes"/>
      <point x="134" y="20" type="line" smooth="yes"/>
      <point x="128" y="18"/>
      <point x="123" y="23"/>
      <point x="126" y="29" type="qcurve" smooth="yes"/>
      <point x="175" y="124" type="line" smooth="yes"/>
      <point x="183" y="139"/>
      <point x="172" y="152" type="qcurve" smooth="yes"/>
      <point x="104" y="235" type="line" smooth="yes"/>
      <point x="100" y="240"/>
      <point x="104" y="246"/>
      <point x="110" y="245" type="qcurve" smooth="yes"/>
      <point x="216" y="228" type="line" smooth="yes"/>
      <point x="233" y="226"/>
      <point x="242" y="239" type="qcurve" smooth="yes"/>
      <point x="300" y="330" type="line" smooth="yes"/>
      <point x="304" y="336"/>
      <point x="310" y="334"/>
      <point x="311" y="327" type="qcurve"/>
    </contour>
    <contour>
      <point x="469" y="174" type="line"/>
      <point x="487" y="208" type="line"/>
    </contour>
    <contour>
      <point x="469" y="174" type="line"/>
      <point x="487" y="208" type="line"/>
    </contour>
    <contour>
      <point x="487" y="208" type="line"/>
      <point x="490" y="203"/>
      <point x="488" y="199"/>
      <point x="482" y="188" type="qcurve" smooth="yes"/>
      <point x="476" y="176" type="line"/>
      <point x="474" y="174"/>
      <point x="469" y="174" type="qcurve"/>
      <point x="466" y="178"/>
      <point x="468" y="183"/>
      <point x="474" y="193" type="qcurve" smooth="yes"/>
      <point x="480" y="206" type="line"/>
      <point x="482" y="208"/>
      <point x="487" y="208" type="qcurve"/>
    </contour>
    <contour>
      <point x="472" y="168" type="line"/>
      <point x="512" y="168" type="line"/>
    </contour>
    <contour>
      <point x="472" y="168" type="line"/>
      <point x="512" y="168" type="line"/>
    </contour>
    <contour>
      <point x="512" y="168" type="line"/>
      <point x="509" y="163"/>
      <point x="504" y="163"/>
      <point x="492" y="163" type="qcurve" smooth="yes"/>
      <point x="478" y="163" type="line" smooth="yes"/>
      <point x="475" y="163"/>
      <point x="472" y="168" type="qcurve"/>
      <point x="475" y="173"/>
      <point x="480" y="173"/>
      <point x="492" y="173" type="qcurve" smooth="yes"/>
      <point x="507" y="173" type="line" smooth="yes"/>
      <point x="509" y="173"/>
      <point x="512" y="168" type="qcurve"/>
    </contour>
    <contour>
      <point x="469" y="162" type="line"/>
      <point x="490" y="129" type="line"/>
    </contour>
    <contour>
      <point x="469" y="162" type="line"/>
      <point x="490" y="129" type="line"/>
    </contour>
    <contour>
      <point x="490" y="129" type="line"/>
      <point x="485" y="128"/>
      <point x="482" y="132"/>
      <point x="476" y="143" type="qcurve" smooth="yes"/>
      <point x="468" y="155" type="line" smooth="yes"/>
      <point x="467" y="157"/>
      <point x="469" y="162" type="qcurve"/>
      <point x="475" y="162"/>
      <point x="478" y="158"/>
      <point x="484" y="148" type="qcurve" smooth="yes"/>
      <point x="492" y="136" type="line" smooth="yes"/>
      <point x="493" y="134"/>
      <point x="490" y="129" type="qcurve"/>
    </contour>
    <contour>
      <point x="463" y="162" type="line"/>
      <point x="444" y="128" type="line"/>
    </contour>
    <contour>
      <point x="463" y="162" type="line"/>
      <point x="444" y="128" type="line"/>
    </contour>
    <contour>
      <point x="444" y="128" type="line"/>
      <point x="441" y="133"/>
      <point x="443" y="137"/>
      <point x="449" y="147" type="qcurve" smooth="yes"/>
      <point x="456" y="160" type="line" smooth="yes"/>
      <point x="457" y="162"/>
      <point x="463" y="162" type="qcurve"/>
      <point x="466" y="157"/>
      <point x="464" y="153"/>
      <point x="458" y="143" type="qcurve" smooth="yes"/>
      <point x="451" y="130" type="line" smooth="yes"/>
      <point x="450" y="128"/>
      <point x="444" y="128" type="qcurve"/>
    </contour>
    <contour>
      <point x="459" y="168" type="line"/>
      <point x="459" y="168" type="line"/>
    </contour>
    <contour>
      <point x="462" y="173" type="line"/>
      <point x="441" y="207" type="line"/>
    </contour>
    <contour>
      <point x="462" y="173" type="line"/>
      <point x="441" y="207" type="line"/>
    </contour>
    <contour>
      <point x="441" y="207" type="line"/>
      <point x="447" y="207"/>
      <point x="450" y="203"/>
      <point x="456" y="193" type="qcurve" smooth="yes"/>
      <point x="464" y="181" type="line"/>
      <point x="465" y="178"/>
      <point x="462" y="173" type="qcurve"/>
      <point x="456" y="173"/>
      <point x="454" y="177"/>
      <point x="447" y="188" type="qcurve" smooth="yes"/>
      <point x="440" y="200" type="line"/>
      <point x="438" y="202"/>
      <point x="441" y="207" type="qcurve"/>
    </contour>
    <contour>
      <point x="52" y="250" type="line"/>
      <point x="56" y="255"/>
      <point x="75" y="271"/>
      <point x="79" y="276" type="qcurve" smooth="yes"/>
      <point x="30" y="221"/>
      <point x="28" y="152" type="qcurve" smooth="yes"/>
      <point x="24" y="61"/>
      <point x="63" y="24" type="qcurve" smooth="yes"/>
      <point x="130" y="-40"/>
      <point x="279" y="68" type="qcurve" smooth="yes"/>
      <point x="274" y="64"/>
      <point x="257" y="45"/>
      <point x="252" y="42" type="qcurve" smooth="yes"/>
      <point x="99" y="-69"/>
      <point x="36" y="-2" type="qcurve" smooth="yes"/>
      <point x="14" y="21"/>
      <point x="-2" y="94"/>
      <point x="1" y="131" type="qcurve" smooth="yes"/>
      <point x="7" y="199"/>
      <point x="52" y="250" type="qcurve"/>
    </contour>
  </outline>
</glyph>
<glyph name="Manjaro" format="2">
  <advance width="512"/>
  <unicode hex="F312"/>
  <note>
Manjaro
</note>
  <outline>
    <contour>
      <point x="512" y="-102" type="line"/>
      <point x="512" y="410" type="line"/>
      <point x="362" y="410" type="line"/>
      <point x="362" y="-102" type="line"/>
    </contour>
    <contour>
      <point x="331" y="-102" type="line"/>
      <point x="331" y="229" type="line"/>
      <point x="181" y="229" type="line"/>
      <point x="181" y="-102" type="line"/>
    </contour>
    <contour>
      <point x="0" y="-102" type="line"/>
      <point x="150" y="-102" type="line"/>
      <point x="150" y="260" type="line"/>
      <point x="331" y="260" type="line"/>
      <point x="331" y="410" type="line"/>
      <point x="150" y="410" type="line"/>
      <point x="53" y="410" type="line"/>
      <point x="0" y="410" type="line"/>
    </contour>
  </outline>
</glyph>
<glyph name="NixOS" format="2">
  <advance width="512"/>
  <unicode hex="F313"/>
  <note>
NixOS
</note>
  <outline>
    <contour>
      <point x="128" y="99" type="line"/>
      <point x="161" y="40" type="line"/>
      <point x="114" y="-43" type="line"/>
      <point x="128" y="-68" type="line"/>
      <point x="157" y="-68" type="line"/>
      <point x="190" y="-10" type="line"/>
      <point x="224" y="-68" type="line"/>
      <point x="281" y="-67" type="line"/>
      <point x="156" y="149" type="line"/>
    </contour>
    <contour>
      <point x="144" y="237" type="line"/>
      <point x="110" y="178" type="line"/>
      <point x="15" y="179" type="line"/>
      <point x="0" y="154" type="line"/>
      <point x="14" y="129" type="line"/>
      <point x="81" y="129" type="line"/>
      <point x="47" y="71" type="line"/>
      <point x="76" y="21" type="line"/>
      <point x="201" y="238" type="line"/>
    </contour>
    <contour>
      <point x="240" y="15" type="line"/>
      <point x="308" y="15" type="line"/>
      <point x="355" y="-67" type="line"/>
      <point x="384" y="-67" type="line"/>
      <point x="398" y="-43" type="line"/>
      <point x="365" y="15" type="line"/>
      <point x="432" y="15" type="line"/>
      <point x="460" y="65" type="line"/>
      <point x="211" y="65" type="line"/>
    </contour>
    <contour>
      <point x="385" y="209" type="line"/>
      <point x="351" y="268" type="line"/>
      <point x="398" y="351" type="line"/>
      <point x="384" y="376" type="line"/>
      <point x="355" y="376" type="line"/>
      <point x="322" y="318" type="line"/>
      <point x="289" y="376" type="line"/>
      <point x="231" y="375" type="line"/>
      <point x="356" y="159" type="line"/>
    </contour>
    <contour>
      <point x="128" y="99" type="line"/>
      <point x="161" y="40" type="line"/>
      <point x="114" y="-43" type="line"/>
      <point x="128" y="-68" type="line"/>
      <point x="157" y="-68" type="line"/>
      <point x="190" y="-10" type="line"/>
      <point x="224" y="-68" type="line"/>
      <point x="281" y="-67" type="line"/>
      <point x="156" y="149" type="line"/>
    </contour>
    <contour>
      <point x="272" y="293" type="line"/>
      <point x="204" y="294" type="line"/>
      <point x="157" y="376" type="line"/>
      <point x="128" y="376" type="line"/>
      <point x="113" y="351" type="line"/>
      <point x="147" y="293" type="line"/>
      <point x="80" y="294" type="line"/>
      <point x="52" y="244" type="line"/>
      <point x="301" y="244" type="line"/>
    </contour>
    <contour>
      <point x="368" y="71" type="line"/>
      <point x="402" y="130" type="line"/>
      <point x="497" y="129" type="line"/>
      <point x="512" y="154" type="line"/>
      <point x="498" y="179" type="line"/>
      <point x="431" y="179" type="line"/>
      <point x="465" y="237" type="line"/>
      <point x="436" y="287" type="line"/>
      <point x="311" y="71" type="line"/>
    </contour>
  </outline>
</glyph>
<glyph name="OpenSUSE" format="2">
  <advance width="512"/>
  <unicode hex="F314"/>
  <note>
OpenSUSE
</note>
  <outline>
    <contour>
      <point x="480" y="146"/>
      <point x="481" y="164"/>
      <point x="468" y="177"/>
      <point x="450" y="178"/>
      <point x="437" y="166"/>
      <point x="437" y="148"/>
      <point x="449" y="135"/>
      <point x="467" y="134"/>
    </contour>
    <contour>
      <point x="463" y="154" type="line"/>
      <point x="453" y="154"/>
      <point x="453" y="167"/>
      <point x="472" y="167"/>
      <point x="472" y="154"/>
      <point x="463" y="154" type="qcurve"/>
    </contour>
    <contour>
      <point x="213" y="10" type="line"/>
      <point x="213" y="11" type="line" smooth="yes"/>
      <point x="212" y="14"/>
      <point x="212" y="21" type="qcurve" smooth="yes"/>
      <point x="209" y="50"/>
      <point x="221" y="61" type="qcurve" smooth="yes"/>
      <point x="228" y="68"/>
      <point x="236" y="70" type="qcurve" smooth="yes"/>
      <point x="277" y="80"/>
      <point x="307" y="45" type="qcurve" smooth="yes"/>
      <point x="322" y="27"/>
      <point x="327" y="22" type="qcurve" smooth="yes"/>
      <point x="328" y="21" type="line"/>
      <point x="330" y="21" type="line"/>
      <point x="331" y="20"/>
      <point x="369" y="2" type="qcurve"/>
      <point x="370" y="2" type="line"/>
      <point x="370" y="3" type="line"/>
      <point x="368" y="6"/>
      <point x="359" y="20"/>
      <point x="348" y="49"/>
      <point x="350" y="61" type="qcurve" smooth="yes"/>
      <point x="352" y="74"/>
      <point x="375" y="80"/>
      <point x="392" y="77" type="qcurve" smooth="yes"/>
      <point x="408" y="75"/>
      <point x="417" y="75" type="qcurve" smooth="yes"/>
      <point x="457" y="74"/>
      <point x="483" y="86" type="qcurve" smooth="yes"/>
      <point x="500" y="93"/>
      <point x="504" y="97" type="qcurve" smooth="yes"/>
      <point x="506" y="99"/>
      <point x="507" y="103" type="qcurve"/>
      <point x="508" y="104" type="line"/>
      <point x="509" y="107"/>
      <point x="510" y="112" type="qcurve" smooth="yes"/>
      <point x="510" y="113"/>
      <point x="510" y="114" type="qcurve"/>
      <point x="507" y="114" type="line"/>
      <point x="487" y="101"/>
      <point x="466" y="101" type="qcurve" smooth="yes"/>
      <point x="445" y="100"/>
      <point x="400" y="124" type="qcurve"/>
      <point x="399" y="126"/>
      <point x="391" y="144" type="qcurve"/>
      <point x="436" y="115"/>
      <point x="464" y="112" type="qcurve" smooth="yes"/>
      <point x="485" y="111"/>
      <point x="509" y="127" type="qcurve"/>
      <point x="511" y="129"/>
      <point x="512" y="129" type="qcurve"/>
      <point x="511" y="137"/>
      <point x="497" y="175"/>
      <point x="492" y="181" type="qcurve" smooth="yes"/>
      <point x="487" y="186"/>
      <point x="484" y="188" type="qcurve" smooth="yes"/>
      <point x="453" y="206"/>
      <point x="379" y="216" type="qcurve" smooth="yes"/>
      <point x="378" y="216" type="line"/>
      <point x="378" y="199" type="line"/>
      <point x="320" y="219"/>
      <point x="268" y="221" type="qcurve" smooth="yes"/>
      <point x="238" y="222"/>
      <point x="200" y="220"/>
      <point x="125" y="197"/>
      <point x="88" y="174" type="qcurve"/>
      <point x="85" y="173" type="line"/>
      <point x="28" y="137"/>
      <point x="7" y="85" type="qcurve" smooth="yes"/>
      <point x="-5" y="56"/>
      <point x="2" y="28" type="qcurve" smooth="yes"/>
      <point x="6" y="12"/>
      <point x="16" y="-1" type="qcurve" smooth="yes"/>
      <point x="38" y="-34"/>
      <point x="79" y="-37" type="qcurve" smooth="yes"/>
      <point x="106" y="-40"/>
      <point x="145" y="-17"/>
      <point x="152" y="6" type="qcurve" smooth="yes"/>
      <point x="157" y="23"/>
      <point x="144" y="62"/>
      <point x="126" y="73" type="qcurve" smooth="yes"/>
      <point x="96" y="91"/>
      <point x="70" y="74" type="qcurve" smooth="yes"/>
      <point x="53" y="63"/>
      <point x="53" y="43" type="qcurve" smooth="yes"/>
      <point x="53" y="27"/>
      <point x="75" y="8"/>
      <point x="86" y="8" type="qcurve" smooth="yes"/>
      <point x="92" y="8"/>
      <point x="99" y="10" type="qcurve" smooth="yes"/>
      <point x="102" y="11"/>
      <point x="104" y="12" type="qcurve" smooth="yes"/>
      <point x="105" y="13" type="line"/>
      <point x="105" y="13" type="line"/>
      <point x="110" y="16"/>
      <point x="110" y="22" type="qcurve" smooth="yes"/>
      <point x="110" y="24"/>
      <point x="110" y="25" type="qcurve"/>
      <point x="107" y="35"/>
      <point x="96" y="34" type="qcurve"/>
      <point x="96" y="33" type="line"/>
      <point x="95" y="33" type="line"/>
      <point x="93" y="32" type="line"/>
      <point x="90" y="32"/>
      <point x="87" y="32" type="qcurve" smooth="yes"/>
      <point x="84" y="32"/>
      <point x="77" y="37"/>
      <point x="77" y="43" type="qcurve" smooth="yes"/>
      <point x="77" y="46"/>
      <point x="79" y="50" type="qcurve" smooth="yes"/>
      <point x="84" y="58"/>
      <point x="98" y="57" type="qcurve" smooth="yes"/>
      <point x="116" y="55"/>
      <point x="124" y="38" type="qcurve" smooth="yes"/>
      <point x="133" y="20"/>
      <point x="121" y="4" type="qcurve" smooth="yes"/>
      <point x="109" y="-11"/>
      <point x="82" y="-8" type="qcurve" smooth="yes"/>
      <point x="54" y="-5"/>
      <point x="27" y="46"/>
      <point x="39" y="69" type="qcurve" smooth="yes"/>
      <point x="60" y="109"/>
      <point x="111" y="100" type="qcurve" smooth="yes"/>
      <point x="132" y="96"/>
      <point x="167" y="65"/>
      <point x="175" y="43" type="qcurve" smooth="yes"/>
      <point x="177" y="38"/>
      <point x="179" y="31" type="qcurve" smooth="yes"/>
      <point x="180" y="26" type="line"/>
      <point x="212" y="10" type="line"/>
      <point x="212" y="10" type="line"/>
    </contour>
    <contour>
      <point x="437" y="178" type="line"/>
      <point x="446" y="187"/>
      <point x="471" y="186"/>
      <point x="489" y="167"/>
      <point x="488" y="142"/>
      <point x="469" y="125"/>
      <point x="444" y="126"/>
      <point x="427" y="144"/>
      <point x="428" y="170"/>
      <point x="437" y="178" type="qcurve"/>
    </contour>
    <contour>
      <point x="388" y="7" type="line"/>
      <point x="389" y="7"/>
      <point x="389" y="8" type="qcurve" smooth="yes"/>
      <point x="389" y="17" type="line"/>
      <point x="388" y="17" type="line" smooth="yes"/>
      <point x="387" y="17"/>
      <point x="387" y="16" type="qcurve"/>
      <point x="385" y="13" type="line"/>
      <point x="383" y="16" type="line"/>
      <point x="383" y="17"/>
      <point x="383" y="17" type="qcurve"/>
      <point x="373" y="17" type="line" smooth="yes"/>
      <point x="372" y="17"/>
      <point x="372" y="16" type="qcurve" smooth="yes"/>
      <point x="372" y="15" type="line"/>
      <point x="372" y="15"/>
      <point x="373" y="15" type="qcurve" smooth="yes"/>
      <point x="376" y="15" type="line"/>
      <point x="376" y="8" type="line" smooth="yes"/>
      <point x="376" y="7"/>
      <point x="376" y="7" type="qcurve"/>
      <point x="377" y="7" type="line" smooth="yes"/>
      <point x="378" y="7"/>
      <point x="378" y="8" type="qcurve" smooth="yes"/>
      <point x="378" y="15" type="line"/>
      <point x="381" y="15" type="line"/>
      <point x="381" y="8" type="line" smooth="yes"/>
      <point x="381" y="7"/>
      <point x="382" y="7" type="qcurve" smooth="yes"/>
      <point x="383" y="7"/>
      <point x="383" y="8" type="qcurve" smooth="yes"/>
      <point x="383" y="14" type="line"/>
      <point x="384" y="12" type="line"/>
      <point x="385" y="12"/>
      <point x="386" y="12"/>
      <point x="386" y="12" type="qcurve"/>
      <point x="387" y="14" type="line"/>
      <point x="387" y="8" type="line" smooth="yes"/>
      <point x="387" y="7"/>
      <point x="388" y="7" type="qcurve"/>
    </contour>
  </outline>
</glyph>
<glyph name="Raspberry pi" format="2">
  <advance width="401"/>
  <unicode hex="F315"/>
  <note>
Raspberry pi
</note>
  <outline>
    <contour>
      <point x="104" y="410"/>
      <point x="100" y="406" type="qcurve"/>
      <point x="86" y="412"/>
      <point x="78" y="404" type="qcurve"/>
      <point x="67" y="406"/>
      <point x="62" y="400" type="qcurve"/>
      <point x="43" y="400"/>
      <point x="38" y="392" type="qcurve"/>
      <point x="26" y="393"/>
      <point x="16" y="379"/>
      <point x="22" y="371" type="qcurve"/>
      <point x="15" y="360"/>
      <point x="23" y="350" type="qcurve"/>
      <point x="18" y="341"/>
      <point x="28" y="330" type="qcurve"/>
      <point x="26" y="320"/>
      <point x="36" y="312" type="qcurve"/>
      <point x="35" y="302"/>
      <point x="50" y="293" type="qcurve"/>
      <point x="52" y="281"/>
      <point x="67" y="277" type="qcurve"/>
      <point x="69" y="268"/>
      <point x="84" y="264" type="qcurve"/>
      <point x="62" y="251"/>
      <point x="38" y="216"/>
      <point x="38" y="184" type="qcurve"/>
      <point x="35" y="178" type="line"/>
      <point x="19" y="168"/>
      <point x="-1" y="131"/>
      <point x="2" y="81"/>
      <point x="21" y="60" type="qcurve"/>
      <point x="22" y="51"/>
      <point x="31" y="24" type="qcurve"/>
      <point x="35" y="-5"/>
      <point x="72" y="-41"/>
      <point x="85" y="-44" type="qcurve"/>
      <point x="112" y="-65"/>
      <point x="137" y="-74" type="qcurve"/>
      <point x="164" y="-102"/>
      <point x="200" y="-102" type="qcurve" smooth="yes"/>
      <point x="201" y="-102"/>
      <point x="201" y="-102" type="qcurve"/>
      <point x="237" y="-102"/>
      <point x="264" y="-74" type="qcurve"/>
      <point x="289" y="-65"/>
      <point x="316" y="-44" type="qcurve"/>
      <point x="329" y="-41"/>
      <point x="366" y="-5"/>
      <point x="369" y="24" type="qcurve"/>
      <point x="379" y="51"/>
      <point x="380" y="60" type="qcurve"/>
      <point x="399" y="81"/>
      <point x="402" y="131"/>
      <point x="382" y="168"/>
      <point x="366" y="178" type="qcurve"/>
      <point x="363" y="184" type="line"/>
      <point x="363" y="216"/>
      <point x="339" y="251"/>
      <point x="317" y="264" type="qcurve"/>
      <point x="332" y="268"/>
      <point x="334" y="277" type="qcurve"/>
      <point x="349" y="281"/>
      <point x="351" y="293" type="qcurve"/>
      <point x="366" y="302"/>
      <point x="365" y="312" type="qcurve"/>
      <point x="375" y="320"/>
      <point x="373" y="330" type="qcurve"/>
      <point x="382" y="341"/>
      <point x="378" y="350" type="qcurve"/>
      <point x="386" y="360"/>
      <point x="379" y="371" type="qcurve"/>
      <point x="384" y="379"/>
      <point x="375" y="393"/>
      <point x="363" y="392" type="qcurve"/>
      <point x="358" y="400"/>
      <point x="339" y="400" type="qcurve"/>
      <point x="334" y="406"/>
      <point x="323" y="404" type="qcurve"/>
      <point x="315" y="412"/>
      <point x="301" y="406" type="qcurve"/>
      <point x="298" y="409"/>
      <point x="291" y="410"/>
      <point x="287" y="409"/>
      <point x="280" y="406"/>
      <point x="279" y="406" type="qcurve" smooth="yes"/>
      <point x="272" y="407"/>
      <point x="268" y="407"/>
      <point x="261" y="403"/>
      <point x="260" y="402" type="qcurve"/>
      <point x="249" y="405"/>
      <point x="240" y="395" type="qcurve"/>
      <point x="238" y="394"/>
      <point x="238" y="393" type="qcurve"/>
      <point x="231" y="394" type="line"/>
      <point x="209" y="381"/>
      <point x="200" y="349" type="qcurve"/>
      <point x="192" y="381"/>
      <point x="170" y="394" type="qcurve"/>
      <point x="163" y="393" type="line"/>
      <point x="162" y="394"/>
      <point x="161" y="395" type="qcurve" smooth="yes"/>
      <point x="152" y="405"/>
      <point x="141" y="402" type="qcurve"/>
      <point x="140" y="403"/>
      <point x="133" y="407"/>
      <point x="129" y="407"/>
      <point x="122" y="406" type="qcurve"/>
      <point x="109" y="410"/>
      <point x="109" y="410" type="qcurve"/>
    </contour>
    <contour>
      <point x="287" y="390"/>
      <point x="291" y="387" type="qcurve"/>
      <point x="301" y="394"/>
      <point x="313" y="396" type="qcurve"/>
      <point x="313" y="396"/>
      <point x="307" y="390"/>
      <point x="308" y="389"/>
      <point x="308" y="387" type="qcurve"/>
      <point x="318" y="391"/>
      <point x="330" y="392" type="qcurve"/>
      <point x="323" y="386"/>
      <point x="326" y="383" type="qcurve"/>
      <point x="343" y="388"/>
      <point x="352" y="386" type="qcurve"/>
      <point x="346" y="380" type="line"/>
      <point x="346" y="379"/>
      <point x="362" y="379" type="qcurve" smooth="yes"/>
      <point x="367" y="379"/>
      <point x="370" y="379" type="qcurve"/>
      <point x="362" y="369"/>
      <point x="360" y="361" type="qcurve"/>
      <point x="361" y="360"/>
      <point x="371" y="361" type="qcurve"/>
      <point x="368" y="355"/>
      <point x="357" y="346"/>
      <point x="356" y="344" type="qcurve"/>
      <point x="360" y="342"/>
      <point x="367" y="344" type="qcurve"/>
      <point x="366" y="342"/>
      <point x="351" y="327" type="qcurve"/>
      <point x="354" y="325"/>
      <point x="361" y="326" type="qcurve"/>
      <point x="353" y="318"/>
      <point x="343" y="311" type="qcurve"/>
      <point x="344" y="310"/>
      <point x="352" y="309" type="qcurve"/>
      <point x="348" y="305"/>
      <point x="329" y="295" type="qcurve"/>
      <point x="332" y="293"/>
      <point x="339" y="293" type="qcurve"/>
      <point x="335" y="289"/>
      <point x="315" y="283" type="qcurve"/>
      <point x="317" y="280"/>
      <point x="322" y="279" type="qcurve"/>
      <point x="317" y="276"/>
      <point x="297" y="274"/>
      <point x="295" y="273" type="qcurve"/>
      <point x="297" y="270"/>
      <point x="302" y="268" type="qcurve"/>
      <point x="283" y="266"/>
      <point x="243" y="279"/>
      <point x="238" y="300" type="qcurve"/>
      <point x="263" y="328"/>
      <point x="330" y="362" type="qcurve"/>
      <point x="269" y="342"/>
      <point x="229" y="309" type="qcurve"/>
      <point x="214" y="316"/>
      <point x="212" y="346"/>
      <point x="226" y="371"/>
      <point x="235" y="381" type="qcurve"/>
      <point x="237" y="374"/>
      <point x="238" y="373" type="qcurve"/>
      <point x="252" y="388"/>
      <point x="255" y="390" type="qcurve"/>
      <point x="255" y="383"/>
      <point x="257" y="381" type="qcurve"/>
      <point x="263" y="389"/>
      <point x="273" y="394" type="qcurve"/>
      <point x="270" y="390"/>
      <point x="274" y="385" type="qcurve"/>
      <point x="284" y="394"/>
      <point x="293" y="397" type="qcurve"/>
    </contour>
    <contour>
      <point x="118" y="394"/>
      <point x="128" y="385" type="qcurve"/>
      <point x="132" y="390"/>
      <point x="129" y="394" type="qcurve"/>
      <point x="139" y="389"/>
      <point x="145" y="381" type="qcurve"/>
      <point x="147" y="383"/>
      <point x="147" y="390" type="qcurve"/>
      <point x="150" y="388"/>
      <point x="164" y="373" type="qcurve"/>
      <point x="165" y="374"/>
      <point x="167" y="381" type="qcurve"/>
      <point x="176" y="371"/>
      <point x="190" y="346"/>
      <point x="188" y="316"/>
      <point x="173" y="309" type="qcurve"/>
      <point x="133" y="342"/>
      <point x="72" y="362" type="qcurve"/>
      <point x="139" y="328"/>
      <point x="164" y="300" type="qcurve"/>
      <point x="161" y="285"/>
      <point x="133" y="270"/>
      <point x="111" y="267"/>
      <point x="100" y="268" type="qcurve"/>
      <point x="105" y="270"/>
      <point x="107" y="273" type="qcurve"/>
      <point x="105" y="274"/>
      <point x="85" y="276"/>
      <point x="80" y="279" type="qcurve"/>
      <point x="85" y="280"/>
      <point x="87" y="283" type="qcurve"/>
      <point x="67" y="289"/>
      <point x="63" y="293" type="qcurve"/>
      <point x="70" y="293"/>
      <point x="73" y="295" type="qcurve"/>
      <point x="54" y="305"/>
      <point x="50" y="309" type="qcurve"/>
      <point x="58" y="310"/>
      <point x="60" y="311" type="qcurve"/>
      <point x="49" y="318"/>
      <point x="41" y="326" type="qcurve"/>
      <point x="48" y="325"/>
      <point x="51" y="327" type="qcurve"/>
      <point x="36" y="342"/>
      <point x="35" y="344" type="qcurve"/>
      <point x="42" y="342"/>
      <point x="46" y="344" type="qcurve"/>
      <point x="45" y="346"/>
      <point x="34" y="355"/>
      <point x="31" y="361" type="qcurve"/>
      <point x="41" y="360"/>
      <point x="42" y="361" type="qcurve"/>
      <point x="40" y="369"/>
      <point x="32" y="379" type="qcurve"/>
      <point x="56" y="379"/>
      <point x="56" y="380" type="qcurve"/>
      <point x="50" y="386" type="line"/>
      <point x="59" y="388"/>
      <point x="76" y="383" type="qcurve"/>
      <point x="79" y="386"/>
      <point x="72" y="392" type="qcurve"/>
      <point x="84" y="391"/>
      <point x="94" y="387" type="qcurve"/>
      <point x="94" y="389"/>
      <point x="95" y="390"/>
      <point x="89" y="396"/>
      <point x="89" y="396" type="qcurve"/>
      <point x="101" y="394"/>
      <point x="112" y="387" type="qcurve"/>
      <point x="115" y="390"/>
      <point x="109" y="397" type="qcurve"/>
    </contour>
    <contour>
      <point x="199" y="266"/>
      <point x="200" y="266" type="qcurve" smooth="yes"/>
      <point x="218" y="266"/>
      <point x="254" y="244"/>
      <point x="253" y="231" type="qcurve" smooth="yes"/>
      <point x="253" y="220"/>
      <point x="224" y="204"/>
      <point x="200" y="204" type="qcurve" smooth="yes"/>
      <point x="178" y="205"/>
      <point x="148" y="223"/>
      <point x="148" y="234" type="qcurve" smooth="yes"/>
      <point x="148" y="244"/>
      <point x="179" y="266"/>
      <point x="198" y="266" type="qcurve" smooth="yes"/>
    </contour>
    <contour>
      <point x="127" y="256"/>
      <point x="136" y="255" type="qcurve"/>
      <point x="146" y="251"/>
      <point x="103" y="213" type="qcurve" smooth="yes"/>
      <point x="56" y="173"/>
      <point x="55" y="187" type="qcurve" smooth="yes"/>
      <point x="54" y="218"/>
      <point x="90" y="255"/>
      <point x="119" y="256" type="qcurve" smooth="yes"/>
    </contour>
    <contour>
      <point x="305" y="254"/>
      <point x="342" y="217"/>
      <point x="341" y="185" type="qcurve"/>
      <point x="338" y="173"/>
      <point x="291" y="214" type="qcurve" smooth="yes"/>
      <point x="248" y="251"/>
      <point x="260" y="253" type="qcurve" smooth="yes"/>
      <point x="268" y="255"/>
      <point x="276" y="255" type="qcurve" smooth="yes"/>
    </contour>
    <contour>
      <point x="259" y="203"/>
      <point x="260" y="203" type="qcurve" smooth="yes"/>
      <point x="291" y="201"/>
      <point x="310" y="173" type="qcurve" smooth="yes"/>
      <point x="325" y="152"/>
      <point x="320" y="105"/>
      <point x="302" y="93" type="qcurve"/>
      <point x="302" y="93"/>
      <point x="301" y="92"/>
      <point x="301" y="92" type="qcurve"/>
      <point x="283" y="80"/>
      <point x="238" y="93"/>
      <point x="209" y="136"/>
      <point x="214" y="183"/>
      <point x="232" y="195" type="qcurve"/>
      <point x="233" y="195"/>
      <point x="233" y="195" type="qcurve"/>
      <point x="244" y="202"/>
      <point x="258" y="203" type="qcurve" smooth="yes"/>
    </contour>
    <contour>
      <point x="156" y="200"/>
      <point x="168" y="192" type="qcurve" smooth="yes"/>
      <point x="186" y="180"/>
      <point x="191" y="133"/>
      <point x="177" y="112" type="qcurve" smooth="yes"/>
      <point x="163" y="91"/>
      <point x="118" y="78"/>
      <point x="100" y="89" type="qcurve"/>
      <point x="100" y="90"/>
      <point x="100" y="90" type="qcurve"/>
      <point x="82" y="102"/>
      <point x="76" y="149"/>
      <point x="91" y="170" type="qcurve" smooth="yes"/>
      <point x="110" y="199"/>
      <point x="141" y="200" type="qcurve" smooth="yes"/>
    </contour>
    <contour>
      <point x="347" y="168"/>
      <point x="348" y="168" type="qcurve"/>
      <point x="369" y="156"/>
      <point x="383" y="116"/>
      <point x="373" y="79"/>
      <point x="361" y="70" type="qcurve" smooth="yes"/>
      <point x="359" y="69"/>
      <point x="358" y="69" type="qcurve" smooth="yes"/>
      <point x="343" y="71"/>
      <point x="337" y="118" type="qcurve" smooth="yes"/>
      <point x="330" y="168"/>
      <point x="346" y="168" type="qcurve" smooth="yes"/>
    </contour>
    <contour>
      <point x="57" y="167"/>
      <point x="59" y="154" type="qcurve" smooth="yes"/>
      <point x="66" y="122"/>
      <point x="51" y="84" type="qcurve" smooth="yes"/>
      <point x="43" y="64"/>
      <point x="35" y="68" type="qcurve"/>
      <point x="23" y="78"/>
      <point x="13" y="114"/>
      <point x="27" y="155"/>
      <point x="47" y="166" type="qcurve" smooth="yes"/>
      <point x="49" y="167"/>
      <point x="50" y="167" type="qcurve" smooth="yes"/>
    </contour>
    <contour>
      <point x="227" y="92"/>
      <point x="260" y="61"/>
      <point x="260" y="39" type="qcurve"/>
      <point x="260" y="39" type="line"/>
      <point x="260" y="17"/>
      <point x="226" y="-15"/>
      <point x="178" y="-15"/>
      <point x="143" y="17"/>
      <point x="143" y="39" type="qcurve"/>
      <point x="143" y="39" type="line"/>
      <point x="143" y="61"/>
      <point x="178" y="93"/>
      <point x="202" y="93" type="qcurve"/>
      <point x="202" y="93"/>
      <point x="203" y="93" type="qcurve" smooth="yes"/>
    </contour>
    <contour>
      <point x="337" y="73"/>
      <point x="343" y="69" type="qcurve"/>
      <point x="352" y="60"/>
      <point x="354" y="15"/>
      <point x="341" y="-4" type="qcurve" smooth="yes"/>
      <point x="330" y="-20"/>
      <point x="299" y="-36"/>
      <point x="278" y="-34"/>
      <point x="270" y="-30" type="qcurve"/>
      <point x="261" y="-20"/>
      <point x="271" y="26"/>
      <point x="285" y="42" type="qcurve" smooth="yes"/>
      <point x="312" y="72"/>
      <point x="330" y="73" type="qcurve" smooth="yes"/>
    </contour>
    <contour>
      <point x="90" y="65"/>
      <point x="116" y="36" type="qcurve"/>
      <point x="128" y="20"/>
      <point x="136" y="-22"/>
      <point x="126" y="-30" type="qcurve" smooth="yes"/>
      <point x="117" y="-38"/>
      <point x="74" y="-25"/>
      <point x="58" y="-2" type="qcurve" smooth="yes"/>
      <point x="47" y="17"/>
      <point x="47" y="56"/>
      <point x="56" y="61" type="qcurve" smooth="yes"/>
      <point x="61" y="64"/>
      <point x="67" y="64" type="qcurve" smooth="yes"/>
    </contour>
    <contour>
      <point x="224" y="-32"/>
      <point x="257" y="-43"/>
      <point x="257" y="-51" type="qcurve" smooth="yes"/>
      <point x="257" y="-60"/>
      <point x="220" y="-86"/>
      <point x="200" y="-86" type="qcurve" smooth="yes"/>
      <point x="181" y="-87"/>
      <point x="143" y="-62"/>
      <point x="143" y="-54" type="qcurve" smooth="yes"/>
      <point x="143" y="-45"/>
      <point x="183" y="-31"/>
      <point x="202" y="-32" type="qcurve" smooth="yes"/>
      <point x="204" y="-32"/>
      <point x="206" y="-32" type="qcurve" smooth="yes"/>
    </contour>
  </outline>
</glyph>
<glyph name="Red Hat" format="2">
  <advance width="512"/>
  <unicode hex="F316"/>
  <note>
Red Hat
</note>
  <outline>
    <contour>
      <point x="0" y="258"/>
      <point x="0" y="152" type="qcurve" smooth="yes"/>
      <point x="0" y="110"/>
      <point x="13" y="71" type="qcurve"/>
      <point x="31" y="71" type="line" smooth="yes"/>
      <point x="54" y="71"/>
      <point x="74" y="81" type="qcurve" smooth="yes"/>
      <point x="79" y="84"/>
      <point x="84" y="84" type="qcurve" smooth="yes"/>
      <point x="97" y="84"/>
      <point x="103" y="73" type="qcurve" smooth="yes"/>
      <point x="108" y="65"/>
      <point x="115" y="61" type="qcurve" smooth="yes"/>
      <point x="121" y="56"/>
      <point x="130" y="57" type="qcurve" smooth="yes"/>
      <point x="139" y="57"/>
      <point x="140" y="61" type="qcurve" smooth="yes"/>
      <point x="142" y="67"/>
      <point x="135" y="70" type="qcurve" smooth="yes"/>
      <point x="128" y="73"/>
      <point x="122" y="84" type="qcurve" smooth="yes"/>
      <point x="121" y="86"/>
      <point x="115" y="93"/>
      <point x="110" y="101"/>
      <point x="109" y="106" type="qcurve" smooth="yes"/>
      <point x="108" y="116"/>
      <point x="123" y="132"/>
      <point x="136" y="129" type="qcurve" smooth="yes"/>
      <point x="149" y="125"/>
      <point x="162" y="103" type="qcurve"/>
      <point x="163" y="100"/>
      <point x="171" y="98"/>
      <point x="175" y="100" type="qcurve"/>
      <point x="182" y="107"/>
      <point x="188" y="99" type="qcurve" smooth="yes"/>
      <point x="194" y="90"/>
      <point x="223" y="63"/>
      <point x="239" y="63" type="qcurve" smooth="yes"/>
      <point x="253" y="62"/>
      <point x="285" y="69"/>
      <point x="288" y="68" type="qcurve"/>
      <point x="293" y="68"/>
      <point x="303" y="63"/>
      <point x="304" y="63" type="qcurve" smooth="yes"/>
      <point x="308" y="63"/>
      <point x="322" y="69"/>
      <point x="326" y="69" type="qcurve" smooth="yes"/>
      <point x="330" y="69"/>
      <point x="344" y="64"/>
      <point x="349" y="64" type="qcurve" smooth="yes"/>
      <point x="352" y="64"/>
      <point x="365" y="68"/>
      <point x="372" y="71"/>
      <point x="373" y="69" type="qcurve"/>
      <point x="372" y="65"/>
      <point x="366" y="46"/>
      <point x="366" y="44"/>
      <point x="365" y="28"/>
      <point x="363" y="24" type="qcurve"/>
      <point x="362" y="19"/>
      <point x="352" y="4" type="qcurve" smooth="yes"/>
      <point x="350" y="1"/>
      <point x="339" y="-12"/>
      <point x="336" y="-18" type="qcurve" smooth="yes"/>
      <point x="335" y="-21"/>
      <point x="319" y="-43" type="qcurve"/>
      <point x="332" y="-44"/>
      <point x="344" y="-35" type="qcurve"/>
      <point x="344" y="-35"/>
      <point x="357" y="-19"/>
      <point x="371" y="-9"/>
      <point x="378" y="-8" type="qcurve" smooth="yes"/>
      <point x="387" y="-6"/>
      <point x="393" y="0"/>
      <point x="391" y="4" type="qcurve"/>
      <point x="391" y="5"/>
      <point x="391" y="5" type="qcurve"/>
      <point x="391" y="8"/>
      <point x="393" y="9" type="qcurve" smooth="yes"/>
      <point x="413" y="17"/>
      <point x="440" y="17" type="qcurve" smooth="yes"/>
      <point x="456" y="17"/>
      <point x="471" y="14" type="qcurve"/>
      <point x="512" y="77"/>
      <point x="512" y="152" type="qcurve" smooth="yes"/>
      <point x="512" y="258"/>
      <point x="362" y="408"/>
      <point x="150" y="408"/>
    </contour>
    <contour>
      <point x="325" y="355"/>
      <point x="339" y="340" type="qcurve" smooth="yes"/>
      <point x="350" y="329"/>
      <point x="376" y="272"/>
      <point x="384" y="244" type="qcurve" smooth="yes"/>
      <point x="390" y="224"/>
      <point x="385" y="212" type="qcurve" smooth="yes"/>
      <point x="382" y="206"/>
      <point x="376" y="196" type="qcurve" smooth="yes"/>
      <point x="375" y="194"/>
      <point x="377" y="192"/>
      <point x="378" y="193" type="qcurve"/>
      <point x="395" y="201"/>
      <point x="400" y="220" type="qcurve"/>
      <point x="434" y="213"/>
      <point x="468" y="180"/>
      <point x="464" y="157" type="qcurve" smooth="yes"/>
      <point x="455" y="108"/>
      <point x="315" y="75"/>
      <point x="234" y="100" type="qcurve" smooth="yes"/>
      <point x="157" y="123"/>
      <point x="45" y="202"/>
      <point x="53" y="229" type="qcurve" smooth="yes"/>
      <point x="57" y="244"/>
      <point x="103" y="257"/>
      <point x="137" y="254" type="qcurve"/>
      <point x="124" y="228"/>
      <point x="160" y="206" type="qcurve" smooth="yes"/>
      <point x="186" y="191"/>
      <point x="260" y="168"/>
      <point x="273" y="170" type="qcurve" smooth="yes"/>
      <point x="274" y="170"/>
      <point x="275" y="170" type="qcurve" smooth="yes"/>
      <point x="286" y="172"/>
      <point x="279" y="177" type="qcurve" smooth="yes"/>
      <point x="270" y="183"/>
      <point x="266" y="201" type="qcurve"/>
      <point x="264" y="206"/>
      <point x="261" y="212"/>
      <point x="241" y="222"/>
      <point x="223" y="225" type="qcurve" smooth="yes"/>
      <point x="194" y="231"/>
      <point x="158" y="246"/>
      <point x="148" y="259"/>
      <point x="143" y="273"/>
      <point x="146" y="278" type="qcurve"/>
      <point x="157" y="323" type="line" smooth="yes"/>
      <point x="167" y="361"/>
      <point x="221" y="349" type="qcurve" smooth="yes"/>
      <point x="230" y="347"/>
      <point x="245" y="346"/>
      <point x="258" y="348"/>
      <point x="266" y="350"/>
      <point x="276" y="353"/>
      <point x="277" y="353" type="qcurve" smooth="yes"/>
      <point x="288" y="356"/>
      <point x="299" y="356" type="qcurve" smooth="yes"/>
    </contour>
    <contour>
      <point x="295" y="344"/>
      <point x="291" y="343" type="qcurve"/>
      <point x="276" y="342"/>
      <point x="267" y="337" type="qcurve"/>
      <point x="266" y="337"/>
      <point x="266" y="336" type="qcurve" smooth="yes"/>
      <point x="266" y="335"/>
      <point x="267" y="335" type="qcurve"/>
      <point x="267" y="335" type="line"/>
      <point x="270" y="336"/>
      <point x="272" y="336" type="qcurve" smooth="yes"/>
      <point x="301" y="339"/>
      <point x="302" y="330" type="qcurve" smooth="yes"/>
      <point x="303" y="324"/>
      <point x="285" y="320" type="qcurve" smooth="yes"/>
      <point x="284" y="320"/>
      <point x="284" y="318"/>
      <point x="285" y="318" type="qcurve" smooth="yes"/>
      <point x="292" y="316"/>
      <point x="300" y="316" type="qcurve" smooth="yes"/>
      <point x="312" y="316"/>
      <point x="330" y="323"/>
      <point x="330" y="335"/>
      <point x="313" y="343"/>
      <point x="301" y="344" type="qcurve" smooth="yes"/>
      <point x="299" y="344" type="line" smooth="yes"/>
    </contour>
    <contour>
      <point x="173" y="313"/>
      <point x="170" y="307" type="qcurve" smooth="yes"/>
      <point x="167" y="300"/>
      <point x="175" y="287"/>
      <point x="180" y="286" type="qcurve"/>
      <point x="183" y="281" type="line" smooth="yes"/>
      <point x="186" y="277"/>
      <point x="194" y="272"/>
      <point x="198" y="275" type="qcurve"/>
      <point x="206" y="284"/>
      <point x="236" y="286" type="qcurve" smooth="yes"/>
      <point x="246" y="287"/>
      <point x="251" y="291"/>
      <point x="251" y="294" type="qcurve" smooth="yes"/>
      <point x="250" y="303"/>
      <point x="229" y="303" type="qcurve" smooth="yes"/>
      <point x="222" y="303"/>
      <point x="203" y="301"/>
      <point x="200" y="301" type="qcurve" smooth="yes"/>
      <point x="191" y="301"/>
      <point x="184" y="310" type="qcurve" smooth="yes"/>
      <point x="181" y="313"/>
      <point x="178" y="313" type="qcurve" smooth="yes"/>
    </contour>
    <contour>
      <point x="307" y="32"/>
      <point x="304" y="30" type="qcurve" smooth="yes"/>
      <point x="300" y="26"/>
      <point x="288" y="33" type="qcurve" smooth="yes"/>
      <point x="280" y="37"/>
      <point x="270" y="34"/>
      <point x="269" y="30" type="qcurve"/>
      <point x="267" y="27"/>
      <point x="270" y="21"/>
      <point x="274" y="22" type="qcurve" smooth="yes"/>
      <point x="280" y="23"/>
      <point x="287" y="18" type="qcurve" smooth="yes"/>
      <point x="298" y="11"/>
      <point x="307" y="18" type="qcurve" smooth="yes"/>
      <point x="311" y="21"/>
      <point x="313" y="26" type="qcurve" smooth="yes"/>
      <point x="317" y="33"/>
      <point x="312" y="37" type="qcurve"/>
      <point x="311" y="37" type="line"/>
    </contour>
    <contour>
      <point x="496" y="24" type="qcurve" smooth="yes"/>
      <point x="496" y="17"/>
      <point x="510" y="17"/>
      <point x="510" y="24" type="qcurve" smooth="yes"/>
      <point x="510" y="31"/>
      <point x="496" y="31"/>
    </contour>
    <contour>
      <point x="509" y="30"/>
      <point x="509" y="24" type="qcurve" smooth="yes"/>
      <point x="509" y="18"/>
      <point x="503" y="18" type="qcurve" smooth="yes"/>
      <point x="497" y="18"/>
      <point x="497" y="24" type="qcurve" smooth="yes"/>
      <point x="497" y="30"/>
      <point x="503" y="30" type="qcurve" smooth="yes"/>
    </contour>
    <contour>
      <point x="501" y="20" type="line"/>
      <point x="502" y="20" type="line"/>
      <point x="502" y="23" type="line"/>
      <point x="503" y="23" type="line"/>
      <point x="505" y="20" type="line"/>
      <point x="506" y="20" type="line"/>
      <point x="504" y="23" type="line"/>
      <point x="506" y="24"/>
      <point x="506" y="26" type="qcurve" smooth="yes"/>
      <point x="506" y="28"/>
      <point x="504" y="28" type="qcurve" smooth="yes"/>
      <point x="501" y="28" type="line"/>
    </contour>
    <contour>
      <point x="502" y="24" type="line"/>
      <point x="503" y="24" type="line" smooth="yes"/>
      <point x="505" y="24"/>
      <point x="505" y="27"/>
      <point x="503" y="27" type="qcurve" smooth="yes"/>
      <point x="502" y="27" type="line"/>
    </contour>
  </outline>
</glyph>
<glyph name="Sabayon" format="2">
  <advance width="512"/>
  <unicode hex="F317"/>
  <note>
Sabayon
</note>
  <outline>
    <contour>
      <point x="254" y="410"/>
      <point x="251" y="410" type="qcurve" smooth="yes"/>
      <point x="145" y="408"/>
      <point x="-2" y="255"/>
      <point x="2" y="43"/>
      <point x="155" y="-104"/>
      <point x="367" y="-100"/>
      <point x="514" y="53"/>
      <point x="512" y="159" type="qcurve" smooth="yes"/>
      <point x="510" y="263"/>
      <point x="361" y="409"/>
      <point x="258" y="410" type="qcurve" smooth="yes"/>
    </contour>
    <contour>
      <point x="260" y="338"/>
      <point x="262" y="324"/>
      <point x="264" y="324" type="qcurve"/>
      <point x="269" y="296"/>
      <point x="263" y="279" type="qcurve" smooth="yes"/>
      <point x="261" y="274"/>
      <point x="251" y="274"/>
      <point x="243" y="283"/>
      <point x="244" y="288" type="qcurve" smooth="yes"/>
      <point x="244" y="289"/>
      <point x="242" y="297"/>
      <point x="241" y="302"/>
      <point x="244" y="304" type="qcurve"/>
      <point x="244" y="307"/>
      <point x="245" y="326"/>
      <point x="249" y="337"/>
      <point x="255" y="338" type="qcurve" smooth="yes"/>
    </contour>
    <contour>
      <point x="256" y="263"/>
      <point x="260" y="262"/>
      <point x="263" y="261"/>
      <point x="267" y="257"/>
      <point x="269" y="255"/>
      <point x="272" y="250"/>
      <point x="273" y="249"/>
      <point x="276" y="242"/>
      <point x="277" y="242" type="qcurve"/>
      <point x="281" y="210"/>
      <point x="284" y="190" type="qcurve"/>
      <point x="284" y="184"/>
      <point x="284" y="134"/>
      <point x="284" y="128" type="qcurve"/>
      <point x="282" y="126"/>
      <point x="283" y="112"/>
      <point x="282" y="109" type="qcurve"/>
      <point x="280" y="107"/>
      <point x="283" y="99"/>
      <point x="282" y="98" type="qcurve"/>
      <point x="276" y="86"/>
      <point x="292" y="68"/>
      <point x="305" y="66" type="qcurve"/>
      <point x="323" y="69"/>
      <point x="375" y="108"/>
      <point x="383" y="111" type="qcurve" smooth="yes"/>
      <point x="396" y="116"/>
      <point x="419" y="96"/>
      <point x="406" y="84" type="qcurve"/>
      <point x="396" y="59"/>
      <point x="366" y="41" type="qcurve"/>
      <point x="354" y="32"/>
      <point x="304" y="4"/>
      <point x="294" y="-3" type="qcurve"/>
      <point x="266" y="-29"/>
      <point x="240" y="-24" type="qcurve"/>
      <point x="219" y="-23"/>
      <point x="181" y="-2"/>
      <point x="136" y="34"/>
      <point x="125" y="41" type="qcurve" smooth="yes"/>
      <point x="123" y="42"/>
      <point x="112" y="48"/>
      <point x="107" y="51"/>
      <point x="99" y="57"/>
      <point x="97" y="61" type="qcurve"/>
      <point x="81" y="72"/>
      <point x="103" y="100"/>
      <point x="120" y="94" type="qcurve"/>
      <point x="132" y="94"/>
      <point x="170" y="74"/>
      <point x="177" y="72" type="qcurve" smooth="yes"/>
      <point x="180" y="71"/>
      <point x="202" y="60"/>
      <point x="216" y="61"/>
      <point x="220" y="70" type="qcurve"/>
      <point x="223" y="71"/>
      <point x="221" y="77"/>
      <point x="221" y="79" type="qcurve" smooth="yes"/>
      <point x="222" y="106"/>
      <point x="221" y="150"/>
      <point x="224" y="204"/>
      <point x="229" y="225" type="qcurve"/>
      <point x="229" y="227"/>
      <point x="235" y="245"/>
      <point x="238" y="253"/>
      <point x="247" y="262"/>
      <point x="253" y="263" type="qcurve" smooth="yes"/>
    </contour>
    <contour>
      <point x="456" y="148"/>
      <point x="458" y="147" type="qcurve"/>
      <point x="467" y="137"/>
      <point x="446" y="112"/>
      <point x="434" y="109" type="qcurve" smooth="yes"/>
      <point x="421" y="105"/>
      <point x="414" y="117" type="qcurve"/>
      <point x="413" y="118" type="line"/>
      <point x="418" y="141"/>
      <point x="454" y="148" type="qcurve"/>
    </contour>
    <contour>
      <point x="58" y="127"/>
      <point x="59" y="127" type="qcurve"/>
      <point x="75" y="118"/>
      <point x="85" y="109" type="qcurve"/>
      <point x="93" y="104"/>
      <point x="82" y="92"/>
      <point x="75" y="91" type="qcurve"/>
      <point x="57" y="95"/>
      <point x="48" y="127" type="qcurve"/>
    </contour>
  </outline>
</glyph>
<glyph name="Slackware (inverse)" format="2">
  <advance width="512"/>
  <unicode hex="F319"/>
  <note>
Slackware (inverse)
</note>
  <outline>
    <contour>
      <point x="0" y="260"/>
      <point x="0" y="48"/>
      <point x="150" y="-102"/>
      <point x="362" y="-102"/>
      <point x="512" y="48"/>
      <point x="512" y="260"/>
      <point x="362" y="410"/>
      <point x="150" y="410"/>
    </contour>
    <contour>
      <point x="498" y="254"/>
      <point x="498" y="54"/>
      <point x="356" y="-88"/>
      <point x="156" y="-88"/>
      <point x="14" y="54"/>
      <point x="14" y="254"/>
      <point x="156" y="396"/>
      <point x="356" y="396"/>
    </contour>
    <contour>
      <point x="203" y="318"/>
      <point x="170" y="301" type="qcurve" smooth="yes"/>
      <point x="130" y="279"/>
      <point x="130" y="240" type="qcurve" smooth="yes"/>
      <point x="130" y="203"/>
      <point x="169" y="183" type="qcurve" smooth="yes"/>
      <point x="198" y="167"/>
      <point x="237" y="167" type="qcurve" smooth="yes"/>
      <point x="271" y="167"/>
      <point x="290" y="159" type="qcurve" smooth="yes"/>
      <point x="311" y="149"/>
      <point x="311" y="130" type="qcurve" smooth="yes"/>
      <point x="311" y="111"/>
      <point x="291" y="101" type="qcurve" smooth="yes"/>
      <point x="270" y="90"/>
      <point x="238" y="90" type="qcurve" smooth="yes"/>
      <point x="207" y="90"/>
      <point x="187" y="107" type="qcurve" smooth="yes"/>
      <point x="171" y="120"/>
      <point x="171" y="133" type="qcurve" smooth="yes"/>
      <point x="171" y="141"/>
      <point x="163" y="146" type="qcurve" smooth="yes"/>
      <point x="156" y="151"/>
      <point x="146" y="151" type="qcurve" smooth="yes"/>
      <point x="137" y="151"/>
      <point x="131" y="146" type="qcurve" smooth="yes"/>
      <point x="124" y="141"/>
      <point x="124" y="133" type="qcurve" smooth="yes"/>
      <point x="124" y="81" type="line" smooth="yes"/>
      <point x="125" y="69"/>
      <point x="130" y="61" type="qcurve" smooth="yes"/>
      <point x="137" y="52"/>
      <point x="150" y="52" type="qcurve" smooth="yes"/>
      <point x="164" y="52"/>
      <point x="169" y="56" type="qcurve" smooth="yes"/>
      <point x="173" y="59"/>
      <point x="174" y="64" type="qcurve"/>
      <point x="174" y="64"/>
      <point x="174" y="67"/>
      <point x="174" y="67" type="qcurve"/>
      <point x="208" y="52"/>
      <point x="244" y="52" type="qcurve" smooth="yes"/>
      <point x="295" y="52"/>
      <point x="327" y="74" type="qcurve" smooth="yes"/>
      <point x="361" y="96"/>
      <point x="360" y="130" type="qcurve" smooth="yes"/>
      <point x="360" y="177"/>
      <point x="312" y="197" type="qcurve" smooth="yes"/>
      <point x="282" y="209"/>
      <point x="237" y="209" type="qcurve" smooth="yes"/>
      <point x="211" y="209"/>
      <point x="195" y="220" type="qcurve" smooth="yes"/>
      <point x="181" y="229"/>
      <point x="181" y="240" type="qcurve" smooth="yes"/>
      <point x="181" y="254"/>
      <point x="212" y="280"/>
      <point x="242" y="280" type="qcurve" smooth="yes"/>
      <point x="265" y="280"/>
      <point x="295" y="265"/>
      <point x="302" y="252"/>
      <point x="303" y="247" type="qcurve"/>
      <point x="304" y="246" type="line"/>
      <point x="308" y="231"/>
      <point x="327" y="231" type="qcurve" smooth="yes"/>
      <point x="336" y="231"/>
      <point x="342" y="235" type="qcurve" smooth="yes"/>
      <point x="349" y="240"/>
      <point x="349" y="248" type="qcurve" smooth="yes"/>
      <point x="349" y="297" type="line" smooth="yes"/>
      <point x="349" y="304"/>
      <point x="341" y="311" type="qcurve" smooth="yes"/>
      <point x="333" y="317"/>
      <point x="324" y="317" type="qcurve" smooth="yes"/>
      <point x="315" y="317"/>
      <point x="309" y="313" type="qcurve" smooth="yes"/>
      <point x="305" y="311"/>
      <point x="302" y="307" type="qcurve"/>
      <point x="293" y="311"/>
      <point x="282" y="314" type="qcurve" smooth="yes"/>
      <point x="262" y="318"/>
      <point x="243" y="318" type="qcurve" smooth="yes"/>
    </contour>
    <contour>
      <point x="77" y="109"/>
      <point x="77" y="109" type="qcurve"/>
      <point x="72" y="108"/>
      <point x="72" y="103" type="qcurve" smooth="yes"/>
      <point x="73" y="21" type="line" smooth="yes"/>
      <point x="73" y="16"/>
      <point x="79" y="16" type="qcurve" smooth="yes"/>
      <point x="406" y="16" type="line" smooth="yes"/>
      <point x="411" y="16"/>
      <point x="411" y="21" type="qcurve" smooth="yes"/>
      <point x="411" y="31" type="line" smooth="yes"/>
      <point x="411" y="37"/>
      <point x="406" y="37" type="qcurve" smooth="yes"/>
      <point x="94" y="37" type="line"/>
      <point x="94" y="103" type="line" smooth="yes"/>
      <point x="94" y="108"/>
      <point x="89" y="109" type="qcurve"/>
      <point x="78" y="109" type="line" smooth="yes"/>
    </contour>
  </outline>
</glyph>
<glyph name="Tux" format="2">
  <advance width="438"/>
  <unicode hex="F31A"/>
  <note>
Tux
</note>
  <outline>
    <contour>
      <point x="288" y="-2"/>
      <point x="283" y="-7" type="qcurve" smooth="yes"/>
      <point x="262" y="-27"/>
      <point x="248" y="-35" type="qcurve" smooth="yes"/>
      <point x="242" y="-38"/>
      <point x="235" y="-40" type="qcurve" smooth="yes"/>
      <point x="226" y="-43"/>
      <point x="212" y="-44" type="qcurve"/>
      <point x="210" y="-45"/>
      <point x="206" y="-45" type="qcurve" smooth="yes"/>
      <point x="187" y="-44"/>
      <point x="171" y="-38" type="qcurve" smooth="yes"/>
      <point x="164" y="-35"/>
      <point x="162" y="-34" type="qcurve"/>
      <point x="166" y="-38"/>
      <point x="171" y="-50"/>
      <point x="175" y="-64"/>
      <point x="176" y="-67" type="qcurve"/>
      <point x="186" y="-65"/>
      <point x="194" y="-64" type="qcurve" smooth="yes"/>
      <point x="199" y="-64"/>
      <point x="200" y="-64" type="qcurve" smooth="yes"/>
      <point x="208" y="-65"/>
      <point x="215" y="-65" type="qcurve" smooth="yes"/>
      <point x="216" y="-65"/>
      <point x="217" y="-65" type="qcurve" smooth="yes"/>
      <point x="219" y="-65"/>
      <point x="222" y="-65" type="qcurve" smooth="yes"/>
      <point x="236" y="-66"/>
      <point x="249" y="-68" type="qcurve" smooth="yes"/>
      <point x="261" y="-70"/>
      <point x="274" y="-73" type="qcurve"/>
      <point x="276" y="-73"/>
      <point x="284" y="-75"/>
      <point x="285" y="-75" type="qcurve"/>
      <point x="279" y="-41"/>
      <point x="292" y="1" type="qcurve"/>
      <point x="292" y="1"/>
      <point x="292" y="2"/>
      <point x="292" y="2" type="qcurve"/>
    </contour>
    <contour>
      <point x="288" y="260"/>
      <point x="277" y="243"/>
      <point x="275" y="221" type="qcurve"/>
      <point x="276" y="218"/>
      <point x="277" y="217" type="qcurve"/>
      <point x="285" y="198"/>
      <point x="288" y="178" type="qcurve"/>
      <point x="299" y="167"/>
      <point x="306" y="153" type="qcurve" smooth="yes"/>
      <point x="323" y="119"/>
      <point x="316" y="63" type="qcurve" smooth="yes"/>
      <point x="316" y="62"/>
      <point x="315" y="60"/>
      <point x="315" y="58" type="qcurve"/>
      <point x="318" y="57"/>
      <point x="320" y="56" type="qcurve"/>
      <point x="318" y="49"/>
      <point x="318" y="41" type="qcurve" smooth="yes"/>
      <point x="319" y="32"/>
      <point x="323" y="28" type="qcurve" smooth="yes"/>
      <point x="326" y="24"/>
      <point x="333" y="22" type="qcurve" smooth="yes"/>
      <point x="342" y="19"/>
      <point x="351" y="22" type="qcurve"/>
      <point x="351" y="22" type="line"/>
      <point x="367" y="28"/>
      <point x="376" y="41" type="qcurve" smooth="yes"/>
      <point x="380" y="46"/>
      <point x="381" y="50" type="qcurve" smooth="yes"/>
      <point x="381" y="51"/>
      <point x="381" y="52" type="qcurve"/>
      <point x="386" y="60"/>
      <point x="387" y="70" type="qcurve" smooth="yes"/>
      <point x="390" y="84"/>
      <point x="387" y="105" type="qcurve" smooth="yes"/>
      <point x="383" y="128"/>
      <point x="373" y="151" type="qcurve" smooth="yes"/>
      <point x="365" y="171"/>
      <point x="357" y="183" type="qcurve"/>
      <point x="353" y="187"/>
      <point x="337" y="205"/>
      <point x="334" y="209" type="qcurve" smooth="yes"/>
      <point x="332" y="211"/>
      <point x="326" y="222"/>
      <point x="323" y="225" type="qcurve"/>
      <point x="321" y="230"/>
      <point x="319" y="234" type="qcurve" smooth="yes"/>
      <point x="308" y="259"/>
      <point x="305" y="263" type="qcurve" smooth="yes"/>
      <point x="304" y="265"/>
      <point x="302" y="268" type="qcurve"/>
    </contour>
    <contour>
      <point x="305" y="174"/>
      <point x="315" y="169" type="qcurve" smooth="yes"/>
      <point x="340" y="157"/>
      <point x="347" y="134" type="qcurve" smooth="yes"/>
      <point x="355" y="110"/>
      <point x="340" y="72" type="qcurve"/>
      <point x="340" y="72"/>
      <point x="341" y="72" type="qcurve" smooth="yes"/>
      <point x="344" y="72"/>
      <point x="348" y="71" type="qcurve" smooth="yes"/>
      <point x="351" y="71"/>
      <point x="358" y="69"/>
      <point x="359" y="69" type="qcurve" smooth="yes"/>
      <point x="360" y="69"/>
      <point x="361" y="69" type="qcurve"/>
      <point x="360" y="69"/>
      <point x="358" y="69" type="qcurve"/>
      <point x="358" y="69"/>
      <point x="357" y="69" type="qcurve" smooth="yes"/>
      <point x="356" y="69"/>
      <point x="355" y="69" type="qcurve" smooth="yes"/>
      <point x="354" y="69"/>
      <point x="354" y="69" type="qcurve"/>
      <point x="352" y="69"/>
      <point x="350" y="69" type="qcurve" smooth="yes"/>
      <point x="347" y="69"/>
      <point x="343" y="68" type="qcurve" smooth="yes"/>
      <point x="341" y="68"/>
      <point x="339" y="68"/>
      <point x="338" y="68" type="qcurve"/>
      <point x="338" y="68" type="line"/>
      <point x="336" y="67"/>
      <point x="334" y="67" type="qcurve"/>
      <point x="333" y="66"/>
      <point x="332" y="66" type="qcurve" smooth="yes"/>
      <point x="331" y="66"/>
      <point x="331" y="66" type="qcurve"/>
      <point x="330" y="65"/>
      <point x="328" y="64" type="qcurve" smooth="yes"/>
      <point x="325" y="62"/>
      <point x="325" y="61" type="qcurve"/>
      <point x="324" y="61"/>
      <point x="323" y="61" type="qcurve"/>
      <point x="323" y="60" type="line"/>
      <point x="325" y="64"/>
      <point x="328" y="67" type="qcurve" smooth="yes"/>
      <point x="331" y="70"/>
      <point x="336" y="71" type="qcurve"/>
      <point x="348" y="106"/>
      <point x="345" y="126" type="qcurve" smooth="yes"/>
      <point x="342" y="147"/>
      <point x="326" y="159" type="qcurve" smooth="yes"/>
      <point x="323" y="162"/>
      <point x="309" y="170"/>
      <point x="306" y="173" type="qcurve" smooth="yes"/>
      <point x="305" y="174"/>
      <point x="304" y="175" type="qcurve"/>
    </contour>
    <contour>
      <point x="302" y="62"/>
      <point x="301" y="62" type="qcurve" smooth="yes"/>
      <point x="295" y="62"/>
      <point x="290" y="58" type="qcurve" smooth="yes"/>
      <point x="287" y="55"/>
      <point x="285" y="49" type="qcurve"/>
      <point x="285" y="48"/>
      <point x="285" y="47" type="qcurve" smooth="yes"/>
      <point x="284" y="44"/>
      <point x="285" y="38" type="qcurve" smooth="yes"/>
      <point x="286" y="13"/>
      <point x="284" y="-7" type="qcurve" smooth="yes"/>
      <point x="283" y="-17"/>
      <point x="280" y="-32" type="qcurve" smooth="yes"/>
      <point x="276" y="-54"/>
      <point x="276" y="-64" type="qcurve" smooth="yes"/>
      <point x="276" y="-77"/>
      <point x="281" y="-84" type="qcurve" smooth="yes"/>
      <point x="286" y="-92"/>
      <point x="298" y="-97" type="qcurve" smooth="yes"/>
      <point x="312" y="-104"/>
      <point x="326" y="-102" type="qcurve" smooth="yes"/>
      <point x="337" y="-100"/>
      <point x="348" y="-92" type="qcurve" smooth="yes"/>
      <point x="351" y="-90"/>
      <point x="364" y="-78" type="qcurve" smooth="yes"/>
      <point x="372" y="-70"/>
      <point x="381" y="-64" type="qcurve" smooth="yes"/>
      <point x="385" y="-62"/>
      <point x="412" y="-48" type="qcurve" smooth="yes"/>
      <point x="425" y="-42"/>
      <point x="431" y="-35" type="qcurve" smooth="yes"/>
      <point x="435" y="-30"/>
      <point x="437" y="-25" type="qcurve"/>
      <point x="437" y="-24"/>
      <point x="437" y="-24" type="qcurve"/>
      <point x="438" y="-19"/>
      <point x="437" y="-15" type="qcurve" smooth="yes"/>
      <point x="436" y="-13"/>
      <point x="435" y="-11" type="qcurve" smooth="yes"/>
      <point x="433" y="-7"/>
      <point x="429" y="-4" type="qcurve"/>
      <point x="429" y="-4"/>
      <point x="424" y="0" type="qcurve"/>
      <point x="420" y="2"/>
      <point x="408" y="13"/>
      <point x="405" y="16" type="qcurve" smooth="yes"/>
      <point x="401" y="20"/>
      <point x="400" y="24" type="qcurve" smooth="yes"/>
      <point x="400" y="25"/>
      <point x="400" y="25" type="qcurve"/>
      <point x="400" y="27"/>
      <point x="400" y="31"/>
      <point x="400" y="32" type="qcurve" smooth="yes"/>
      <point x="399" y="38"/>
      <point x="396" y="47"/>
      <point x="393" y="50" type="qcurve" smooth="yes"/>
      <point x="389" y="53"/>
      <point x="383" y="55" type="qcurve" smooth="yes"/>
      <point x="378" y="57"/>
      <point x="368" y="57"/>
      <point x="354" y="54"/>
      <point x="353" y="54" type="qcurve" smooth="yes"/>
      <point x="346" y="53"/>
      <point x="338" y="55" type="qcurve"/>
      <point x="336" y="56"/>
      <point x="329" y="58"/>
      <point x="327" y="58" type="qcurve" smooth="yes"/>
      <point x="323" y="59"/>
      <point x="310" y="61" type="qcurve" smooth="yes"/>
      <point x="305" y="62"/>
      <point x="302" y="62" type="qcurve"/>
    </contour>
    <contour>
      <point x="306" y="57"/>
      <point x="310" y="56" type="qcurve" smooth="yes"/>
      <point x="323" y="54"/>
      <point x="327" y="53" type="qcurve" smooth="yes"/>
      <point x="328" y="53"/>
      <point x="335" y="51"/>
      <point x="337" y="50" type="qcurve"/>
      <point x="346" y="48"/>
      <point x="355" y="49" type="qcurve" smooth="yes"/>
      <point x="357" y="49"/>
      <point x="370" y="52"/>
      <point x="377" y="51"/>
      <point x="381" y="50" type="qcurve" smooth="yes"/>
      <point x="386" y="49"/>
      <point x="388" y="46" type="qcurve" smooth="yes"/>
      <point x="390" y="44"/>
      <point x="392" y="41" type="qcurve"/>
      <point x="393" y="37"/>
      <point x="394" y="32" type="qcurve"/>
      <point x="394" y="32"/>
      <point x="394" y="31" type="qcurve" smooth="yes"/>
      <point x="394" y="25"/>
      <point x="394" y="24" type="qcurve" smooth="yes"/>
      <point x="395" y="18"/>
      <point x="400" y="12" type="qcurve" smooth="yes"/>
      <point x="403" y="9"/>
      <point x="416" y="-2"/>
      <point x="420" y="-5" type="qcurve" smooth="yes"/>
      <point x="425" y="-8"/>
      <point x="425" y="-9" type="qcurve"/>
      <point x="427" y="-10"/>
      <point x="428" y="-11" type="qcurve"/>
      <point x="428" y="-11"/>
      <point x="429" y="-12" type="qcurve"/>
      <point x="429" y="-13"/>
      <point x="430" y="-13" type="qcurve"/>
      <point x="432" y="-17"/>
      <point x="431" y="-21" type="qcurve"/>
      <point x="430" y="-22"/>
      <point x="430" y="-23" type="qcurve" smooth="yes"/>
      <point x="430" y="-24" type="line"/>
      <point x="428" y="-27"/>
      <point x="426" y="-29" type="qcurve" smooth="yes"/>
      <point x="421" y="-35"/>
      <point x="409" y="-41" type="qcurve" smooth="yes"/>
      <point x="382" y="-55"/>
      <point x="378" y="-58" type="qcurve" smooth="yes"/>
      <point x="369" y="-64"/>
      <point x="360" y="-73" type="qcurve" smooth="yes"/>
      <point x="348" y="-84"/>
      <point x="345" y="-86" type="qcurve" smooth="yes"/>
      <point x="336" y="-93"/>
      <point x="326" y="-94" type="qcurve" smooth="yes"/>
      <point x="314" y="-96"/>
      <point x="302" y="-90" type="qcurve" smooth="yes"/>
      <point x="292" y="-86"/>
      <point x="288" y="-80" type="qcurve" smooth="yes"/>
      <point x="284" y="-74"/>
      <point x="284" y="-63" type="qcurve" smooth="yes"/>
      <point x="284" y="-53"/>
      <point x="288" y="-32" type="qcurve" smooth="yes"/>
      <point x="291" y="-17"/>
      <point x="292" y="-7" type="qcurve" smooth="yes"/>
      <point x="294" y="15"/>
      <point x="292" y="40" type="qcurve"/>
      <point x="292" y="40"/>
      <point x="292" y="41"/>
      <point x="292" y="42" type="qcurve" smooth="yes"/>
      <point x="292" y="43"/>
      <point x="292" y="45" type="qcurve"/>
      <point x="292" y="45"/>
      <point x="292" y="47"/>
      <point x="293" y="48"/>
      <point x="293" y="49" type="qcurve" smooth="yes"/>
      <point x="293" y="50" type="line"/>
      <point x="293" y="50"/>
      <point x="293" y="51" type="qcurve"/>
      <point x="294" y="52"/>
      <point x="295" y="53" type="qcurve"/>
      <point x="295" y="54"/>
      <point x="296" y="54" type="qcurve"/>
      <point x="298" y="57"/>
      <point x="303" y="57" type="qcurve"/>
      <point x="303" y="57"/>
      <point x="304" y="57" type="qcurve" smooth="yes"/>
    </contour>
    <contour>
      <point x="198" y="410"/>
      <point x="183" y="402" type="qcurve" smooth="yes"/>
      <point x="165" y="392"/>
      <point x="156" y="374" type="qcurve" smooth="yes"/>
      <point x="149" y="359"/>
      <point x="148" y="337" type="qcurve" smooth="yes"/>
      <point x="148" y="334"/>
      <point x="149" y="299" type="qcurve" smooth="yes"/>
      <point x="149" y="297"/>
      <point x="150" y="267"/>
      <point x="150" y="259" type="qcurve" smooth="yes"/>
      <point x="151" y="249"/>
      <point x="151" y="247" type="qcurve" smooth="yes"/>
      <point x="151" y="235"/>
      <point x="152" y="233" type="qcurve"/>
      <point x="153" y="228"/>
      <point x="156" y="225" type="qcurve" smooth="yes"/>
      <point x="158" y="223"/>
      <point x="159" y="221" type="qcurve"/>
      <point x="163" y="227"/>
      <point x="164" y="231" type="qcurve" smooth="yes"/>
      <point x="165" y="234"/>
      <point x="165" y="248" type="qcurve"/>
      <point x="166" y="252"/>
      <point x="166" y="254" type="qcurve"/>
      <point x="164" y="256"/>
      <point x="160" y="259"/>
      <point x="160" y="259" type="qcurve"/>
      <point x="158" y="260"/>
      <point x="158" y="261" type="qcurve"/>
      <point x="158" y="261"/>
      <point x="157" y="262" type="qcurve"/>
      <point x="157" y="263"/>
      <point x="157" y="264"/>
      <point x="157" y="265" type="qcurve"/>
      <point x="158" y="266"/>
      <point x="158" y="268"/>
      <point x="158" y="268" type="qcurve"/>
      <point x="158" y="269"/>
      <point x="159" y="270" type="qcurve"/>
      <point x="159" y="273"/>
      <point x="162" y="276" type="qcurve"/>
      <point x="162" y="277"/>
      <point x="163" y="278" type="qcurve"/>
      <point x="164" y="278"/>
      <point x="164" y="279"/>
      <point x="165" y="280"/>
      <point x="167" y="281"/>
      <point x="167" y="281" type="qcurve"/>
      <point x="166" y="282"/>
      <point x="166" y="282" type="qcurve"/>
      <point x="163" y="285"/>
      <point x="162" y="289" type="qcurve" smooth="yes"/>
      <point x="160" y="294"/>
      <point x="159" y="305" type="qcurve" smooth="yes"/>
      <point x="158" y="318"/>
      <point x="160" y="323" type="qcurve" smooth="yes"/>
      <point x="161" y="328"/>
      <point x="165" y="331" type="qcurve" smooth="yes"/>
      <point x="168" y="334"/>
      <point x="173" y="335" type="qcurve" smooth="yes"/>
      <point x="176" y="335"/>
      <point x="179" y="333" type="qcurve"/>
      <point x="182" y="332"/>
      <point x="185" y="329" type="qcurve" smooth="yes"/>
      <point x="189" y="324"/>
      <point x="192" y="317" type="qcurve" smooth="yes"/>
      <point x="194" y="311"/>
      <point x="194" y="303" type="qcurve" smooth="yes"/>
      <point x="194" y="301"/>
      <point x="194" y="299" type="qcurve"/>
      <point x="194" y="299" type="line"/>
      <point x="195" y="299"/>
      <point x="195" y="299" type="qcurve"/>
      <point x="196" y="300"/>
      <point x="196" y="300" type="qcurve"/>
      <point x="198" y="300"/>
      <point x="200" y="300"/>
      <point x="201" y="300" type="qcurve" smooth="yes"/>
      <point x="204" y="301"/>
      <point x="206" y="300" type="qcurve"/>
      <point x="207" y="300"/>
      <point x="208" y="300" type="qcurve" smooth="yes"/>
      <point x="209" y="300"/>
      <point x="209" y="300" type="qcurve"/>
      <point x="210" y="300"/>
      <point x="210" y="300" type="qcurve"/>
      <point x="211" y="300" type="line"/>
      <point x="211" y="300"/>
      <point x="212" y="300" type="qcurve"/>
      <point x="213" y="299"/>
      <point x="213" y="299" type="qcurve"/>
      <point x="215" y="299"/>
      <point x="217" y="298" type="qcurve"/>
      <point x="217" y="299"/>
      <point x="216" y="300" type="qcurve"/>
      <point x="212" y="312"/>
      <point x="216" y="322" type="qcurve" smooth="yes"/>
      <point x="218" y="329"/>
      <point x="226" y="335" type="qcurve"/>
      <point x="229" y="336"/>
      <point x="231" y="337" type="qcurve" smooth="yes"/>
      <point x="235" y="339"/>
      <point x="240" y="338" type="qcurve" smooth="yes"/>
      <point x="245" y="338"/>
      <point x="249" y="335" type="qcurve" smooth="yes"/>
      <point x="256" y="330"/>
      <point x="260" y="320" type="qcurve" smooth="yes"/>
      <point x="262" y="313"/>
      <point x="262" y="303" type="qcurve" smooth="yes"/>
      <point x="261" y="296"/>
      <point x="259" y="290" type="qcurve" smooth="yes"/>
      <point x="257" y="286"/>
      <point x="253" y="283" type="qcurve"/>
      <point x="254" y="283"/>
      <point x="255" y="282" type="qcurve"/>
      <point x="255" y="282"/>
      <point x="256" y="282"/>
      <point x="257" y="281" type="qcurve"/>
      <point x="258" y="281"/>
      <point x="259" y="280" type="qcurve"/>
      <point x="259" y="279"/>
      <point x="259" y="279" type="qcurve"/>
      <point x="260" y="279" type="line"/>
      <point x="260" y="278" type="line"/>
      <point x="261" y="277"/>
      <point x="261" y="275" type="qcurve"/>
      <point x="262" y="273"/>
      <point x="261" y="271" type="qcurve"/>
      <point x="261" y="270"/>
      <point x="260" y="265"/>
      <point x="260" y="264" type="qcurve" smooth="yes"/>
      <point x="259" y="259"/>
      <point x="259" y="258" type="qcurve" smooth="yes"/>
      <point x="259" y="257"/>
      <point x="258" y="257" type="qcurve"/>
      <point x="259" y="255"/>
      <point x="260" y="253" type="qcurve" smooth="yes"/>
      <point x="261" y="251"/>
      <point x="264" y="243"/>
      <point x="264" y="243" type="qcurve"/>
      <point x="265" y="242"/>
      <point x="275" y="221" type="qcurve"/>
      <point x="302" y="221"/>
      <point x="303" y="243" type="qcurve" smooth="yes"/>
      <point x="304" y="254"/>
      <point x="300" y="294"/>
      <point x="300" y="295" type="qcurve" smooth="yes"/>
      <point x="298" y="340"/>
      <point x="296" y="349" type="qcurve" smooth="yes"/>
      <point x="292" y="361"/>
      <point x="285" y="373" type="qcurve" smooth="yes"/>
      <point x="276" y="386"/>
      <point x="264" y="395" type="qcurve" smooth="yes"/>
      <point x="244" y="410"/>
      <point x="218" y="410" type="qcurve" smooth="yes"/>
    </contour>
    <contour>
      <point x="249" y="349"/>
      <point x="251" y="348" type="qcurve" smooth="yes"/>
      <point x="258" y="343"/>
      <point x="261" y="335" type="qcurve" smooth="yes"/>
      <point x="262" y="332"/>
      <point x="262" y="331" type="qcurve"/>
      <point x="257" y="340"/>
      <point x="250" y="345" type="qcurve" smooth="yes"/>
      <point x="246" y="347"/>
      <point x="241" y="348" type="qcurve"/>
      <point x="242" y="349"/>
      <point x="244" y="349" type="qcurve" smooth="yes"/>
      <point x="245" y="349"/>
      <point x="246" y="349" type="qcurve" smooth="yes"/>
    </contour>
    <contour>
      <point x="177" y="345"/>
      <point x="183" y="343"/>
      <point x="187" y="340" type="qcurve" smooth="yes"/>
      <point x="188" y="339"/>
      <point x="189" y="338" type="qcurve" smooth="yes"/>
      <point x="191" y="335"/>
      <point x="192" y="330" type="qcurve"/>
      <point x="189" y="336"/>
      <point x="184" y="340" type="qcurve" smooth="yes"/>
      <point x="181" y="343"/>
      <point x="178" y="344" type="qcurve" smooth="yes"/>
      <point x="175" y="345"/>
      <point x="172" y="345" type="qcurve"/>
      <point x="172" y="345"/>
      <point x="173" y="345" type="qcurve" smooth="yes"/>
      <point x="174" y="345"/>
      <point x="174" y="345" type="qcurve"/>
    </contour>
    <contour>
      <point x="238" y="320"/>
      <point x="237" y="320" type="qcurve" smooth="yes"/>
      <point x="234" y="320"/>
      <point x="230" y="317"/>
      <point x="228" y="315" type="qcurve" smooth="yes"/>
      <point x="225" y="311"/>
      <point x="225" y="305" type="qcurve" smooth="yes"/>
      <point x="225" y="301"/>
      <point x="228" y="293"/>
      <point x="230" y="291" type="qcurve"/>
      <point x="235" y="290"/>
      <point x="237" y="288" type="qcurve"/>
      <point x="238" y="288"/>
      <point x="238" y="288" type="qcurve"/>
      <point x="242" y="287"/>
      <point x="246" y="290" type="qcurve" smooth="yes"/>
      <point x="249" y="292"/>
      <point x="250" y="295" type="qcurve"/>
      <point x="252" y="297"/>
      <point x="252" y="301" type="qcurve" smooth="yes"/>
      <point x="253" y="307"/>
      <point x="250" y="312" type="qcurve" smooth="yes"/>
      <point x="247" y="318"/>
      <point x="242" y="320" type="qcurve"/>
      <point x="240" y="320"/>
      <point x="238" y="320" type="qcurve"/>
    </contour>
    <contour>
      <point x="240" y="316"/>
      <point x="241" y="316" type="qcurve" smooth="yes"/>
      <point x="244" y="316"/>
      <point x="246" y="313" type="qcurve" smooth="yes"/>
      <point x="249" y="308"/>
      <point x="248" y="305" type="qcurve"/>
      <point x="247" y="304"/>
      <point x="245" y="305"/>
      <point x="244" y="309"/>
      <point x="243" y="311"/>
      <point x="241" y="312" type="qcurve"/>
      <point x="241" y="312"/>
      <point x="239" y="313"/>
      <point x="239" y="313" type="qcurve"/>
      <point x="238" y="314"/>
      <point x="239" y="316"/>
      <point x="240" y="316" type="qcurve"/>
    </contour>
    <contour>
      <point x="171" y="318" type="qcurve"/>
      <point x="168" y="317"/>
      <point x="167" y="315" type="qcurve" smooth="yes"/>
      <point x="166" y="313"/>
      <point x="165" y="310" type="qcurve" smooth="yes"/>
      <point x="164" y="303"/>
      <point x="166" y="298" type="qcurve" smooth="yes"/>
      <point x="167" y="295"/>
      <point x="170" y="292" type="qcurve" smooth="yes"/>
      <point x="172" y="290"/>
      <point x="174" y="289" type="qcurve"/>
      <point x="175" y="289"/>
      <point x="183" y="295"/>
      <point x="185" y="295" type="qcurve"/>
      <point x="187" y="302"/>
      <point x="185" y="308" type="qcurve" smooth="yes"/>
      <point x="183" y="314"/>
      <point x="179" y="317" type="qcurve" smooth="yes"/>
      <point x="177" y="318"/>
      <point x="175" y="319" type="qcurve"/>
      <point x="174" y="319"/>
      <point x="172" y="319"/>
    </contour>
    <contour>
      <point x="177" y="315"/>
      <point x="178" y="314" type="qcurve"/>
      <point x="181" y="313"/>
      <point x="182" y="310" type="qcurve" smooth="yes"/>
      <point x="183" y="305"/>
      <point x="181" y="303" type="qcurve"/>
      <point x="180" y="303"/>
      <point x="179" y="303" type="qcurve"/>
      <point x="179" y="304"/>
      <point x="179" y="308"/>
      <point x="179" y="309" type="qcurve"/>
      <point x="178" y="310"/>
      <point x="177" y="311" type="qcurve"/>
      <point x="177" y="311"/>
      <point x="175" y="312"/>
      <point x="175" y="313" type="qcurve" smooth="yes"/>
      <point x="175" y="314"/>
      <point x="175" y="315" type="qcurve"/>
      <point x="176" y="315"/>
      <point x="176" y="315" type="qcurve"/>
    </contour>
    <contour>
      <point x="261" y="272"/>
      <point x="261" y="271" type="qcurve" smooth="yes"/>
      <point x="261" y="270"/>
      <point x="260" y="265"/>
      <point x="260" y="264" type="qcurve" smooth="yes"/>
      <point x="259" y="259"/>
      <point x="259" y="258" type="qcurve" smooth="yes"/>
      <point x="258" y="255"/>
      <point x="254" y="254" type="qcurve"/>
      <point x="253" y="253"/>
      <point x="249" y="252"/>
      <point x="249" y="252" type="qcurve"/>
      <point x="244" y="250"/>
      <point x="228" y="238"/>
      <point x="226" y="237" type="qcurve" smooth="yes"/>
      <point x="220" y="233"/>
      <point x="212" y="231" type="qcurve" smooth="yes"/>
      <point x="204" y="228"/>
      <point x="190" y="230"/>
      <point x="185" y="234" type="qcurve"/>
      <point x="181" y="236"/>
      <point x="172" y="248" type="qcurve" smooth="yes"/>
      <point x="167" y="254"/>
      <point x="162" y="257" type="qcurve"/>
      <point x="160" y="259"/>
      <point x="160" y="259" type="qcurve"/>
      <point x="158" y="260"/>
      <point x="158" y="261" type="qcurve"/>
      <point x="158" y="261"/>
      <point x="157" y="262" type="qcurve"/>
      <point x="157" y="263"/>
      <point x="157" y="263" type="qcurve"/>
      <point x="155" y="262"/>
      <point x="155" y="257"/>
      <point x="156" y="256" type="qcurve" smooth="yes"/>
      <point x="164" y="251"/>
      <point x="170" y="244" type="qcurve" smooth="yes"/>
      <point x="180" y="232"/>
      <point x="183" y="230" type="qcurve" smooth="yes"/>
      <point x="189" y="226"/>
      <point x="197" y="226" type="qcurve" smooth="yes"/>
      <point x="204" y="225"/>
      <point x="213" y="227" type="qcurve" smooth="yes"/>
      <point x="221" y="229"/>
      <point x="227" y="233" type="qcurve" smooth="yes"/>
      <point x="229" y="234"/>
      <point x="245" y="245"/>
      <point x="250" y="247" type="qcurve"/>
      <point x="250" y="247"/>
      <point x="251" y="247" type="qcurve" smooth="yes"/>
      <point x="254" y="248"/>
      <point x="255" y="249" type="qcurve"/>
      <point x="257" y="249"/>
      <point x="259" y="250" type="qcurve"/>
      <point x="260" y="252"/>
      <point x="261" y="254" type="qcurve"/>
      <point x="261" y="255"/>
      <point x="264" y="265"/>
      <point x="264" y="271"/>
      <point x="261" y="272" type="qcurve"/>
    </contour>
    <contour>
      <point x="249" y="274"/>
      <point x="248" y="274" type="qcurve"/>
      <point x="247" y="273"/>
      <point x="245" y="272" type="qcurve"/>
      <point x="245" y="272"/>
      <point x="243" y="270" type="qcurve" smooth="yes"/>
      <point x="240" y="267"/>
      <point x="236" y="264" type="qcurve" smooth="yes"/>
      <point x="226" y="257"/>
      <point x="219" y="254" type="qcurve" smooth="yes"/>
      <point x="214" y="252"/>
      <point x="206" y="250" type="qcurve" smooth="yes"/>
      <point x="196" y="248"/>
      <point x="190" y="249" type="qcurve"/>
      <point x="180" y="249"/>
      <point x="174" y="253" type="qcurve" smooth="yes"/>
      <point x="173" y="254"/>
      <point x="169" y="257"/>
      <point x="168" y="258" type="qcurve"/>
      <point x="164" y="260"/>
      <point x="161" y="260" type="qcurve"/>
      <point x="159" y="261"/>
      <point x="159" y="261" type="qcurve"/>
      <point x="159" y="260"/>
      <point x="159" y="260" type="qcurve"/>
      <point x="160" y="257"/>
      <point x="163" y="256" type="qcurve"/>
      <point x="165" y="256"/>
      <point x="168" y="254" type="qcurve"/>
      <point x="168" y="253"/>
      <point x="171" y="250"/>
      <point x="172" y="249" type="qcurve" smooth="yes"/>
      <point x="179" y="244"/>
      <point x="189" y="244" type="qcurve" smooth="yes"/>
      <point x="196" y="244"/>
      <point x="207" y="246" type="qcurve" smooth="yes"/>
      <point x="215" y="248"/>
      <point x="220" y="250" type="qcurve" smooth="yes"/>
      <point x="229" y="253"/>
      <point x="238" y="260" type="qcurve" smooth="yes"/>
      <point x="243" y="265"/>
      <point x="245" y="267"/>
      <point x="250" y="269"/>
      <point x="251" y="270" type="qcurve"/>
      <point x="252" y="270"/>
      <point x="252" y="270" type="qcurve"/>
      <point x="253" y="271"/>
      <point x="254" y="273"/>
      <point x="254" y="273" type="qcurve"/>
      <point x="254" y="274"/>
      <point x="253" y="274" type="qcurve" smooth="yes"/>
      <point x="251" y="274"/>
      <point x="250" y="274" type="qcurve" smooth="yes"/>
    </contour>
    <contour>
      <point x="179" y="296"/>
      <point x="170" y="287" type="qcurve" smooth="yes"/>
      <point x="166" y="283"/>
      <point x="161" y="279" type="qcurve"/>
      <point x="160" y="276"/>
      <point x="157" y="269"/>
      <point x="156" y="265"/>
      <point x="157" y="264" type="qcurve"/>
      <point x="157" y="264"/>
      <point x="157" y="265" type="qcurve" smooth="yes"/>
      <point x="158" y="270"/>
      <point x="159" y="270" type="qcurve"/>
      <point x="159" y="273"/>
      <point x="162" y="276" type="qcurve" smooth="yes"/>
      <point x="166" y="281"/>
      <point x="171" y="284" type="qcurve"/>
      <point x="179" y="294"/>
      <point x="191" y="298" type="qcurve" smooth="yes"/>
      <point x="203" y="302"/>
      <point x="213" y="299" type="qcurve" smooth="yes"/>
      <point x="217" y="298"/>
      <point x="223" y="295" type="qcurve" smooth="yes"/>
      <point x="230" y="291"/>
      <point x="231" y="291" type="qcurve"/>
      <point x="240" y="286"/>
      <point x="250" y="284" type="qcurve" smooth="yes"/>
      <point x="254" y="283"/>
      <point x="256" y="282" type="qcurve" smooth="yes"/>
      <point x="258" y="281"/>
      <point x="259" y="279" type="qcurve"/>
      <point x="261" y="279" type="line"/>
      <point x="261" y="282"/>
      <point x="256" y="284" type="qcurve"/>
      <point x="255" y="285"/>
      <point x="250" y="286" type="qcurve" smooth="yes"/>
      <point x="240" y="289"/>
      <point x="232" y="293" type="qcurve"/>
      <point x="231" y="293"/>
      <point x="223" y="298" type="qcurve" smooth="yes"/>
      <point x="217" y="301"/>
      <point x="214" y="302" type="qcurve" smooth="yes"/>
      <point x="203" y="305"/>
      <point x="191" y="301" type="qcurve" smooth="yes"/>
    </contour>
    <contour>
      <point x="212" y="295"/>
      <point x="214" y="294" type="qcurve" smooth="yes"/>
      <point x="217" y="293"/>
      <point x="217" y="290"/>
      <point x="214" y="290" type="qcurve"/>
      <point x="214" y="290"/>
      <point x="211" y="291"/>
      <point x="211" y="292" type="qcurve"/>
      <point x="211" y="292"/>
      <point x="210" y="292" type="qcurve" smooth="yes"/>
      <point x="208" y="292"/>
      <point x="207" y="294"/>
      <point x="209" y="295"/>
      <point x="210" y="295" type="qcurve" smooth="yes"/>
    </contour>
    <contour>
      <point x="188" y="294" type="line"/>
      <point x="189" y="294"/>
      <point x="189" y="292"/>
      <point x="188" y="292"/>
      <point x="187" y="290"/>
      <point x="186" y="290" type="qcurve"/>
      <point x="186" y="289"/>
      <point x="185" y="290" type="qcurve" smooth="yes"/>
      <point x="183" y="293"/>
      <point x="188" y="294" type="qcurve"/>
    </contour>
    <contour>
      <point x="153" y="246"/>
      <point x="151" y="240" type="qcurve" smooth="yes"/>
      <point x="149" y="234"/>
      <point x="145" y="228" type="qcurve"/>
      <point x="145" y="228"/>
      <point x="121" y="171"/>
      <point x="117" y="158" type="qcurve" smooth="yes"/>
      <point x="112" y="143"/>
      <point x="108" y="133" type="qcurve" smooth="yes"/>
      <point x="102" y="120"/>
      <point x="101" y="118" type="qcurve" smooth="yes"/>
      <point x="95" y="100"/>
      <point x="99" y="82" type="qcurve" smooth="yes"/>
      <point x="101" y="75"/>
      <point x="105" y="68" type="qcurve"/>
      <point x="105" y="68"/>
      <point x="106" y="68" type="qcurve"/>
      <point x="105" y="76"/>
      <point x="106" y="84" type="qcurve" smooth="yes"/>
      <point x="109" y="111"/>
      <point x="121" y="137" type="qcurve" smooth="yes"/>
      <point x="128" y="154"/>
      <point x="138" y="169" type="qcurve"/>
      <point x="137" y="179"/>
      <point x="140" y="188" type="qcurve" smooth="yes"/>
      <point x="143" y="198"/>
      <point x="155" y="215" type="qcurve" smooth="yes"/>
      <point x="162" y="225"/>
      <point x="164" y="231" type="qcurve" smooth="yes"/>
      <point x="165" y="234"/>
      <point x="165" y="248" type="qcurve"/>
      <point x="166" y="252"/>
      <point x="166" y="254" type="qcurve"/>
      <point x="164" y="256"/>
      <point x="160" y="259"/>
      <point x="160" y="259" type="qcurve"/>
      <point x="158" y="260"/>
      <point x="158" y="261" type="qcurve"/>
      <point x="158" y="261"/>
      <point x="157" y="262" type="qcurve"/>
      <point x="157" y="263" type="line" smooth="yes"/>
    </contour>
    <contour>
      <point x="117" y="34"/>
      <point x="120" y="29"/>
      <point x="123" y="25"/>
      <point x="125" y="21" type="qcurve" smooth="yes"/>
      <point x="126" y="19"/>
      <point x="128" y="16" type="qcurve" smooth="yes"/>
      <point x="142" y="-7"/>
      <point x="145" y="-11" type="qcurve" smooth="yes"/>
      <point x="147" y="-14"/>
      <point x="156" y="-25"/>
      <point x="158" y="-28" type="qcurve" smooth="yes"/>
      <point x="166" y="-38"/>
      <point x="168" y="-47" type="qcurve" smooth="yes"/>
      <point x="172" y="-61"/>
      <point x="165" y="-74" type="qcurve" smooth="yes"/>
      <point x="161" y="-83"/>
      <point x="143" y="-94"/>
      <point x="133" y="-93" type="qcurve" smooth="yes"/>
      <point x="127" y="-93"/>
      <point x="104" y="-84" type="qcurve" smooth="yes"/>
      <point x="93" y="-79"/>
      <point x="50" y="-69"/>
      <point x="43" y="-67" type="qcurve"/>
      <point x="41" y="-67"/>
      <point x="28" y="-63"/>
      <point x="24" y="-62" type="qcurve" smooth="yes"/>
      <point x="18" y="-60"/>
      <point x="16" y="-59" type="qcurve" smooth="yes"/>
      <point x="11" y="-57"/>
      <point x="9" y="-53" type="qcurve" smooth="yes"/>
      <point x="8" y="-51"/>
      <point x="8" y="-47" type="qcurve" smooth="yes"/>
      <point x="8" y="-44"/>
      <point x="9" y="-41" type="qcurve" smooth="yes"/>
      <point x="10" y="-38"/>
      <point x="14" y="-30"/>
      <point x="15" y="-28" type="qcurve" smooth="yes"/>
      <point x="18" y="-20"/>
      <point x="18" y="-7" type="qcurve"/>
      <point x="17" y="-3"/>
      <point x="16" y="12"/>
      <point x="16" y="15" type="qcurve" smooth="yes"/>
      <point x="15" y="21"/>
      <point x="16" y="25" type="qcurve" smooth="yes"/>
      <point x="17" y="30"/>
      <point x="20" y="33" type="qcurve" smooth="yes"/>
      <point x="23" y="36"/>
      <point x="28" y="37" type="qcurve" smooth="yes"/>
      <point x="31" y="38"/>
      <point x="37" y="38" type="qcurve" smooth="yes"/>
      <point x="44" y="38"/>
      <point x="46" y="38" type="qcurve" smooth="yes"/>
      <point x="51" y="38"/>
      <point x="58" y="42"/>
      <point x="61" y="46" type="qcurve" smooth="yes"/>
      <point x="62" y="48"/>
      <point x="65" y="53" type="qcurve" smooth="yes"/>
      <point x="68" y="58"/>
      <point x="70" y="60" type="qcurve" smooth="yes"/>
      <point x="73" y="64"/>
      <point x="77" y="66" type="qcurve" smooth="yes"/>
      <point x="81" y="67"/>
      <point x="85" y="66" type="qcurve" smooth="yes"/>
      <point x="89" y="66"/>
      <point x="93" y="63" type="qcurve" smooth="yes"/>
      <point x="98" y="60"/>
      <point x="105" y="50" type="qcurve" smooth="yes"/>
      <point x="110" y="43"/>
      <point x="115" y="37" type="qcurve" smooth="yes"/>
    </contour>
    <contour>
      <point x="75" y="76"/>
      <point x="64" y="64" type="qcurve" smooth="yes"/>
      <point x="62" y="61"/>
      <point x="59" y="55" type="qcurve" smooth="yes"/>
      <point x="54" y="45"/>
      <point x="51" y="44" type="qcurve" smooth="yes"/>
      <point x="48" y="43"/>
      <point x="36" y="42" type="qcurve" smooth="yes"/>
      <point x="21" y="42"/>
      <point x="15" y="36" type="qcurve" smooth="yes"/>
      <point x="9" y="31"/>
      <point x="8" y="25" type="qcurve"/>
      <point x="6" y="20"/>
      <point x="8" y="12" type="qcurve" smooth="yes"/>
      <point x="13" y="-16"/>
      <point x="2" y="-38"/>
      <point x="1" y="-41" type="qcurve" smooth="yes"/>
      <point x="-2" y="-51"/>
      <point x="3" y="-59" type="qcurve" smooth="yes"/>
      <point x="6" y="-65"/>
      <point x="12" y="-67" type="qcurve" smooth="yes"/>
      <point x="14" y="-68"/>
      <point x="21" y="-69"/>
      <point x="21" y="-70" type="qcurve"/>
      <point x="23" y="-70"/>
      <point x="30" y="-72"/>
      <point x="39" y="-75"/>
      <point x="40" y="-75" type="qcurve"/>
      <point x="51" y="-79"/>
      <point x="91" y="-89"/>
      <point x="102" y="-92" type="qcurve" smooth="yes"/>
      <point x="103" y="-92"/>
      <point x="108" y="-94"/>
      <point x="114" y="-97"/>
      <point x="116" y="-98" type="qcurve" smooth="yes"/>
      <point x="126" y="-102"/>
      <point x="134" y="-101" type="qcurve" smooth="yes"/>
      <point x="160" y="-99"/>
      <point x="171" y="-79" type="qcurve" smooth="yes"/>
      <point x="180" y="-65"/>
      <point x="175" y="-47" type="qcurve" smooth="yes"/>
      <point x="173" y="-40"/>
      <point x="164" y="-26"/>
      <point x="152" y="-12"/>
      <point x="151" y="-10" type="qcurve" smooth="yes"/>
      <point x="127" y="43"/>
      <point x="95" y="65" type="qcurve"/>
    </contour>
    <contour>
      <point x="139" y="221"/>
      <point x="132" y="212" type="qcurve" smooth="yes"/>
      <point x="121" y="198"/>
      <point x="117" y="193" type="qcurve" smooth="yes"/>
      <point x="105" y="178"/>
      <point x="101" y="170" type="qcurve" smooth="yes"/>
      <point x="100" y="167"/>
      <point x="94" y="146" type="qcurve" smooth="yes"/>
      <point x="91" y="134"/>
      <point x="84" y="120" type="qcurve" smooth="yes"/>
      <point x="80" y="112"/>
      <point x="72" y="97" type="qcurve" smooth="yes"/>
      <point x="66" y="86"/>
      <point x="65" y="80" type="qcurve" smooth="yes"/>
      <point x="64" y="73"/>
      <point x="66" y="65" type="qcurve"/>
      <point x="67" y="66"/>
      <point x="78" y="69"/>
      <point x="81" y="69"/>
      <point x="90" y="67"/>
      <point x="95" y="65" type="qcurve"/>
      <point x="110" y="53"/>
      <point x="141" y="6"/>
      <point x="145" y="-11" type="qcurve"/>
      <point x="146" y="-12"/>
      <point x="147" y="-14" type="qcurve"/>
      <point x="150" y="-14"/>
      <point x="152" y="-14" type="qcurve" smooth="yes"/>
      <point x="157" y="-14"/>
      <point x="160" y="-13" type="qcurve" smooth="yes"/>
      <point x="164" y="-11"/>
      <point x="166" y="-8" type="qcurve" smooth="yes"/>
      <point x="168" y="-4"/>
      <point x="168" y="1" type="qcurve" smooth="yes"/>
      <point x="167" y="6"/>
      <point x="165" y="10" type="qcurve" smooth="yes"/>
      <point x="161" y="16"/>
      <point x="148" y="26" type="qcurve" smooth="yes"/>
      <point x="128" y="42"/>
      <point x="109" y="59" type="qcurve" smooth="yes"/>
      <point x="103" y="65"/>
      <point x="100" y="70" type="qcurve" smooth="yes"/>
      <point x="97" y="75"/>
      <point x="96" y="83" type="qcurve" smooth="yes"/>
      <point x="92" y="103"/>
      <point x="98" y="120" type="qcurve" smooth="yes"/>
      <point x="99" y="124"/>
      <point x="104" y="134" type="qcurve" smooth="yes"/>
      <point x="112" y="151"/>
      <point x="116" y="157" type="qcurve"/>
      <point x="122" y="163"/>
      <point x="130" y="175"/>
      <point x="135" y="184"/>
      <point x="139" y="199"/>
      <point x="141" y="206"/>
      <point x="145" y="225"/>
      <point x="146" y="229" type="qcurve"/>
    </contour>
  </outline>
</glyph>
<glyph name="Ubuntu" format="2">
  <advance width="479"/>
  <unicode hex="F31B"/>
  <note>
Ubuntu
</note>
  <outline>
    <contour>
      <point x="283" y="343"/>
      <point x="283" y="287"/>
      <point x="323" y="247"/>
      <point x="379" y="247"/>
      <point x="419" y="287"/>
      <point x="419" y="343"/>
      <point x="379" y="383"/>
      <point x="323" y="383"/>
    </contour>
    <contour>
      <point x="198" y="377"/>
      <point x="92" y="316"/>
      <point x="63" y="264" type="qcurve"/>
      <point x="65" y="264"/>
      <point x="68" y="264" type="qcurve" smooth="yes"/>
      <point x="78" y="264"/>
      <point x="88" y="262" type="qcurve" smooth="yes"/>
      <point x="105" y="258"/>
      <point x="120" y="249" type="qcurve"/>
      <point x="142" y="282"/>
      <point x="213" y="320"/>
      <point x="253" y="320" type="qcurve"/>
      <point x="254" y="328"/>
      <point x="255" y="336" type="qcurve" smooth="yes"/>
      <point x="260" y="358"/>
      <point x="274" y="376" type="qcurve"/>
      <point x="266" y="376"/>
      <point x="258" y="376" type="qcurve" smooth="yes"/>
    </contour>
    <contour>
      <point x="430" y="248"/>
      <point x="404" y="232" type="qcurve"/>
      <point x="432" y="178"/>
      <point x="419" y="119" type="qcurve" smooth="yes"/>
      <point x="413" y="91"/>
      <point x="398" y="66" type="qcurve"/>
      <point x="423" y="46"/>
      <point x="431" y="16" type="qcurve"/>
      <point x="463" y="56"/>
      <point x="474" y="107" type="qcurve" smooth="yes"/>
      <point x="493" y="199"/>
      <point x="442" y="277" type="qcurve"/>
    </contour>
    <contour>
      <point x="431" y="16" type="line"/>
      <point x="431" y="16" type="line"/>
    </contour>
    <contour>
      <point x="0" y="194"/>
      <point x="0" y="138"/>
      <point x="40" y="98"/>
      <point x="96" y="98"/>
      <point x="136" y="138"/>
      <point x="136" y="194"/>
      <point x="96" y="234"/>
      <point x="40" y="234"/>
    </contour>
    <contour>
      <point x="80" y="64"/>
      <point x="50" y="70" type="qcurve"/>
      <point x="71" y="19"/>
      <point x="155" y="-52"/>
      <point x="210" y="-64" type="qcurve" smooth="yes"/>
      <point x="234" y="-69"/>
      <point x="258" y="-69" type="qcurve"/>
      <point x="239" y="-43"/>
      <point x="238" y="-12" type="qcurve"/>
      <point x="230" y="-11"/>
      <point x="221" y="-9" type="qcurve" smooth="yes"/>
      <point x="145" y="7"/>
      <point x="108" y="77" type="qcurve"/>
    </contour>
    <contour>
      <point x="268" y="19"/>
      <point x="268" y="-38"/>
      <point x="308" y="-77"/>
      <point x="364" y="-77"/>
      <point x="404" y="-38"/>
      <point x="404" y="19"/>
      <point x="364" y="59"/>
      <point x="308" y="59"/>
    </contour>
  </outline>
</glyph>
<glyph name="Ubuntu (inverse)" format="2">
  <advance width="512"/>
  <unicode hex="F31C"/>
  <note>
Ubuntu (inverse)
</note>
  <outline>
    <contour>
      <point x="0" y="259"/>
      <point x="0" y="46"/>
      <point x="150" y="-104"/>
      <point x="362" y="-104"/>
      <point x="512" y="46"/>
      <point x="512" y="259"/>
      <point x="362" y="409"/>
      <point x="150" y="409"/>
    </contour>
    <contour>
      <point x="389" y="310"/>
      <point x="389" y="263"/>
      <point x="355" y="230"/>
      <point x="308" y="230"/>
      <point x="275" y="263"/>
      <point x="275" y="310"/>
      <point x="308" y="344"/>
      <point x="355" y="344"/>
    </contour>
    <contour>
      <point x="260" y="338"/>
      <point x="267" y="337" type="qcurve"/>
      <point x="255" y="322"/>
      <point x="251" y="304" type="qcurve" smooth="yes"/>
      <point x="250" y="298"/>
      <point x="250" y="291" type="qcurve"/>
      <point x="216" y="291"/>
      <point x="157" y="259"/>
      <point x="138" y="231" type="qcurve"/>
      <point x="126" y="239"/>
      <point x="112" y="242" type="qcurve" smooth="yes"/>
      <point x="103" y="244"/>
      <point x="95" y="244" type="qcurve" smooth="yes"/>
      <point x="92" y="244"/>
      <point x="90" y="244" type="qcurve"/>
      <point x="115" y="287"/>
      <point x="203" y="338"/>
      <point x="254" y="338" type="qcurve" smooth="yes"/>
    </contour>
    <contour>
      <point x="451" y="189"/>
      <point x="434" y="113" type="qcurve" smooth="yes"/>
      <point x="425" y="70"/>
      <point x="398" y="36" type="qcurve"/>
      <point x="398" y="36" type="line"/>
      <point x="392" y="62"/>
      <point x="371" y="78" type="qcurve"/>
      <point x="384" y="99"/>
      <point x="389" y="123" type="qcurve" smooth="yes"/>
      <point x="399" y="172"/>
      <point x="376" y="217" type="qcurve"/>
      <point x="398" y="231"/>
      <point x="408" y="255" type="qcurve"/>
    </contour>
    <contour>
      <point x="152" y="186"/>
      <point x="152" y="138"/>
      <point x="118" y="105"/>
      <point x="71" y="105"/>
      <point x="38" y="138"/>
      <point x="38" y="186"/>
      <point x="71" y="219"/>
      <point x="118" y="219"/>
    </contour>
    <contour>
      <point x="159" y="29"/>
      <point x="223" y="15" type="qcurve" smooth="yes"/>
      <point x="230" y="14"/>
      <point x="237" y="13" type="qcurve"/>
      <point x="238" y="-13"/>
      <point x="254" y="-34" type="qcurve"/>
      <point x="233" y="-35"/>
      <point x="213" y="-30" type="qcurve" smooth="yes"/>
      <point x="168" y="-21"/>
      <point x="97" y="39"/>
      <point x="80" y="82" type="qcurve"/>
      <point x="105" y="77"/>
      <point x="129" y="88" type="qcurve"/>
    </contour>
    <contour>
      <point x="376" y="39"/>
      <point x="376" y="-8"/>
      <point x="343" y="-42"/>
      <point x="296" y="-42"/>
      <point x="262" y="-8"/>
      <point x="262" y="39"/>
      <point x="296" y="72"/>
      <point x="343" y="72"/>
    </contour>
  </outline>
</glyph>
<glyph name="Alma Linux" format="2">
  <advance width="512"/>
  <unicode hex="F31D"/>
  <note>
Alma Linux
</note>
  <outline>
    <contour>
      <point x="454" y="120"/>
      <point x="434" y="96"/>
      <point x="435" y="80" type="qcurve" smooth="yes"/>
      <point x="436" y="64"/>
      <point x="460" y="43"/>
      <point x="476" y="44" type="qcurve" smooth="yes"/>
      <point x="492" y="46"/>
      <point x="513" y="70"/>
      <point x="512" y="87" type="qcurve" smooth="yes"/>
      <point x="511" y="103"/>
      <point x="487" y="123"/>
      <point x="471" y="122" type="qcurve" smooth="yes"/>
    </contour>
    <contour>
      <point x="206" y="-76"/>
      <point x="228" y="-97"/>
      <point x="246" y="-97" type="qcurve" smooth="yes"/>
      <point x="261" y="-96"/>
      <point x="282" y="-73"/>
      <point x="282" y="-58" type="qcurve" smooth="yes"/>
      <point x="282" y="-42"/>
      <point x="258" y="-19"/>
      <point x="227" y="-19"/>
      <point x="206" y="-41"/>
      <point x="206" y="-57" type="qcurve" smooth="yes"/>
    </contour>
    <contour>
      <point x="264" y="225"/>
      <point x="267" y="242" type="qcurve" smooth="yes"/>
      <point x="274" y="283"/>
      <point x="286" y="300" type="qcurve" smooth="yes"/>
      <point x="298" y="315"/>
      <point x="327" y="314"/>
      <point x="338" y="297" type="qcurve" smooth="yes"/>
      <point x="346" y="283"/>
      <point x="348" y="262" type="qcurve" smooth="yes"/>
      <point x="348" y="252"/>
      <point x="358" y="253" type="qcurve" smooth="yes"/>
      <point x="390" y="259"/>
      <point x="417" y="249" type="qcurve" smooth="yes"/>
      <point x="423" y="247"/>
      <point x="426" y="249" type="qcurve" smooth="yes"/>
      <point x="431" y="253"/>
      <point x="433" y="286"/>
      <point x="430" y="292" type="qcurve"/>
      <point x="428" y="294"/>
      <point x="425" y="298"/>
      <point x="422" y="301"/>
      <point x="417" y="302"/>
      <point x="415" y="303"/>
      <point x="409" y="304"/>
      <point x="406" y="304"/>
      <point x="400" y="304"/>
      <point x="399" y="304" type="qcurve" smooth="yes"/>
      <point x="378" y="302"/>
      <point x="364" y="318" type="qcurve" smooth="yes"/>
      <point x="355" y="329"/>
      <point x="352" y="353" type="qcurve" smooth="yes"/>
      <point x="350" y="364"/>
      <point x="345" y="368" type="qcurve" smooth="yes"/>
      <point x="336" y="377"/>
      <point x="303" y="375"/>
      <point x="292" y="366" type="qcurve" smooth="yes"/>
      <point x="252" y="334"/>
      <point x="235" y="234"/>
      <point x="259" y="191" type="qcurve"/>
      <point x="261" y="186"/>
      <point x="265" y="188" type="qcurve"/>
    </contour>
    <contour>
      <point x="316" y="184"/>
      <point x="339" y="186" type="qcurve" smooth="yes"/>
      <point x="379" y="190"/>
      <point x="398" y="181" type="qcurve" smooth="yes"/>
      <point x="416" y="174"/>
      <point x="422" y="144"/>
      <point x="408" y="131" type="qcurve" smooth="yes"/>
      <point x="396" y="119"/>
      <point x="377" y="113" type="qcurve" smooth="yes"/>
      <point x="368" y="111"/>
      <point x="372" y="101" type="qcurve" smooth="yes"/>
      <point x="385" y="69"/>
      <point x="382" y="43" type="qcurve" smooth="yes"/>
      <point x="381" y="37"/>
      <point x="384" y="34" type="qcurve"/>
      <point x="390" y="31"/>
      <point x="421" y="36"/>
      <point x="426" y="40" type="qcurve" smooth="yes"/>
      <point x="428" y="42"/>
      <point x="430" y="46"/>
      <point x="432" y="50"/>
      <point x="433" y="55"/>
      <point x="433" y="57"/>
      <point x="432" y="64"/>
      <point x="432" y="65"/>
      <point x="430" y="72"/>
      <point x="430" y="73" type="qcurve" smooth="yes"/>
      <point x="425" y="94"/>
      <point x="436" y="110" type="qcurve" smooth="yes"/>
      <point x="444" y="121"/>
      <point x="466" y="131" type="qcurve" smooth="yes"/>
      <point x="474" y="134"/>
      <point x="479" y="141" type="qcurve"/>
      <point x="484" y="152"/>
      <point x="474" y="182"/>
      <point x="463" y="191" type="qcurve" smooth="yes"/>
      <point x="421" y="223"/>
      <point x="325" y="216"/>
      <point x="288" y="182" type="qcurve" smooth="yes"/>
      <point x="284" y="179"/>
      <point x="286" y="175" type="qcurve"/>
    </contour>
    <contour>
      <point x="292" y="129"/>
      <point x="302" y="106" type="qcurve" smooth="yes"/>
      <point x="316" y="67"/>
      <point x="314" y="48" type="qcurve" smooth="yes"/>
      <point x="312" y="29"/>
      <point x="285" y="15"/>
      <point x="269" y="24" type="qcurve" smooth="yes"/>
      <point x="253" y="32"/>
      <point x="243" y="49" type="qcurve" smooth="yes"/>
      <point x="237" y="57"/>
      <point x="229" y="50" type="qcurve" smooth="yes"/>
      <point x="202" y="28"/>
      <point x="176" y="23" type="qcurve"/>
      <point x="169" y="23"/>
      <point x="167" y="20" type="qcurve"/>
      <point x="165" y="14"/>
      <point x="179" y="-15"/>
      <point x="185" y="-19" type="qcurve" smooth="yes"/>
      <point x="187" y="-20"/>
      <point x="192" y="-21"/>
      <point x="196" y="-22"/>
      <point x="201" y="-21"/>
      <point x="203" y="-21"/>
      <point x="209" y="-18"/>
      <point x="211" y="-17"/>
      <point x="217" y="-13"/>
      <point x="218" y="-13" type="qcurve"/>
      <point x="236" y="-2"/>
      <point x="254" y="-8" type="qcurve" smooth="yes"/>
      <point x="269" y="-13"/>
      <point x="283" y="-31" type="qcurve" smooth="yes"/>
      <point x="289" y="-39"/>
      <point x="296" y="-40" type="qcurve" smooth="yes"/>
      <point x="308" y="-43"/>
      <point x="336" y="-24"/>
      <point x="341" y="-11" type="qcurve" smooth="yes"/>
      <point x="358" y="38"/>
      <point x="324" y="127"/>
      <point x="282" y="153" type="qcurve" smooth="yes"/>
      <point x="278" y="156"/>
      <point x="275" y="153" type="qcurve"/>
    </contour>
    <contour>
      <point x="248" y="149"/>
      <point x="242" y="147" type="qcurve"/>
      <point x="206" y="109"/>
      <point x="176" y="94" type="qcurve" smooth="yes"/>
      <point x="158" y="85"/>
      <point x="144" y="85" type="qcurve" smooth="yes"/>
      <point x="130" y="85"/>
      <point x="115" y="101"/>
      <point x="116" y="115" type="qcurve" smooth="yes"/>
      <point x="117" y="137"/>
      <point x="133" y="154" type="qcurve" smooth="yes"/>
      <point x="139" y="162"/>
      <point x="132" y="169" type="qcurve"/>
      <point x="102" y="190"/>
      <point x="92" y="214" type="qcurve"/>
      <point x="90" y="222"/>
      <point x="82" y="217" type="qcurve" smooth="yes"/>
      <point x="75" y="214"/>
      <point x="72" y="212" type="qcurve" smooth="yes"/>
      <point x="39" y="191"/>
      <point x="66" y="164" type="qcurve" smooth="yes"/>
      <point x="88" y="142"/>
      <point x="82" y="117" type="qcurve" smooth="yes"/>
      <point x="79" y="107"/>
      <point x="68" y="93" type="qcurve" smooth="yes"/>
      <point x="62" y="86"/>
      <point x="63" y="76" type="qcurve" smooth="yes"/>
      <point x="64" y="64"/>
      <point x="86" y="44"/>
      <point x="100" y="43" type="qcurve" smooth="yes"/>
      <point x="182" y="35"/>
      <point x="228" y="101" type="qcurve" smooth="yes"/>
      <point x="244" y="124"/>
      <point x="249" y="148" type="qcurve"/>
    </contour>
    <contour>
      <point x="88" y="321"/>
      <point x="82" y="300" type="qcurve"/>
      <point x="77" y="251"/>
      <point x="126" y="211" type="qcurve" smooth="yes"/>
      <point x="162" y="181"/>
      <point x="229" y="182" type="qcurve" smooth="yes"/>
      <point x="236" y="182"/>
      <point x="237" y="185" type="qcurve"/>
      <point x="237" y="188"/>
      <point x="232" y="189" type="qcurve" smooth="yes"/>
      <point x="231" y="189"/>
      <point x="231" y="190" type="qcurve"/>
      <point x="187" y="208"/>
      <point x="179" y="214" type="qcurve" smooth="yes"/>
      <point x="178" y="215"/>
      <point x="162" y="225"/>
      <point x="156" y="229"/>
      <point x="146" y="239"/>
      <point x="140" y="249"/>
      <point x="138" y="255" type="qcurve" smooth="yes"/>
      <point x="134" y="267"/>
      <point x="144" y="287"/>
      <point x="155" y="290" type="qcurve" smooth="yes"/>
      <point x="177" y="298"/>
      <point x="197" y="290" type="qcurve" smooth="yes"/>
      <point x="209" y="286"/>
      <point x="211" y="298" type="qcurve" smooth="yes"/>
      <point x="215" y="324"/>
      <point x="228" y="342" type="qcurve" smooth="yes"/>
      <point x="238" y="355"/>
      <point x="236" y="364"/>
      <point x="223" y="372" type="qcurve"/>
      <point x="222" y="372"/>
      <point x="221" y="373"/>
      <point x="221" y="373" type="qcurve"/>
      <point x="192" y="388"/>
      <point x="181" y="357" type="qcurve" smooth="yes"/>
      <point x="167" y="314"/>
      <point x="121" y="323" type="qcurve" smooth="yes"/>
      <point x="113" y="325"/>
      <point x="111" y="325" type="qcurve" smooth="yes"/>
    </contour>
    <contour>
      <point x="59" y="90"/>
      <point x="80" y="118"/>
      <point x="78" y="133" type="qcurve" smooth="yes"/>
      <point x="77" y="148"/>
      <point x="51" y="168"/>
      <point x="35" y="166" type="qcurve" smooth="yes"/>
      <point x="20" y="165"/>
      <point x="-1" y="139"/>
      <point x="0" y="124" type="qcurve" smooth="yes"/>
      <point x="1" y="108"/>
      <point x="27" y="87"/>
      <point x="42" y="89" type="qcurve" smooth="yes"/>
    </contour>
    <contour>
      <point x="378" y="386"/>
      <point x="358" y="362"/>
      <point x="359" y="346" type="qcurve" smooth="yes"/>
      <point x="361" y="330"/>
      <point x="386" y="309"/>
      <point x="402" y="310" type="qcurve" smooth="yes"/>
      <point x="417" y="312"/>
      <point x="439" y="336"/>
      <point x="437" y="352" type="qcurve" smooth="yes"/>
      <point x="436" y="367"/>
      <point x="410" y="389"/>
      <point x="395" y="388" type="qcurve" smooth="yes"/>
    </contour>
    <contour>
      <point x="174" y="386"/>
      <point x="147" y="406"/>
      <point x="132" y="404" type="qcurve" smooth="yes"/>
      <point x="115" y="403"/>
      <point x="96" y="378"/>
      <point x="98" y="360" type="qcurve" smooth="yes"/>
      <point x="100" y="346"/>
      <point x="126" y="326"/>
      <point x="140" y="328" type="qcurve" smooth="yes"/>
      <point x="157" y="331"/>
      <point x="177" y="355"/>
      <point x="176" y="372" type="qcurve" smooth="yes"/>
    </contour>
  </outline>
</glyph>
<glyph name="ArchLabs" format="2">
  <advance width="512"/>
  <unicode hex="F31E"/>
  <note>
ArchLabs
</note>
  <outline>
    <contour>
      <point x="177" y="207"/>
      <point x="0" y="-104" type="qcurve"/>
      <point x="76" y="-61"/>
      <point x="158" y="-26"/>
      <point x="203" y="-16" type="qcurve"/>
      <point x="176" y="45"/>
      <point x="180" y="147"/>
      <point x="228" y="224"/>
      <point x="273" y="253" type="qcurve"/>
      <point x="275" y="226"/>
      <point x="299" y="172"/>
      <point x="325" y="129"/>
      <point x="347" y="81"/>
      <point x="346" y="17"/>
      <point x="331" y="-21" type="qcurve"/>
      <point x="408" y="-42"/>
      <point x="512" y="-103" type="qcurve"/>
      <point x="447" y="12"/>
      <point x="295" y="309"/>
      <point x="257" y="409" type="qcurve"/>
    </contour>
    <contour>
      <point x="237" y="177"/>
      <point x="204" y="122"/>
      <point x="200" y="75"/>
      <point x="210" y="28"/>
      <point x="221" y="3"/>
      <point x="225" y="-3" type="qcurve"/>
      <point x="215" y="20"/>
      <point x="223" y="64"/>
      <point x="242" y="96"/>
      <point x="248" y="96" type="qcurve" smooth="yes"/>
      <point x="259" y="96"/>
      <point x="280" y="37"/>
      <point x="273" y="-52"/>
      <point x="246" y="-83" type="qcurve"/>
      <point x="289" y="-36"/>
      <point x="324" y="36"/>
      <point x="314" y="86"/>
      <point x="292" y="124"/>
      <point x="268" y="173"/>
      <point x="268" y="197" type="qcurve"/>
    </contour>
  </outline>
</glyph>
<glyph name="Artix Linux" format="2">
  <advance width="499"/>
  <unicode hex="F31F"/>
  <note>
Artix Linux
</note>
  <outline>
    <contour>
      <point x="162" y="229" type="line"/>
      <point x="404" y="94" type="line"/>
      <point x="250" y="410" type="line"/>
    </contour>
    <contour>
      <point x="0" y="-102" type="line"/>
      <point x="401" y="64" type="line"/>
      <point x="135" y="175" type="line"/>
    </contour>
    <contour>
      <point x="304" y="-33" type="line"/>
      <point x="499" y="-102" type="line"/>
      <point x="430" y="39" type="line"/>
    </contour>
  </outline>
</glyph>
